%TF.GenerationSoftware,KiCad,Pcbnew,8.0.9-1.fc41*%
%TF.CreationDate,2025-04-27T16:21:27+02:00*%
%TF.ProjectId,Breadboard-PowerSupply,42726561-6462-46f6-9172-642d506f7765,rev?*%
%TF.SameCoordinates,Original*%
%TF.FileFunction,Legend,Top*%
%TF.FilePolarity,Positive*%
%FSLAX46Y46*%
G04 Gerber Fmt 4.6, Leading zero omitted, Abs format (unit mm)*
G04 Created by KiCad (PCBNEW 8.0.9-1.fc41) date 2025-04-27 16:21:27*
%MOMM*%
%LPD*%
G01*
G04 APERTURE LIST*
%ADD10C,0.100000*%
%ADD11C,0.150000*%
%ADD12C,0.120000*%
G04 APERTURE END LIST*
D10*
X68244360Y-78622419D02*
X68434836Y-78622419D01*
X68434836Y-78622419D02*
X68530074Y-78670038D01*
X68530074Y-78670038D02*
X68625312Y-78765276D01*
X68625312Y-78765276D02*
X68672931Y-78955752D01*
X68672931Y-78955752D02*
X68672931Y-79289085D01*
X68672931Y-79289085D02*
X68625312Y-79479561D01*
X68625312Y-79479561D02*
X68530074Y-79574800D01*
X68530074Y-79574800D02*
X68434836Y-79622419D01*
X68434836Y-79622419D02*
X68244360Y-79622419D01*
X68244360Y-79622419D02*
X68149122Y-79574800D01*
X68149122Y-79574800D02*
X68053884Y-79479561D01*
X68053884Y-79479561D02*
X68006265Y-79289085D01*
X68006265Y-79289085D02*
X68006265Y-78955752D01*
X68006265Y-78955752D02*
X68053884Y-78765276D01*
X68053884Y-78765276D02*
X68149122Y-78670038D01*
X68149122Y-78670038D02*
X68244360Y-78622419D01*
X69434836Y-79098609D02*
X69101503Y-79098609D01*
X69101503Y-79622419D02*
X69101503Y-78622419D01*
X69101503Y-78622419D02*
X69577693Y-78622419D01*
X70291979Y-79098609D02*
X69958646Y-79098609D01*
X69958646Y-79622419D02*
X69958646Y-78622419D01*
X69958646Y-78622419D02*
X70434836Y-78622419D01*
X63077693Y-104920038D02*
X62982455Y-104872419D01*
X62982455Y-104872419D02*
X62839598Y-104872419D01*
X62839598Y-104872419D02*
X62696741Y-104920038D01*
X62696741Y-104920038D02*
X62601503Y-105015276D01*
X62601503Y-105015276D02*
X62553884Y-105110514D01*
X62553884Y-105110514D02*
X62506265Y-105300990D01*
X62506265Y-105300990D02*
X62506265Y-105443847D01*
X62506265Y-105443847D02*
X62553884Y-105634323D01*
X62553884Y-105634323D02*
X62601503Y-105729561D01*
X62601503Y-105729561D02*
X62696741Y-105824800D01*
X62696741Y-105824800D02*
X62839598Y-105872419D01*
X62839598Y-105872419D02*
X62934836Y-105872419D01*
X62934836Y-105872419D02*
X63077693Y-105824800D01*
X63077693Y-105824800D02*
X63125312Y-105777180D01*
X63125312Y-105777180D02*
X63125312Y-105443847D01*
X63125312Y-105443847D02*
X62934836Y-105443847D01*
X63553884Y-105872419D02*
X63553884Y-104872419D01*
X63553884Y-104872419D02*
X64125312Y-105872419D01*
X64125312Y-105872419D02*
X64125312Y-104872419D01*
X64601503Y-105872419D02*
X64601503Y-104872419D01*
X64601503Y-104872419D02*
X64839598Y-104872419D01*
X64839598Y-104872419D02*
X64982455Y-104920038D01*
X64982455Y-104920038D02*
X65077693Y-105015276D01*
X65077693Y-105015276D02*
X65125312Y-105110514D01*
X65125312Y-105110514D02*
X65172931Y-105300990D01*
X65172931Y-105300990D02*
X65172931Y-105443847D01*
X65172931Y-105443847D02*
X65125312Y-105634323D01*
X65125312Y-105634323D02*
X65077693Y-105729561D01*
X65077693Y-105729561D02*
X64982455Y-105824800D01*
X64982455Y-105824800D02*
X64839598Y-105872419D01*
X64839598Y-105872419D02*
X64601503Y-105872419D01*
X62827693Y-60920038D02*
X62732455Y-60872419D01*
X62732455Y-60872419D02*
X62589598Y-60872419D01*
X62589598Y-60872419D02*
X62446741Y-60920038D01*
X62446741Y-60920038D02*
X62351503Y-61015276D01*
X62351503Y-61015276D02*
X62303884Y-61110514D01*
X62303884Y-61110514D02*
X62256265Y-61300990D01*
X62256265Y-61300990D02*
X62256265Y-61443847D01*
X62256265Y-61443847D02*
X62303884Y-61634323D01*
X62303884Y-61634323D02*
X62351503Y-61729561D01*
X62351503Y-61729561D02*
X62446741Y-61824800D01*
X62446741Y-61824800D02*
X62589598Y-61872419D01*
X62589598Y-61872419D02*
X62684836Y-61872419D01*
X62684836Y-61872419D02*
X62827693Y-61824800D01*
X62827693Y-61824800D02*
X62875312Y-61777180D01*
X62875312Y-61777180D02*
X62875312Y-61443847D01*
X62875312Y-61443847D02*
X62684836Y-61443847D01*
X63303884Y-61872419D02*
X63303884Y-60872419D01*
X63303884Y-60872419D02*
X63875312Y-61872419D01*
X63875312Y-61872419D02*
X63875312Y-60872419D01*
X64351503Y-61872419D02*
X64351503Y-60872419D01*
X64351503Y-60872419D02*
X64589598Y-60872419D01*
X64589598Y-60872419D02*
X64732455Y-60920038D01*
X64732455Y-60920038D02*
X64827693Y-61015276D01*
X64827693Y-61015276D02*
X64875312Y-61110514D01*
X64875312Y-61110514D02*
X64922931Y-61300990D01*
X64922931Y-61300990D02*
X64922931Y-61443847D01*
X64922931Y-61443847D02*
X64875312Y-61634323D01*
X64875312Y-61634323D02*
X64827693Y-61729561D01*
X64827693Y-61729561D02*
X64732455Y-61824800D01*
X64732455Y-61824800D02*
X64589598Y-61872419D01*
X64589598Y-61872419D02*
X64351503Y-61872419D01*
X54243734Y-98157866D02*
X53634211Y-98157866D01*
X68244360Y-69372419D02*
X68434836Y-69372419D01*
X68434836Y-69372419D02*
X68530074Y-69420038D01*
X68530074Y-69420038D02*
X68625312Y-69515276D01*
X68625312Y-69515276D02*
X68672931Y-69705752D01*
X68672931Y-69705752D02*
X68672931Y-70039085D01*
X68672931Y-70039085D02*
X68625312Y-70229561D01*
X68625312Y-70229561D02*
X68530074Y-70324800D01*
X68530074Y-70324800D02*
X68434836Y-70372419D01*
X68434836Y-70372419D02*
X68244360Y-70372419D01*
X68244360Y-70372419D02*
X68149122Y-70324800D01*
X68149122Y-70324800D02*
X68053884Y-70229561D01*
X68053884Y-70229561D02*
X68006265Y-70039085D01*
X68006265Y-70039085D02*
X68006265Y-69705752D01*
X68006265Y-69705752D02*
X68053884Y-69515276D01*
X68053884Y-69515276D02*
X68149122Y-69420038D01*
X68149122Y-69420038D02*
X68244360Y-69372419D01*
X69101503Y-70372419D02*
X69101503Y-69372419D01*
X69101503Y-69372419D02*
X69672931Y-70372419D01*
X69672931Y-70372419D02*
X69672931Y-69372419D01*
X59872419Y-61719925D02*
X59872419Y-62196115D01*
X59872419Y-62196115D02*
X60348609Y-62243734D01*
X60348609Y-62243734D02*
X60300990Y-62196115D01*
X60300990Y-62196115D02*
X60253371Y-62100877D01*
X60253371Y-62100877D02*
X60253371Y-61862782D01*
X60253371Y-61862782D02*
X60300990Y-61767544D01*
X60300990Y-61767544D02*
X60348609Y-61719925D01*
X60348609Y-61719925D02*
X60443847Y-61672306D01*
X60443847Y-61672306D02*
X60681942Y-61672306D01*
X60681942Y-61672306D02*
X60777180Y-61719925D01*
X60777180Y-61719925D02*
X60824800Y-61767544D01*
X60824800Y-61767544D02*
X60872419Y-61862782D01*
X60872419Y-61862782D02*
X60872419Y-62100877D01*
X60872419Y-62100877D02*
X60824800Y-62196115D01*
X60824800Y-62196115D02*
X60777180Y-62243734D01*
X59872419Y-61386591D02*
X60872419Y-61053258D01*
X60872419Y-61053258D02*
X59872419Y-60719925D01*
X71634990Y-62074687D02*
X71596895Y-62150877D01*
X71596895Y-62150877D02*
X71596895Y-62265163D01*
X71596895Y-62265163D02*
X71634990Y-62379449D01*
X71634990Y-62379449D02*
X71711180Y-62455639D01*
X71711180Y-62455639D02*
X71787371Y-62493734D01*
X71787371Y-62493734D02*
X71939752Y-62531830D01*
X71939752Y-62531830D02*
X72054038Y-62531830D01*
X72054038Y-62531830D02*
X72206419Y-62493734D01*
X72206419Y-62493734D02*
X72282609Y-62455639D01*
X72282609Y-62455639D02*
X72358800Y-62379449D01*
X72358800Y-62379449D02*
X72396895Y-62265163D01*
X72396895Y-62265163D02*
X72396895Y-62188972D01*
X72396895Y-62188972D02*
X72358800Y-62074687D01*
X72358800Y-62074687D02*
X72320704Y-62036591D01*
X72320704Y-62036591D02*
X72054038Y-62036591D01*
X72054038Y-62036591D02*
X72054038Y-62188972D01*
X72396895Y-61693734D02*
X71596895Y-61693734D01*
X71596895Y-61693734D02*
X72396895Y-61236591D01*
X72396895Y-61236591D02*
X71596895Y-61236591D01*
X72396895Y-60855639D02*
X71596895Y-60855639D01*
X71596895Y-60855639D02*
X71596895Y-60665163D01*
X71596895Y-60665163D02*
X71634990Y-60550877D01*
X71634990Y-60550877D02*
X71711180Y-60474687D01*
X71711180Y-60474687D02*
X71787371Y-60436592D01*
X71787371Y-60436592D02*
X71939752Y-60398496D01*
X71939752Y-60398496D02*
X72054038Y-60398496D01*
X72054038Y-60398496D02*
X72206419Y-60436592D01*
X72206419Y-60436592D02*
X72282609Y-60474687D01*
X72282609Y-60474687D02*
X72358800Y-60550877D01*
X72358800Y-60550877D02*
X72396895Y-60665163D01*
X72396895Y-60665163D02*
X72396895Y-60855639D01*
X50622419Y-111291353D02*
X50622419Y-110672306D01*
X50622419Y-110672306D02*
X51003371Y-111005639D01*
X51003371Y-111005639D02*
X51003371Y-110862782D01*
X51003371Y-110862782D02*
X51050990Y-110767544D01*
X51050990Y-110767544D02*
X51098609Y-110719925D01*
X51098609Y-110719925D02*
X51193847Y-110672306D01*
X51193847Y-110672306D02*
X51431942Y-110672306D01*
X51431942Y-110672306D02*
X51527180Y-110719925D01*
X51527180Y-110719925D02*
X51574800Y-110767544D01*
X51574800Y-110767544D02*
X51622419Y-110862782D01*
X51622419Y-110862782D02*
X51622419Y-111148496D01*
X51622419Y-111148496D02*
X51574800Y-111243734D01*
X51574800Y-111243734D02*
X51527180Y-111291353D01*
X51527180Y-110243734D02*
X51574800Y-110196115D01*
X51574800Y-110196115D02*
X51622419Y-110243734D01*
X51622419Y-110243734D02*
X51574800Y-110291353D01*
X51574800Y-110291353D02*
X51527180Y-110243734D01*
X51527180Y-110243734D02*
X51622419Y-110243734D01*
X50622419Y-109862782D02*
X50622419Y-109243735D01*
X50622419Y-109243735D02*
X51003371Y-109577068D01*
X51003371Y-109577068D02*
X51003371Y-109434211D01*
X51003371Y-109434211D02*
X51050990Y-109338973D01*
X51050990Y-109338973D02*
X51098609Y-109291354D01*
X51098609Y-109291354D02*
X51193847Y-109243735D01*
X51193847Y-109243735D02*
X51431942Y-109243735D01*
X51431942Y-109243735D02*
X51527180Y-109291354D01*
X51527180Y-109291354D02*
X51574800Y-109338973D01*
X51574800Y-109338973D02*
X51622419Y-109434211D01*
X51622419Y-109434211D02*
X51622419Y-109719925D01*
X51622419Y-109719925D02*
X51574800Y-109815163D01*
X51574800Y-109815163D02*
X51527180Y-109862782D01*
X50622419Y-108958020D02*
X51622419Y-108624687D01*
X51622419Y-108624687D02*
X50622419Y-108291354D01*
X71884990Y-107724687D02*
X71846895Y-107800877D01*
X71846895Y-107800877D02*
X71846895Y-107915163D01*
X71846895Y-107915163D02*
X71884990Y-108029449D01*
X71884990Y-108029449D02*
X71961180Y-108105639D01*
X71961180Y-108105639D02*
X72037371Y-108143734D01*
X72037371Y-108143734D02*
X72189752Y-108181830D01*
X72189752Y-108181830D02*
X72304038Y-108181830D01*
X72304038Y-108181830D02*
X72456419Y-108143734D01*
X72456419Y-108143734D02*
X72532609Y-108105639D01*
X72532609Y-108105639D02*
X72608800Y-108029449D01*
X72608800Y-108029449D02*
X72646895Y-107915163D01*
X72646895Y-107915163D02*
X72646895Y-107838972D01*
X72646895Y-107838972D02*
X72608800Y-107724687D01*
X72608800Y-107724687D02*
X72570704Y-107686591D01*
X72570704Y-107686591D02*
X72304038Y-107686591D01*
X72304038Y-107686591D02*
X72304038Y-107838972D01*
X72646895Y-107343734D02*
X71846895Y-107343734D01*
X71846895Y-107343734D02*
X72646895Y-106886591D01*
X72646895Y-106886591D02*
X71846895Y-106886591D01*
X72646895Y-106505639D02*
X71846895Y-106505639D01*
X71846895Y-106505639D02*
X71846895Y-106315163D01*
X71846895Y-106315163D02*
X71884990Y-106200877D01*
X71884990Y-106200877D02*
X71961180Y-106124687D01*
X71961180Y-106124687D02*
X72037371Y-106086592D01*
X72037371Y-106086592D02*
X72189752Y-106048496D01*
X72189752Y-106048496D02*
X72304038Y-106048496D01*
X72304038Y-106048496D02*
X72456419Y-106086592D01*
X72456419Y-106086592D02*
X72532609Y-106124687D01*
X72532609Y-106124687D02*
X72608800Y-106200877D01*
X72608800Y-106200877D02*
X72646895Y-106315163D01*
X72646895Y-106315163D02*
X72646895Y-106505639D01*
X56743734Y-98157866D02*
X56134211Y-98157866D01*
X56438972Y-97853104D02*
X56438972Y-98462628D01*
X59872419Y-110219925D02*
X59872419Y-110696115D01*
X59872419Y-110696115D02*
X60348609Y-110743734D01*
X60348609Y-110743734D02*
X60300990Y-110696115D01*
X60300990Y-110696115D02*
X60253371Y-110600877D01*
X60253371Y-110600877D02*
X60253371Y-110362782D01*
X60253371Y-110362782D02*
X60300990Y-110267544D01*
X60300990Y-110267544D02*
X60348609Y-110219925D01*
X60348609Y-110219925D02*
X60443847Y-110172306D01*
X60443847Y-110172306D02*
X60681942Y-110172306D01*
X60681942Y-110172306D02*
X60777180Y-110219925D01*
X60777180Y-110219925D02*
X60824800Y-110267544D01*
X60824800Y-110267544D02*
X60872419Y-110362782D01*
X60872419Y-110362782D02*
X60872419Y-110600877D01*
X60872419Y-110600877D02*
X60824800Y-110696115D01*
X60824800Y-110696115D02*
X60777180Y-110743734D01*
X59872419Y-109886591D02*
X60872419Y-109553258D01*
X60872419Y-109553258D02*
X59872419Y-109219925D01*
X50622419Y-63041353D02*
X50622419Y-62422306D01*
X50622419Y-62422306D02*
X51003371Y-62755639D01*
X51003371Y-62755639D02*
X51003371Y-62612782D01*
X51003371Y-62612782D02*
X51050990Y-62517544D01*
X51050990Y-62517544D02*
X51098609Y-62469925D01*
X51098609Y-62469925D02*
X51193847Y-62422306D01*
X51193847Y-62422306D02*
X51431942Y-62422306D01*
X51431942Y-62422306D02*
X51527180Y-62469925D01*
X51527180Y-62469925D02*
X51574800Y-62517544D01*
X51574800Y-62517544D02*
X51622419Y-62612782D01*
X51622419Y-62612782D02*
X51622419Y-62898496D01*
X51622419Y-62898496D02*
X51574800Y-62993734D01*
X51574800Y-62993734D02*
X51527180Y-63041353D01*
X51527180Y-61993734D02*
X51574800Y-61946115D01*
X51574800Y-61946115D02*
X51622419Y-61993734D01*
X51622419Y-61993734D02*
X51574800Y-62041353D01*
X51574800Y-62041353D02*
X51527180Y-61993734D01*
X51527180Y-61993734D02*
X51622419Y-61993734D01*
X50622419Y-61612782D02*
X50622419Y-60993735D01*
X50622419Y-60993735D02*
X51003371Y-61327068D01*
X51003371Y-61327068D02*
X51003371Y-61184211D01*
X51003371Y-61184211D02*
X51050990Y-61088973D01*
X51050990Y-61088973D02*
X51098609Y-61041354D01*
X51098609Y-61041354D02*
X51193847Y-60993735D01*
X51193847Y-60993735D02*
X51431942Y-60993735D01*
X51431942Y-60993735D02*
X51527180Y-61041354D01*
X51527180Y-61041354D02*
X51574800Y-61088973D01*
X51574800Y-61088973D02*
X51622419Y-61184211D01*
X51622419Y-61184211D02*
X51622419Y-61469925D01*
X51622419Y-61469925D02*
X51574800Y-61565163D01*
X51574800Y-61565163D02*
X51527180Y-61612782D01*
X50622419Y-60708020D02*
X51622419Y-60374687D01*
X51622419Y-60374687D02*
X50622419Y-60041354D01*
D11*
X61704819Y-94166666D02*
X61228628Y-94499999D01*
X61704819Y-94738094D02*
X60704819Y-94738094D01*
X60704819Y-94738094D02*
X60704819Y-94357142D01*
X60704819Y-94357142D02*
X60752438Y-94261904D01*
X60752438Y-94261904D02*
X60800057Y-94214285D01*
X60800057Y-94214285D02*
X60895295Y-94166666D01*
X60895295Y-94166666D02*
X61038152Y-94166666D01*
X61038152Y-94166666D02*
X61133390Y-94214285D01*
X61133390Y-94214285D02*
X61181009Y-94261904D01*
X61181009Y-94261904D02*
X61228628Y-94357142D01*
X61228628Y-94357142D02*
X61228628Y-94738094D01*
X60704819Y-93833332D02*
X60704819Y-93214285D01*
X60704819Y-93214285D02*
X61085771Y-93547618D01*
X61085771Y-93547618D02*
X61085771Y-93404761D01*
X61085771Y-93404761D02*
X61133390Y-93309523D01*
X61133390Y-93309523D02*
X61181009Y-93261904D01*
X61181009Y-93261904D02*
X61276247Y-93214285D01*
X61276247Y-93214285D02*
X61514342Y-93214285D01*
X61514342Y-93214285D02*
X61609580Y-93261904D01*
X61609580Y-93261904D02*
X61657200Y-93309523D01*
X61657200Y-93309523D02*
X61704819Y-93404761D01*
X61704819Y-93404761D02*
X61704819Y-93690475D01*
X61704819Y-93690475D02*
X61657200Y-93785713D01*
X61657200Y-93785713D02*
X61609580Y-93833332D01*
X60704819Y-101785713D02*
X60704819Y-101166666D01*
X60704819Y-101166666D02*
X61085771Y-101499999D01*
X61085771Y-101499999D02*
X61085771Y-101357142D01*
X61085771Y-101357142D02*
X61133390Y-101261904D01*
X61133390Y-101261904D02*
X61181009Y-101214285D01*
X61181009Y-101214285D02*
X61276247Y-101166666D01*
X61276247Y-101166666D02*
X61514342Y-101166666D01*
X61514342Y-101166666D02*
X61609580Y-101214285D01*
X61609580Y-101214285D02*
X61657200Y-101261904D01*
X61657200Y-101261904D02*
X61704819Y-101357142D01*
X61704819Y-101357142D02*
X61704819Y-101642856D01*
X61704819Y-101642856D02*
X61657200Y-101738094D01*
X61657200Y-101738094D02*
X61609580Y-101785713D01*
X60704819Y-100833332D02*
X60704819Y-100214285D01*
X60704819Y-100214285D02*
X61085771Y-100547618D01*
X61085771Y-100547618D02*
X61085771Y-100404761D01*
X61085771Y-100404761D02*
X61133390Y-100309523D01*
X61133390Y-100309523D02*
X61181009Y-100261904D01*
X61181009Y-100261904D02*
X61276247Y-100214285D01*
X61276247Y-100214285D02*
X61514342Y-100214285D01*
X61514342Y-100214285D02*
X61609580Y-100261904D01*
X61609580Y-100261904D02*
X61657200Y-100309523D01*
X61657200Y-100309523D02*
X61704819Y-100404761D01*
X61704819Y-100404761D02*
X61704819Y-100690475D01*
X61704819Y-100690475D02*
X61657200Y-100785713D01*
X61657200Y-100785713D02*
X61609580Y-100833332D01*
X60704819Y-99595237D02*
X60704819Y-99499999D01*
X60704819Y-99499999D02*
X60752438Y-99404761D01*
X60752438Y-99404761D02*
X60800057Y-99357142D01*
X60800057Y-99357142D02*
X60895295Y-99309523D01*
X60895295Y-99309523D02*
X61085771Y-99261904D01*
X61085771Y-99261904D02*
X61323866Y-99261904D01*
X61323866Y-99261904D02*
X61514342Y-99309523D01*
X61514342Y-99309523D02*
X61609580Y-99357142D01*
X61609580Y-99357142D02*
X61657200Y-99404761D01*
X61657200Y-99404761D02*
X61704819Y-99499999D01*
X61704819Y-99499999D02*
X61704819Y-99595237D01*
X61704819Y-99595237D02*
X61657200Y-99690475D01*
X61657200Y-99690475D02*
X61609580Y-99738094D01*
X61609580Y-99738094D02*
X61514342Y-99785713D01*
X61514342Y-99785713D02*
X61323866Y-99833332D01*
X61323866Y-99833332D02*
X61085771Y-99833332D01*
X61085771Y-99833332D02*
X60895295Y-99785713D01*
X60895295Y-99785713D02*
X60800057Y-99738094D01*
X60800057Y-99738094D02*
X60752438Y-99690475D01*
X60752438Y-99690475D02*
X60704819Y-99595237D01*
X62109580Y-71166666D02*
X62157200Y-71214285D01*
X62157200Y-71214285D02*
X62204819Y-71357142D01*
X62204819Y-71357142D02*
X62204819Y-71452380D01*
X62204819Y-71452380D02*
X62157200Y-71595237D01*
X62157200Y-71595237D02*
X62061961Y-71690475D01*
X62061961Y-71690475D02*
X61966723Y-71738094D01*
X61966723Y-71738094D02*
X61776247Y-71785713D01*
X61776247Y-71785713D02*
X61633390Y-71785713D01*
X61633390Y-71785713D02*
X61442914Y-71738094D01*
X61442914Y-71738094D02*
X61347676Y-71690475D01*
X61347676Y-71690475D02*
X61252438Y-71595237D01*
X61252438Y-71595237D02*
X61204819Y-71452380D01*
X61204819Y-71452380D02*
X61204819Y-71357142D01*
X61204819Y-71357142D02*
X61252438Y-71214285D01*
X61252438Y-71214285D02*
X61300057Y-71166666D01*
X62204819Y-70214285D02*
X62204819Y-70785713D01*
X62204819Y-70499999D02*
X61204819Y-70499999D01*
X61204819Y-70499999D02*
X61347676Y-70595237D01*
X61347676Y-70595237D02*
X61442914Y-70690475D01*
X61442914Y-70690475D02*
X61490533Y-70785713D01*
X62204819Y-74392857D02*
X62204819Y-74964285D01*
X62204819Y-74678571D02*
X61204819Y-74678571D01*
X61204819Y-74678571D02*
X61347676Y-74773809D01*
X61347676Y-74773809D02*
X61442914Y-74869047D01*
X61442914Y-74869047D02*
X61490533Y-74964285D01*
X61204819Y-73773809D02*
X61204819Y-73678571D01*
X61204819Y-73678571D02*
X61252438Y-73583333D01*
X61252438Y-73583333D02*
X61300057Y-73535714D01*
X61300057Y-73535714D02*
X61395295Y-73488095D01*
X61395295Y-73488095D02*
X61585771Y-73440476D01*
X61585771Y-73440476D02*
X61823866Y-73440476D01*
X61823866Y-73440476D02*
X62014342Y-73488095D01*
X62014342Y-73488095D02*
X62109580Y-73535714D01*
X62109580Y-73535714D02*
X62157200Y-73583333D01*
X62157200Y-73583333D02*
X62204819Y-73678571D01*
X62204819Y-73678571D02*
X62204819Y-73773809D01*
X62204819Y-73773809D02*
X62157200Y-73869047D01*
X62157200Y-73869047D02*
X62109580Y-73916666D01*
X62109580Y-73916666D02*
X62014342Y-73964285D01*
X62014342Y-73964285D02*
X61823866Y-74011904D01*
X61823866Y-74011904D02*
X61585771Y-74011904D01*
X61585771Y-74011904D02*
X61395295Y-73964285D01*
X61395295Y-73964285D02*
X61300057Y-73916666D01*
X61300057Y-73916666D02*
X61252438Y-73869047D01*
X61252438Y-73869047D02*
X61204819Y-73773809D01*
X61538152Y-72583333D02*
X62204819Y-72583333D01*
X61538152Y-73011904D02*
X62061961Y-73011904D01*
X62061961Y-73011904D02*
X62157200Y-72964285D01*
X62157200Y-72964285D02*
X62204819Y-72869047D01*
X62204819Y-72869047D02*
X62204819Y-72726190D01*
X62204819Y-72726190D02*
X62157200Y-72630952D01*
X62157200Y-72630952D02*
X62109580Y-72583333D01*
X58988095Y-67204819D02*
X58988095Y-68014342D01*
X58988095Y-68014342D02*
X59035714Y-68109580D01*
X59035714Y-68109580D02*
X59083333Y-68157200D01*
X59083333Y-68157200D02*
X59178571Y-68204819D01*
X59178571Y-68204819D02*
X59369047Y-68204819D01*
X59369047Y-68204819D02*
X59464285Y-68157200D01*
X59464285Y-68157200D02*
X59511904Y-68109580D01*
X59511904Y-68109580D02*
X59559523Y-68014342D01*
X59559523Y-68014342D02*
X59559523Y-67204819D01*
X60559523Y-68204819D02*
X59988095Y-68204819D01*
X60273809Y-68204819D02*
X60273809Y-67204819D01*
X60273809Y-67204819D02*
X60178571Y-67347676D01*
X60178571Y-67347676D02*
X60083333Y-67442914D01*
X60083333Y-67442914D02*
X59988095Y-67490533D01*
X66657200Y-80011904D02*
X66704819Y-79869047D01*
X66704819Y-79869047D02*
X66704819Y-79630952D01*
X66704819Y-79630952D02*
X66657200Y-79535714D01*
X66657200Y-79535714D02*
X66609580Y-79488095D01*
X66609580Y-79488095D02*
X66514342Y-79440476D01*
X66514342Y-79440476D02*
X66419104Y-79440476D01*
X66419104Y-79440476D02*
X66323866Y-79488095D01*
X66323866Y-79488095D02*
X66276247Y-79535714D01*
X66276247Y-79535714D02*
X66228628Y-79630952D01*
X66228628Y-79630952D02*
X66181009Y-79821428D01*
X66181009Y-79821428D02*
X66133390Y-79916666D01*
X66133390Y-79916666D02*
X66085771Y-79964285D01*
X66085771Y-79964285D02*
X65990533Y-80011904D01*
X65990533Y-80011904D02*
X65895295Y-80011904D01*
X65895295Y-80011904D02*
X65800057Y-79964285D01*
X65800057Y-79964285D02*
X65752438Y-79916666D01*
X65752438Y-79916666D02*
X65704819Y-79821428D01*
X65704819Y-79821428D02*
X65704819Y-79583333D01*
X65704819Y-79583333D02*
X65752438Y-79440476D01*
X66704819Y-78488095D02*
X66704819Y-79059523D01*
X66704819Y-78773809D02*
X65704819Y-78773809D01*
X65704819Y-78773809D02*
X65847676Y-78869047D01*
X65847676Y-78869047D02*
X65942914Y-78964285D01*
X65942914Y-78964285D02*
X65990533Y-79059523D01*
X56833333Y-77359580D02*
X56785714Y-77407200D01*
X56785714Y-77407200D02*
X56642857Y-77454819D01*
X56642857Y-77454819D02*
X56547619Y-77454819D01*
X56547619Y-77454819D02*
X56404762Y-77407200D01*
X56404762Y-77407200D02*
X56309524Y-77311961D01*
X56309524Y-77311961D02*
X56261905Y-77216723D01*
X56261905Y-77216723D02*
X56214286Y-77026247D01*
X56214286Y-77026247D02*
X56214286Y-76883390D01*
X56214286Y-76883390D02*
X56261905Y-76692914D01*
X56261905Y-76692914D02*
X56309524Y-76597676D01*
X56309524Y-76597676D02*
X56404762Y-76502438D01*
X56404762Y-76502438D02*
X56547619Y-76454819D01*
X56547619Y-76454819D02*
X56642857Y-76454819D01*
X56642857Y-76454819D02*
X56785714Y-76502438D01*
X56785714Y-76502438D02*
X56833333Y-76550057D01*
X57166667Y-76454819D02*
X57785714Y-76454819D01*
X57785714Y-76454819D02*
X57452381Y-76835771D01*
X57452381Y-76835771D02*
X57595238Y-76835771D01*
X57595238Y-76835771D02*
X57690476Y-76883390D01*
X57690476Y-76883390D02*
X57738095Y-76931009D01*
X57738095Y-76931009D02*
X57785714Y-77026247D01*
X57785714Y-77026247D02*
X57785714Y-77264342D01*
X57785714Y-77264342D02*
X57738095Y-77359580D01*
X57738095Y-77359580D02*
X57690476Y-77407200D01*
X57690476Y-77407200D02*
X57595238Y-77454819D01*
X57595238Y-77454819D02*
X57309524Y-77454819D01*
X57309524Y-77454819D02*
X57214286Y-77407200D01*
X57214286Y-77407200D02*
X57166667Y-77359580D01*
X53333333Y-77204819D02*
X52761905Y-77204819D01*
X53047619Y-77204819D02*
X53047619Y-76204819D01*
X53047619Y-76204819D02*
X52952381Y-76347676D01*
X52952381Y-76347676D02*
X52857143Y-76442914D01*
X52857143Y-76442914D02*
X52761905Y-76490533D01*
X54190476Y-76538152D02*
X54190476Y-77204819D01*
X53761905Y-76538152D02*
X53761905Y-77061961D01*
X53761905Y-77061961D02*
X53809524Y-77157200D01*
X53809524Y-77157200D02*
X53904762Y-77204819D01*
X53904762Y-77204819D02*
X54047619Y-77204819D01*
X54047619Y-77204819D02*
X54142857Y-77157200D01*
X54142857Y-77157200D02*
X54190476Y-77109580D01*
X51454819Y-82356666D02*
X50978628Y-82689999D01*
X51454819Y-82928094D02*
X50454819Y-82928094D01*
X50454819Y-82928094D02*
X50454819Y-82547142D01*
X50454819Y-82547142D02*
X50502438Y-82451904D01*
X50502438Y-82451904D02*
X50550057Y-82404285D01*
X50550057Y-82404285D02*
X50645295Y-82356666D01*
X50645295Y-82356666D02*
X50788152Y-82356666D01*
X50788152Y-82356666D02*
X50883390Y-82404285D01*
X50883390Y-82404285D02*
X50931009Y-82451904D01*
X50931009Y-82451904D02*
X50978628Y-82547142D01*
X50978628Y-82547142D02*
X50978628Y-82928094D01*
X50550057Y-81975713D02*
X50502438Y-81928094D01*
X50502438Y-81928094D02*
X50454819Y-81832856D01*
X50454819Y-81832856D02*
X50454819Y-81594761D01*
X50454819Y-81594761D02*
X50502438Y-81499523D01*
X50502438Y-81499523D02*
X50550057Y-81451904D01*
X50550057Y-81451904D02*
X50645295Y-81404285D01*
X50645295Y-81404285D02*
X50740533Y-81404285D01*
X50740533Y-81404285D02*
X50883390Y-81451904D01*
X50883390Y-81451904D02*
X51454819Y-82023332D01*
X51454819Y-82023332D02*
X51454819Y-81404285D01*
X50454819Y-90725713D02*
X50454819Y-90106666D01*
X50454819Y-90106666D02*
X50835771Y-90439999D01*
X50835771Y-90439999D02*
X50835771Y-90297142D01*
X50835771Y-90297142D02*
X50883390Y-90201904D01*
X50883390Y-90201904D02*
X50931009Y-90154285D01*
X50931009Y-90154285D02*
X51026247Y-90106666D01*
X51026247Y-90106666D02*
X51264342Y-90106666D01*
X51264342Y-90106666D02*
X51359580Y-90154285D01*
X51359580Y-90154285D02*
X51407200Y-90201904D01*
X51407200Y-90201904D02*
X51454819Y-90297142D01*
X51454819Y-90297142D02*
X51454819Y-90582856D01*
X51454819Y-90582856D02*
X51407200Y-90678094D01*
X51407200Y-90678094D02*
X51359580Y-90725713D01*
X50454819Y-89773332D02*
X50454819Y-89154285D01*
X50454819Y-89154285D02*
X50835771Y-89487618D01*
X50835771Y-89487618D02*
X50835771Y-89344761D01*
X50835771Y-89344761D02*
X50883390Y-89249523D01*
X50883390Y-89249523D02*
X50931009Y-89201904D01*
X50931009Y-89201904D02*
X51026247Y-89154285D01*
X51026247Y-89154285D02*
X51264342Y-89154285D01*
X51264342Y-89154285D02*
X51359580Y-89201904D01*
X51359580Y-89201904D02*
X51407200Y-89249523D01*
X51407200Y-89249523D02*
X51454819Y-89344761D01*
X51454819Y-89344761D02*
X51454819Y-89630475D01*
X51454819Y-89630475D02*
X51407200Y-89725713D01*
X51407200Y-89725713D02*
X51359580Y-89773332D01*
X50454819Y-88535237D02*
X50454819Y-88439999D01*
X50454819Y-88439999D02*
X50502438Y-88344761D01*
X50502438Y-88344761D02*
X50550057Y-88297142D01*
X50550057Y-88297142D02*
X50645295Y-88249523D01*
X50645295Y-88249523D02*
X50835771Y-88201904D01*
X50835771Y-88201904D02*
X51073866Y-88201904D01*
X51073866Y-88201904D02*
X51264342Y-88249523D01*
X51264342Y-88249523D02*
X51359580Y-88297142D01*
X51359580Y-88297142D02*
X51407200Y-88344761D01*
X51407200Y-88344761D02*
X51454819Y-88439999D01*
X51454819Y-88439999D02*
X51454819Y-88535237D01*
X51454819Y-88535237D02*
X51407200Y-88630475D01*
X51407200Y-88630475D02*
X51359580Y-88678094D01*
X51359580Y-88678094D02*
X51264342Y-88725713D01*
X51264342Y-88725713D02*
X51073866Y-88773332D01*
X51073866Y-88773332D02*
X50835771Y-88773332D01*
X50835771Y-88773332D02*
X50645295Y-88725713D01*
X50645295Y-88725713D02*
X50550057Y-88678094D01*
X50550057Y-88678094D02*
X50502438Y-88630475D01*
X50502438Y-88630475D02*
X50454819Y-88535237D01*
X65704819Y-94166666D02*
X65228628Y-94499999D01*
X65704819Y-94738094D02*
X64704819Y-94738094D01*
X64704819Y-94738094D02*
X64704819Y-94357142D01*
X64704819Y-94357142D02*
X64752438Y-94261904D01*
X64752438Y-94261904D02*
X64800057Y-94214285D01*
X64800057Y-94214285D02*
X64895295Y-94166666D01*
X64895295Y-94166666D02*
X65038152Y-94166666D01*
X65038152Y-94166666D02*
X65133390Y-94214285D01*
X65133390Y-94214285D02*
X65181009Y-94261904D01*
X65181009Y-94261904D02*
X65228628Y-94357142D01*
X65228628Y-94357142D02*
X65228628Y-94738094D01*
X65704819Y-93214285D02*
X65704819Y-93785713D01*
X65704819Y-93499999D02*
X64704819Y-93499999D01*
X64704819Y-93499999D02*
X64847676Y-93595237D01*
X64847676Y-93595237D02*
X64942914Y-93690475D01*
X64942914Y-93690475D02*
X64990533Y-93785713D01*
X64704819Y-101214285D02*
X64704819Y-101690475D01*
X64704819Y-101690475D02*
X65181009Y-101738094D01*
X65181009Y-101738094D02*
X65133390Y-101690475D01*
X65133390Y-101690475D02*
X65085771Y-101595237D01*
X65085771Y-101595237D02*
X65085771Y-101357142D01*
X65085771Y-101357142D02*
X65133390Y-101261904D01*
X65133390Y-101261904D02*
X65181009Y-101214285D01*
X65181009Y-101214285D02*
X65276247Y-101166666D01*
X65276247Y-101166666D02*
X65514342Y-101166666D01*
X65514342Y-101166666D02*
X65609580Y-101214285D01*
X65609580Y-101214285D02*
X65657200Y-101261904D01*
X65657200Y-101261904D02*
X65704819Y-101357142D01*
X65704819Y-101357142D02*
X65704819Y-101595237D01*
X65704819Y-101595237D02*
X65657200Y-101690475D01*
X65657200Y-101690475D02*
X65609580Y-101738094D01*
X64704819Y-100309523D02*
X64704819Y-100499999D01*
X64704819Y-100499999D02*
X64752438Y-100595237D01*
X64752438Y-100595237D02*
X64800057Y-100642856D01*
X64800057Y-100642856D02*
X64942914Y-100738094D01*
X64942914Y-100738094D02*
X65133390Y-100785713D01*
X65133390Y-100785713D02*
X65514342Y-100785713D01*
X65514342Y-100785713D02*
X65609580Y-100738094D01*
X65609580Y-100738094D02*
X65657200Y-100690475D01*
X65657200Y-100690475D02*
X65704819Y-100595237D01*
X65704819Y-100595237D02*
X65704819Y-100404761D01*
X65704819Y-100404761D02*
X65657200Y-100309523D01*
X65657200Y-100309523D02*
X65609580Y-100261904D01*
X65609580Y-100261904D02*
X65514342Y-100214285D01*
X65514342Y-100214285D02*
X65276247Y-100214285D01*
X65276247Y-100214285D02*
X65181009Y-100261904D01*
X65181009Y-100261904D02*
X65133390Y-100309523D01*
X65133390Y-100309523D02*
X65085771Y-100404761D01*
X65085771Y-100404761D02*
X65085771Y-100595237D01*
X65085771Y-100595237D02*
X65133390Y-100690475D01*
X65133390Y-100690475D02*
X65181009Y-100738094D01*
X65181009Y-100738094D02*
X65276247Y-100785713D01*
X64704819Y-99595237D02*
X64704819Y-99499999D01*
X64704819Y-99499999D02*
X64752438Y-99404761D01*
X64752438Y-99404761D02*
X64800057Y-99357142D01*
X64800057Y-99357142D02*
X64895295Y-99309523D01*
X64895295Y-99309523D02*
X65085771Y-99261904D01*
X65085771Y-99261904D02*
X65323866Y-99261904D01*
X65323866Y-99261904D02*
X65514342Y-99309523D01*
X65514342Y-99309523D02*
X65609580Y-99357142D01*
X65609580Y-99357142D02*
X65657200Y-99404761D01*
X65657200Y-99404761D02*
X65704819Y-99499999D01*
X65704819Y-99499999D02*
X65704819Y-99595237D01*
X65704819Y-99595237D02*
X65657200Y-99690475D01*
X65657200Y-99690475D02*
X65609580Y-99738094D01*
X65609580Y-99738094D02*
X65514342Y-99785713D01*
X65514342Y-99785713D02*
X65323866Y-99833332D01*
X65323866Y-99833332D02*
X65085771Y-99833332D01*
X65085771Y-99833332D02*
X64895295Y-99785713D01*
X64895295Y-99785713D02*
X64800057Y-99738094D01*
X64800057Y-99738094D02*
X64752438Y-99690475D01*
X64752438Y-99690475D02*
X64704819Y-99595237D01*
X56583333Y-64359580D02*
X56535714Y-64407200D01*
X56535714Y-64407200D02*
X56392857Y-64454819D01*
X56392857Y-64454819D02*
X56297619Y-64454819D01*
X56297619Y-64454819D02*
X56154762Y-64407200D01*
X56154762Y-64407200D02*
X56059524Y-64311961D01*
X56059524Y-64311961D02*
X56011905Y-64216723D01*
X56011905Y-64216723D02*
X55964286Y-64026247D01*
X55964286Y-64026247D02*
X55964286Y-63883390D01*
X55964286Y-63883390D02*
X56011905Y-63692914D01*
X56011905Y-63692914D02*
X56059524Y-63597676D01*
X56059524Y-63597676D02*
X56154762Y-63502438D01*
X56154762Y-63502438D02*
X56297619Y-63454819D01*
X56297619Y-63454819D02*
X56392857Y-63454819D01*
X56392857Y-63454819D02*
X56535714Y-63502438D01*
X56535714Y-63502438D02*
X56583333Y-63550057D01*
X56964286Y-63550057D02*
X57011905Y-63502438D01*
X57011905Y-63502438D02*
X57107143Y-63454819D01*
X57107143Y-63454819D02*
X57345238Y-63454819D01*
X57345238Y-63454819D02*
X57440476Y-63502438D01*
X57440476Y-63502438D02*
X57488095Y-63550057D01*
X57488095Y-63550057D02*
X57535714Y-63645295D01*
X57535714Y-63645295D02*
X57535714Y-63740533D01*
X57535714Y-63740533D02*
X57488095Y-63883390D01*
X57488095Y-63883390D02*
X56916667Y-64454819D01*
X56916667Y-64454819D02*
X57535714Y-64454819D01*
X52785714Y-63454819D02*
X52880952Y-63454819D01*
X52880952Y-63454819D02*
X52976190Y-63502438D01*
X52976190Y-63502438D02*
X53023809Y-63550057D01*
X53023809Y-63550057D02*
X53071428Y-63645295D01*
X53071428Y-63645295D02*
X53119047Y-63835771D01*
X53119047Y-63835771D02*
X53119047Y-64073866D01*
X53119047Y-64073866D02*
X53071428Y-64264342D01*
X53071428Y-64264342D02*
X53023809Y-64359580D01*
X53023809Y-64359580D02*
X52976190Y-64407200D01*
X52976190Y-64407200D02*
X52880952Y-64454819D01*
X52880952Y-64454819D02*
X52785714Y-64454819D01*
X52785714Y-64454819D02*
X52690476Y-64407200D01*
X52690476Y-64407200D02*
X52642857Y-64359580D01*
X52642857Y-64359580D02*
X52595238Y-64264342D01*
X52595238Y-64264342D02*
X52547619Y-64073866D01*
X52547619Y-64073866D02*
X52547619Y-63835771D01*
X52547619Y-63835771D02*
X52595238Y-63645295D01*
X52595238Y-63645295D02*
X52642857Y-63550057D01*
X52642857Y-63550057D02*
X52690476Y-63502438D01*
X52690476Y-63502438D02*
X52785714Y-63454819D01*
X53547619Y-64359580D02*
X53595238Y-64407200D01*
X53595238Y-64407200D02*
X53547619Y-64454819D01*
X53547619Y-64454819D02*
X53500000Y-64407200D01*
X53500000Y-64407200D02*
X53547619Y-64359580D01*
X53547619Y-64359580D02*
X53547619Y-64454819D01*
X54547618Y-64454819D02*
X53976190Y-64454819D01*
X54261904Y-64454819D02*
X54261904Y-63454819D01*
X54261904Y-63454819D02*
X54166666Y-63597676D01*
X54166666Y-63597676D02*
X54071428Y-63692914D01*
X54071428Y-63692914D02*
X53976190Y-63740533D01*
X55404761Y-63788152D02*
X55404761Y-64454819D01*
X54976190Y-63788152D02*
X54976190Y-64311961D01*
X54976190Y-64311961D02*
X55023809Y-64407200D01*
X55023809Y-64407200D02*
X55119047Y-64454819D01*
X55119047Y-64454819D02*
X55261904Y-64454819D01*
X55261904Y-64454819D02*
X55357142Y-64407200D01*
X55357142Y-64407200D02*
X55404761Y-64359580D01*
X54491905Y-93244819D02*
X54491905Y-92244819D01*
X54491905Y-92244819D02*
X54730000Y-92244819D01*
X54730000Y-92244819D02*
X54872857Y-92292438D01*
X54872857Y-92292438D02*
X54968095Y-92387676D01*
X54968095Y-92387676D02*
X55015714Y-92482914D01*
X55015714Y-92482914D02*
X55063333Y-92673390D01*
X55063333Y-92673390D02*
X55063333Y-92816247D01*
X55063333Y-92816247D02*
X55015714Y-93006723D01*
X55015714Y-93006723D02*
X54968095Y-93101961D01*
X54968095Y-93101961D02*
X54872857Y-93197200D01*
X54872857Y-93197200D02*
X54730000Y-93244819D01*
X54730000Y-93244819D02*
X54491905Y-93244819D01*
X56015714Y-93244819D02*
X55444286Y-93244819D01*
X55730000Y-93244819D02*
X55730000Y-92244819D01*
X55730000Y-92244819D02*
X55634762Y-92387676D01*
X55634762Y-92387676D02*
X55539524Y-92482914D01*
X55539524Y-92482914D02*
X55444286Y-92530533D01*
X57988095Y-100704819D02*
X57988095Y-101514342D01*
X57988095Y-101514342D02*
X58035714Y-101609580D01*
X58035714Y-101609580D02*
X58083333Y-101657200D01*
X58083333Y-101657200D02*
X58178571Y-101704819D01*
X58178571Y-101704819D02*
X58369047Y-101704819D01*
X58369047Y-101704819D02*
X58464285Y-101657200D01*
X58464285Y-101657200D02*
X58511904Y-101609580D01*
X58511904Y-101609580D02*
X58559523Y-101514342D01*
X58559523Y-101514342D02*
X58559523Y-100704819D01*
X58988095Y-100800057D02*
X59035714Y-100752438D01*
X59035714Y-100752438D02*
X59130952Y-100704819D01*
X59130952Y-100704819D02*
X59369047Y-100704819D01*
X59369047Y-100704819D02*
X59464285Y-100752438D01*
X59464285Y-100752438D02*
X59511904Y-100800057D01*
X59511904Y-100800057D02*
X59559523Y-100895295D01*
X59559523Y-100895295D02*
X59559523Y-100990533D01*
X59559523Y-100990533D02*
X59511904Y-101133390D01*
X59511904Y-101133390D02*
X58940476Y-101704819D01*
X58940476Y-101704819D02*
X59559523Y-101704819D01*
D12*
%TO.C,J7*%
X61380000Y-103940000D02*
X61380000Y-111560000D01*
X61380000Y-111560000D02*
X71540000Y-111560000D01*
X71540000Y-103940000D02*
X61380000Y-103940000D01*
X71540000Y-110290000D02*
X61380000Y-110290000D01*
X71540000Y-111560000D02*
X71540000Y-103940000D01*
%TO.C,R3*%
X62080000Y-95890000D02*
X62080000Y-99730000D01*
X62080000Y-99730000D02*
X63920000Y-99730000D01*
X63000000Y-94940000D02*
X63000000Y-95890000D01*
X63000000Y-100680000D02*
X63000000Y-99730000D01*
X63920000Y-95890000D02*
X62080000Y-95890000D01*
X63920000Y-99730000D02*
X63920000Y-95890000D01*
%TO.C,J2*%
X72920000Y-105920000D02*
X74250000Y-105920000D01*
X72920000Y-107250000D02*
X72920000Y-105920000D01*
X72920000Y-108520000D02*
X72920000Y-111120000D01*
X72920000Y-108520000D02*
X75580000Y-108520000D01*
X72920000Y-111120000D02*
X75580000Y-111120000D01*
X75580000Y-108520000D02*
X75580000Y-111120000D01*
%TO.C,J4*%
X51920000Y-111330000D02*
X51920000Y-110000000D01*
X53250000Y-111330000D02*
X51920000Y-111330000D01*
X54520000Y-108670000D02*
X59660000Y-108670000D01*
X54520000Y-111330000D02*
X54520000Y-108670000D01*
X54520000Y-111330000D02*
X59660000Y-111330000D01*
X59660000Y-111330000D02*
X59660000Y-108670000D01*
%TO.C,J6*%
X55950000Y-81400000D02*
X70650000Y-81400000D01*
X55950000Y-90600000D02*
X55950000Y-81400000D01*
X64750000Y-90600000D02*
X55950000Y-90600000D01*
X69800000Y-81200000D02*
X70850000Y-81200000D01*
X70650000Y-81400000D02*
X70650000Y-84000000D01*
X70650000Y-87900000D02*
X70650000Y-90600000D01*
X70650000Y-90600000D02*
X68750000Y-90600000D01*
X70850000Y-82250000D02*
X70850000Y-81200000D01*
%TO.C,C1*%
X62830000Y-72879000D02*
X62830000Y-71621000D01*
X64670000Y-72879000D02*
X64670000Y-71621000D01*
%TO.C,U1*%
X50670000Y-68480000D02*
X50670000Y-73121000D01*
X50670000Y-68480000D02*
X60910000Y-68480000D01*
X50670000Y-69990000D02*
X60910000Y-69990000D01*
X50670000Y-73121000D02*
X60910000Y-73121000D01*
X53940000Y-68480000D02*
X53940000Y-69990000D01*
X57641000Y-68480000D02*
X57641000Y-69990000D01*
X60910000Y-68480000D02*
X60910000Y-73121000D01*
D10*
%TO.C,S1*%
X67150000Y-68400000D02*
X67150000Y-68900000D01*
X67150000Y-68400000D02*
X67650000Y-68400000D01*
X67150000Y-80300000D02*
X67150000Y-79800000D01*
X67150000Y-80300000D02*
X67650000Y-80300000D01*
X71350000Y-68400000D02*
X70850000Y-68400000D01*
X71350000Y-68400000D02*
X71350000Y-68900000D01*
X71350000Y-80300000D02*
X70850000Y-80300000D01*
X71350000Y-80300000D02*
X71350000Y-79800000D01*
D12*
%TO.C,J1*%
X72920000Y-60170000D02*
X74250000Y-60170000D01*
X72920000Y-61500000D02*
X72920000Y-60170000D01*
X72920000Y-62770000D02*
X72920000Y-65370000D01*
X72920000Y-62770000D02*
X75580000Y-62770000D01*
X72920000Y-65370000D02*
X75580000Y-65370000D01*
X75580000Y-62770000D02*
X75580000Y-65370000D01*
%TO.C,C3*%
X54871000Y-77830000D02*
X56129000Y-77830000D01*
X54871000Y-79670000D02*
X56129000Y-79670000D01*
%TO.C,R2*%
X52080000Y-84080000D02*
X52080000Y-87920000D01*
X52080000Y-87920000D02*
X53920000Y-87920000D01*
X53000000Y-83130000D02*
X53000000Y-84080000D01*
X53000000Y-88870000D02*
X53000000Y-87920000D01*
X53920000Y-84080000D02*
X52080000Y-84080000D01*
X53920000Y-87920000D02*
X53920000Y-84080000D01*
%TO.C,R1*%
X66080000Y-95890000D02*
X66080000Y-99730000D01*
X66080000Y-99730000D02*
X67920000Y-99730000D01*
X67000000Y-94940000D02*
X67000000Y-95890000D01*
X67000000Y-100680000D02*
X67000000Y-99730000D01*
X67920000Y-95890000D02*
X66080000Y-95890000D01*
X67920000Y-99730000D02*
X67920000Y-95890000D01*
%TO.C,J5*%
X61130000Y-59940000D02*
X61130000Y-67560000D01*
X61130000Y-67560000D02*
X71290000Y-67560000D01*
X71290000Y-59940000D02*
X61130000Y-59940000D01*
X71290000Y-66290000D02*
X61130000Y-66290000D01*
X71290000Y-67560000D02*
X71290000Y-59940000D01*
%TO.C,C2*%
X54621000Y-65080000D02*
X55879000Y-65080000D01*
X54621000Y-66920000D02*
X55879000Y-66920000D01*
%TO.C,J3*%
X51920000Y-62830000D02*
X51920000Y-61500000D01*
X53250000Y-62830000D02*
X51920000Y-62830000D01*
X54520000Y-60170000D02*
X59660000Y-60170000D01*
X54520000Y-62830000D02*
X54520000Y-60170000D01*
X54520000Y-62830000D02*
X59660000Y-62830000D01*
X59660000Y-62830000D02*
X59660000Y-60170000D01*
%TO.C,D1*%
X52670000Y-95205000D02*
X52670000Y-98295000D01*
X52670000Y-95205170D02*
G75*
G02*
X58220000Y-96749952I2560000J-1544830D01*
G01*
X58220000Y-96750048D02*
G75*
G02*
X52670000Y-98294830I-2990000J48D01*
G01*
X57730000Y-96750000D02*
G75*
G02*
X52730000Y-96750000I-2500000J0D01*
G01*
X52730000Y-96750000D02*
G75*
G02*
X57730000Y-96750000I2500000J0D01*
G01*
%TO.C,U2*%
X50630000Y-102175000D02*
X50630000Y-106816000D01*
X50630000Y-102175000D02*
X60870000Y-102175000D01*
X50630000Y-103685000D02*
X60870000Y-103685000D01*
X50630000Y-106816000D02*
X60870000Y-106816000D01*
X53900000Y-102175000D02*
X53900000Y-103685000D01*
X57601000Y-102175000D02*
X57601000Y-103685000D01*
X60870000Y-102175000D02*
X60870000Y-106816000D01*
%TD*%
M02*
