%TF.GenerationSoftware,KiCad,Pcbnew,8.0.9-1.fc41*%
%TF.CreationDate,2025-04-27T16:21:27+02:00*%
%TF.ProjectId,Breadboard-PowerSupply,42726561-6462-46f6-9172-642d506f7765,rev?*%
%TF.SameCoordinates,Original*%
%TF.FileFunction,Legend,Bot*%
%TF.FilePolarity,Positive*%
%FSLAX46Y46*%
G04 Gerber Fmt 4.6, Leading zero omitted, Abs format (unit mm)*
G04 Created by KiCad (PCBNEW 8.0.9-1.fc41) date 2025-04-27 16:21:27*
%MOMM*%
%LPD*%
G01*
G04 APERTURE LIST*
%ADD10C,0.100000*%
%ADD11C,0.010000*%
G04 APERTURE END LIST*
D10*
X70862782Y-103238665D02*
X70719925Y-103286284D01*
X70719925Y-103286284D02*
X70672306Y-103333903D01*
X70672306Y-103333903D02*
X70624687Y-103429141D01*
X70624687Y-103429141D02*
X70624687Y-103571998D01*
X70624687Y-103571998D02*
X70672306Y-103667236D01*
X70672306Y-103667236D02*
X70719925Y-103714856D01*
X70719925Y-103714856D02*
X70815163Y-103762475D01*
X70815163Y-103762475D02*
X71196115Y-103762475D01*
X71196115Y-103762475D02*
X71196115Y-102762475D01*
X71196115Y-102762475D02*
X70862782Y-102762475D01*
X70862782Y-102762475D02*
X70767544Y-102810094D01*
X70767544Y-102810094D02*
X70719925Y-102857713D01*
X70719925Y-102857713D02*
X70672306Y-102952951D01*
X70672306Y-102952951D02*
X70672306Y-103048189D01*
X70672306Y-103048189D02*
X70719925Y-103143427D01*
X70719925Y-103143427D02*
X70767544Y-103191046D01*
X70767544Y-103191046D02*
X70862782Y-103238665D01*
X70862782Y-103238665D02*
X71196115Y-103238665D01*
X70196115Y-103762475D02*
X70196115Y-103095808D01*
X70196115Y-103286284D02*
X70148496Y-103191046D01*
X70148496Y-103191046D02*
X70100877Y-103143427D01*
X70100877Y-103143427D02*
X70005639Y-103095808D01*
X70005639Y-103095808D02*
X69910401Y-103095808D01*
X69196115Y-103714856D02*
X69291353Y-103762475D01*
X69291353Y-103762475D02*
X69481829Y-103762475D01*
X69481829Y-103762475D02*
X69577067Y-103714856D01*
X69577067Y-103714856D02*
X69624686Y-103619617D01*
X69624686Y-103619617D02*
X69624686Y-103238665D01*
X69624686Y-103238665D02*
X69577067Y-103143427D01*
X69577067Y-103143427D02*
X69481829Y-103095808D01*
X69481829Y-103095808D02*
X69291353Y-103095808D01*
X69291353Y-103095808D02*
X69196115Y-103143427D01*
X69196115Y-103143427D02*
X69148496Y-103238665D01*
X69148496Y-103238665D02*
X69148496Y-103333903D01*
X69148496Y-103333903D02*
X69624686Y-103429141D01*
X68291353Y-103762475D02*
X68291353Y-103238665D01*
X68291353Y-103238665D02*
X68338972Y-103143427D01*
X68338972Y-103143427D02*
X68434210Y-103095808D01*
X68434210Y-103095808D02*
X68624686Y-103095808D01*
X68624686Y-103095808D02*
X68719924Y-103143427D01*
X68291353Y-103714856D02*
X68386591Y-103762475D01*
X68386591Y-103762475D02*
X68624686Y-103762475D01*
X68624686Y-103762475D02*
X68719924Y-103714856D01*
X68719924Y-103714856D02*
X68767543Y-103619617D01*
X68767543Y-103619617D02*
X68767543Y-103524379D01*
X68767543Y-103524379D02*
X68719924Y-103429141D01*
X68719924Y-103429141D02*
X68624686Y-103381522D01*
X68624686Y-103381522D02*
X68386591Y-103381522D01*
X68386591Y-103381522D02*
X68291353Y-103333903D01*
X67386591Y-103762475D02*
X67386591Y-102762475D01*
X67386591Y-103714856D02*
X67481829Y-103762475D01*
X67481829Y-103762475D02*
X67672305Y-103762475D01*
X67672305Y-103762475D02*
X67767543Y-103714856D01*
X67767543Y-103714856D02*
X67815162Y-103667236D01*
X67815162Y-103667236D02*
X67862781Y-103571998D01*
X67862781Y-103571998D02*
X67862781Y-103286284D01*
X67862781Y-103286284D02*
X67815162Y-103191046D01*
X67815162Y-103191046D02*
X67767543Y-103143427D01*
X67767543Y-103143427D02*
X67672305Y-103095808D01*
X67672305Y-103095808D02*
X67481829Y-103095808D01*
X67481829Y-103095808D02*
X67386591Y-103143427D01*
X66910400Y-103762475D02*
X66910400Y-102762475D01*
X66910400Y-103143427D02*
X66815162Y-103095808D01*
X66815162Y-103095808D02*
X66624686Y-103095808D01*
X66624686Y-103095808D02*
X66529448Y-103143427D01*
X66529448Y-103143427D02*
X66481829Y-103191046D01*
X66481829Y-103191046D02*
X66434210Y-103286284D01*
X66434210Y-103286284D02*
X66434210Y-103571998D01*
X66434210Y-103571998D02*
X66481829Y-103667236D01*
X66481829Y-103667236D02*
X66529448Y-103714856D01*
X66529448Y-103714856D02*
X66624686Y-103762475D01*
X66624686Y-103762475D02*
X66815162Y-103762475D01*
X66815162Y-103762475D02*
X66910400Y-103714856D01*
X65862781Y-103762475D02*
X65958019Y-103714856D01*
X65958019Y-103714856D02*
X66005638Y-103667236D01*
X66005638Y-103667236D02*
X66053257Y-103571998D01*
X66053257Y-103571998D02*
X66053257Y-103286284D01*
X66053257Y-103286284D02*
X66005638Y-103191046D01*
X66005638Y-103191046D02*
X65958019Y-103143427D01*
X65958019Y-103143427D02*
X65862781Y-103095808D01*
X65862781Y-103095808D02*
X65719924Y-103095808D01*
X65719924Y-103095808D02*
X65624686Y-103143427D01*
X65624686Y-103143427D02*
X65577067Y-103191046D01*
X65577067Y-103191046D02*
X65529448Y-103286284D01*
X65529448Y-103286284D02*
X65529448Y-103571998D01*
X65529448Y-103571998D02*
X65577067Y-103667236D01*
X65577067Y-103667236D02*
X65624686Y-103714856D01*
X65624686Y-103714856D02*
X65719924Y-103762475D01*
X65719924Y-103762475D02*
X65862781Y-103762475D01*
X64672305Y-103762475D02*
X64672305Y-103238665D01*
X64672305Y-103238665D02*
X64719924Y-103143427D01*
X64719924Y-103143427D02*
X64815162Y-103095808D01*
X64815162Y-103095808D02*
X65005638Y-103095808D01*
X65005638Y-103095808D02*
X65100876Y-103143427D01*
X64672305Y-103714856D02*
X64767543Y-103762475D01*
X64767543Y-103762475D02*
X65005638Y-103762475D01*
X65005638Y-103762475D02*
X65100876Y-103714856D01*
X65100876Y-103714856D02*
X65148495Y-103619617D01*
X65148495Y-103619617D02*
X65148495Y-103524379D01*
X65148495Y-103524379D02*
X65100876Y-103429141D01*
X65100876Y-103429141D02*
X65005638Y-103381522D01*
X65005638Y-103381522D02*
X64767543Y-103381522D01*
X64767543Y-103381522D02*
X64672305Y-103333903D01*
X64196114Y-103762475D02*
X64196114Y-103095808D01*
X64196114Y-103286284D02*
X64148495Y-103191046D01*
X64148495Y-103191046D02*
X64100876Y-103143427D01*
X64100876Y-103143427D02*
X64005638Y-103095808D01*
X64005638Y-103095808D02*
X63910400Y-103095808D01*
X63148495Y-103762475D02*
X63148495Y-102762475D01*
X63148495Y-103714856D02*
X63243733Y-103762475D01*
X63243733Y-103762475D02*
X63434209Y-103762475D01*
X63434209Y-103762475D02*
X63529447Y-103714856D01*
X63529447Y-103714856D02*
X63577066Y-103667236D01*
X63577066Y-103667236D02*
X63624685Y-103571998D01*
X63624685Y-103571998D02*
X63624685Y-103286284D01*
X63624685Y-103286284D02*
X63577066Y-103191046D01*
X63577066Y-103191046D02*
X63529447Y-103143427D01*
X63529447Y-103143427D02*
X63434209Y-103095808D01*
X63434209Y-103095808D02*
X63243733Y-103095808D01*
X63243733Y-103095808D02*
X63148495Y-103143427D01*
X61910399Y-103762475D02*
X61910399Y-102762475D01*
X61910399Y-102762475D02*
X61529447Y-102762475D01*
X61529447Y-102762475D02*
X61434209Y-102810094D01*
X61434209Y-102810094D02*
X61386590Y-102857713D01*
X61386590Y-102857713D02*
X61338971Y-102952951D01*
X61338971Y-102952951D02*
X61338971Y-103095808D01*
X61338971Y-103095808D02*
X61386590Y-103191046D01*
X61386590Y-103191046D02*
X61434209Y-103238665D01*
X61434209Y-103238665D02*
X61529447Y-103286284D01*
X61529447Y-103286284D02*
X61910399Y-103286284D01*
X60767542Y-103762475D02*
X60862780Y-103714856D01*
X60862780Y-103714856D02*
X60910399Y-103667236D01*
X60910399Y-103667236D02*
X60958018Y-103571998D01*
X60958018Y-103571998D02*
X60958018Y-103286284D01*
X60958018Y-103286284D02*
X60910399Y-103191046D01*
X60910399Y-103191046D02*
X60862780Y-103143427D01*
X60862780Y-103143427D02*
X60767542Y-103095808D01*
X60767542Y-103095808D02*
X60624685Y-103095808D01*
X60624685Y-103095808D02*
X60529447Y-103143427D01*
X60529447Y-103143427D02*
X60481828Y-103191046D01*
X60481828Y-103191046D02*
X60434209Y-103286284D01*
X60434209Y-103286284D02*
X60434209Y-103571998D01*
X60434209Y-103571998D02*
X60481828Y-103667236D01*
X60481828Y-103667236D02*
X60529447Y-103714856D01*
X60529447Y-103714856D02*
X60624685Y-103762475D01*
X60624685Y-103762475D02*
X60767542Y-103762475D01*
X60100875Y-103095808D02*
X59910399Y-103762475D01*
X59910399Y-103762475D02*
X59719923Y-103286284D01*
X59719923Y-103286284D02*
X59529447Y-103762475D01*
X59529447Y-103762475D02*
X59338971Y-103095808D01*
X58577066Y-103714856D02*
X58672304Y-103762475D01*
X58672304Y-103762475D02*
X58862780Y-103762475D01*
X58862780Y-103762475D02*
X58958018Y-103714856D01*
X58958018Y-103714856D02*
X59005637Y-103619617D01*
X59005637Y-103619617D02*
X59005637Y-103238665D01*
X59005637Y-103238665D02*
X58958018Y-103143427D01*
X58958018Y-103143427D02*
X58862780Y-103095808D01*
X58862780Y-103095808D02*
X58672304Y-103095808D01*
X58672304Y-103095808D02*
X58577066Y-103143427D01*
X58577066Y-103143427D02*
X58529447Y-103238665D01*
X58529447Y-103238665D02*
X58529447Y-103333903D01*
X58529447Y-103333903D02*
X59005637Y-103429141D01*
X58100875Y-103762475D02*
X58100875Y-103095808D01*
X58100875Y-103286284D02*
X58053256Y-103191046D01*
X58053256Y-103191046D02*
X58005637Y-103143427D01*
X58005637Y-103143427D02*
X57910399Y-103095808D01*
X57910399Y-103095808D02*
X57815161Y-103095808D01*
X56767541Y-103714856D02*
X56624684Y-103762475D01*
X56624684Y-103762475D02*
X56386589Y-103762475D01*
X56386589Y-103762475D02*
X56291351Y-103714856D01*
X56291351Y-103714856D02*
X56243732Y-103667236D01*
X56243732Y-103667236D02*
X56196113Y-103571998D01*
X56196113Y-103571998D02*
X56196113Y-103476760D01*
X56196113Y-103476760D02*
X56243732Y-103381522D01*
X56243732Y-103381522D02*
X56291351Y-103333903D01*
X56291351Y-103333903D02*
X56386589Y-103286284D01*
X56386589Y-103286284D02*
X56577065Y-103238665D01*
X56577065Y-103238665D02*
X56672303Y-103191046D01*
X56672303Y-103191046D02*
X56719922Y-103143427D01*
X56719922Y-103143427D02*
X56767541Y-103048189D01*
X56767541Y-103048189D02*
X56767541Y-102952951D01*
X56767541Y-102952951D02*
X56719922Y-102857713D01*
X56719922Y-102857713D02*
X56672303Y-102810094D01*
X56672303Y-102810094D02*
X56577065Y-102762475D01*
X56577065Y-102762475D02*
X56338970Y-102762475D01*
X56338970Y-102762475D02*
X56196113Y-102810094D01*
X55338970Y-103095808D02*
X55338970Y-103762475D01*
X55767541Y-103095808D02*
X55767541Y-103619617D01*
X55767541Y-103619617D02*
X55719922Y-103714856D01*
X55719922Y-103714856D02*
X55624684Y-103762475D01*
X55624684Y-103762475D02*
X55481827Y-103762475D01*
X55481827Y-103762475D02*
X55386589Y-103714856D01*
X55386589Y-103714856D02*
X55338970Y-103667236D01*
X54862779Y-103095808D02*
X54862779Y-104095808D01*
X54862779Y-103143427D02*
X54767541Y-103095808D01*
X54767541Y-103095808D02*
X54577065Y-103095808D01*
X54577065Y-103095808D02*
X54481827Y-103143427D01*
X54481827Y-103143427D02*
X54434208Y-103191046D01*
X54434208Y-103191046D02*
X54386589Y-103286284D01*
X54386589Y-103286284D02*
X54386589Y-103571998D01*
X54386589Y-103571998D02*
X54434208Y-103667236D01*
X54434208Y-103667236D02*
X54481827Y-103714856D01*
X54481827Y-103714856D02*
X54577065Y-103762475D01*
X54577065Y-103762475D02*
X54767541Y-103762475D01*
X54767541Y-103762475D02*
X54862779Y-103714856D01*
X53958017Y-103095808D02*
X53958017Y-104095808D01*
X53958017Y-103143427D02*
X53862779Y-103095808D01*
X53862779Y-103095808D02*
X53672303Y-103095808D01*
X53672303Y-103095808D02*
X53577065Y-103143427D01*
X53577065Y-103143427D02*
X53529446Y-103191046D01*
X53529446Y-103191046D02*
X53481827Y-103286284D01*
X53481827Y-103286284D02*
X53481827Y-103571998D01*
X53481827Y-103571998D02*
X53529446Y-103667236D01*
X53529446Y-103667236D02*
X53577065Y-103714856D01*
X53577065Y-103714856D02*
X53672303Y-103762475D01*
X53672303Y-103762475D02*
X53862779Y-103762475D01*
X53862779Y-103762475D02*
X53958017Y-103714856D01*
X52910398Y-103762475D02*
X53005636Y-103714856D01*
X53005636Y-103714856D02*
X53053255Y-103619617D01*
X53053255Y-103619617D02*
X53053255Y-102762475D01*
X52624683Y-103095808D02*
X52386588Y-103762475D01*
X52148493Y-103095808D02*
X52386588Y-103762475D01*
X52386588Y-103762475D02*
X52481826Y-104000570D01*
X52481826Y-104000570D02*
X52529445Y-104048189D01*
X52529445Y-104048189D02*
X52624683Y-104095808D01*
X71291353Y-104705752D02*
X71053258Y-105372419D01*
X71053258Y-105372419D02*
X70815163Y-104705752D01*
X70243734Y-104372419D02*
X70148496Y-104372419D01*
X70148496Y-104372419D02*
X70053258Y-104420038D01*
X70053258Y-104420038D02*
X70005639Y-104467657D01*
X70005639Y-104467657D02*
X69958020Y-104562895D01*
X69958020Y-104562895D02*
X69910401Y-104753371D01*
X69910401Y-104753371D02*
X69910401Y-104991466D01*
X69910401Y-104991466D02*
X69958020Y-105181942D01*
X69958020Y-105181942D02*
X70005639Y-105277180D01*
X70005639Y-105277180D02*
X70053258Y-105324800D01*
X70053258Y-105324800D02*
X70148496Y-105372419D01*
X70148496Y-105372419D02*
X70243734Y-105372419D01*
X70243734Y-105372419D02*
X70338972Y-105324800D01*
X70338972Y-105324800D02*
X70386591Y-105277180D01*
X70386591Y-105277180D02*
X70434210Y-105181942D01*
X70434210Y-105181942D02*
X70481829Y-104991466D01*
X70481829Y-104991466D02*
X70481829Y-104753371D01*
X70481829Y-104753371D02*
X70434210Y-104562895D01*
X70434210Y-104562895D02*
X70386591Y-104467657D01*
X70386591Y-104467657D02*
X70338972Y-104420038D01*
X70338972Y-104420038D02*
X70243734Y-104372419D01*
X69481829Y-105277180D02*
X69434210Y-105324800D01*
X69434210Y-105324800D02*
X69481829Y-105372419D01*
X69481829Y-105372419D02*
X69529448Y-105324800D01*
X69529448Y-105324800D02*
X69481829Y-105277180D01*
X69481829Y-105277180D02*
X69481829Y-105372419D01*
X68481830Y-105372419D02*
X69053258Y-105372419D01*
X68767544Y-105372419D02*
X68767544Y-104372419D01*
X68767544Y-104372419D02*
X68862782Y-104515276D01*
X68862782Y-104515276D02*
X68958020Y-104610514D01*
X68958020Y-104610514D02*
X69053258Y-104658133D01*
X67696115Y-77652531D02*
X67696115Y-76652531D01*
X67696115Y-76652531D02*
X67458020Y-76652531D01*
X67458020Y-76652531D02*
X67315163Y-76700150D01*
X67315163Y-76700150D02*
X67219925Y-76795388D01*
X67219925Y-76795388D02*
X67172306Y-76890626D01*
X67172306Y-76890626D02*
X67124687Y-77081102D01*
X67124687Y-77081102D02*
X67124687Y-77223959D01*
X67124687Y-77223959D02*
X67172306Y-77414435D01*
X67172306Y-77414435D02*
X67219925Y-77509673D01*
X67219925Y-77509673D02*
X67315163Y-77604912D01*
X67315163Y-77604912D02*
X67458020Y-77652531D01*
X67458020Y-77652531D02*
X67696115Y-77652531D01*
X66315163Y-77604912D02*
X66410401Y-77652531D01*
X66410401Y-77652531D02*
X66600877Y-77652531D01*
X66600877Y-77652531D02*
X66696115Y-77604912D01*
X66696115Y-77604912D02*
X66743734Y-77509673D01*
X66743734Y-77509673D02*
X66743734Y-77128721D01*
X66743734Y-77128721D02*
X66696115Y-77033483D01*
X66696115Y-77033483D02*
X66600877Y-76985864D01*
X66600877Y-76985864D02*
X66410401Y-76985864D01*
X66410401Y-76985864D02*
X66315163Y-77033483D01*
X66315163Y-77033483D02*
X66267544Y-77128721D01*
X66267544Y-77128721D02*
X66267544Y-77223959D01*
X66267544Y-77223959D02*
X66743734Y-77319197D01*
X65886591Y-77604912D02*
X65791353Y-77652531D01*
X65791353Y-77652531D02*
X65600877Y-77652531D01*
X65600877Y-77652531D02*
X65505639Y-77604912D01*
X65505639Y-77604912D02*
X65458020Y-77509673D01*
X65458020Y-77509673D02*
X65458020Y-77462054D01*
X65458020Y-77462054D02*
X65505639Y-77366816D01*
X65505639Y-77366816D02*
X65600877Y-77319197D01*
X65600877Y-77319197D02*
X65743734Y-77319197D01*
X65743734Y-77319197D02*
X65838972Y-77271578D01*
X65838972Y-77271578D02*
X65886591Y-77176340D01*
X65886591Y-77176340D02*
X65886591Y-77128721D01*
X65886591Y-77128721D02*
X65838972Y-77033483D01*
X65838972Y-77033483D02*
X65743734Y-76985864D01*
X65743734Y-76985864D02*
X65600877Y-76985864D01*
X65600877Y-76985864D02*
X65505639Y-77033483D01*
X65029448Y-77652531D02*
X65029448Y-76985864D01*
X65029448Y-76652531D02*
X65077067Y-76700150D01*
X65077067Y-76700150D02*
X65029448Y-76747769D01*
X65029448Y-76747769D02*
X64981829Y-76700150D01*
X64981829Y-76700150D02*
X65029448Y-76652531D01*
X65029448Y-76652531D02*
X65029448Y-76747769D01*
X64124687Y-76985864D02*
X64124687Y-77795388D01*
X64124687Y-77795388D02*
X64172306Y-77890626D01*
X64172306Y-77890626D02*
X64219925Y-77938245D01*
X64219925Y-77938245D02*
X64315163Y-77985864D01*
X64315163Y-77985864D02*
X64458020Y-77985864D01*
X64458020Y-77985864D02*
X64553258Y-77938245D01*
X64124687Y-77604912D02*
X64219925Y-77652531D01*
X64219925Y-77652531D02*
X64410401Y-77652531D01*
X64410401Y-77652531D02*
X64505639Y-77604912D01*
X64505639Y-77604912D02*
X64553258Y-77557292D01*
X64553258Y-77557292D02*
X64600877Y-77462054D01*
X64600877Y-77462054D02*
X64600877Y-77176340D01*
X64600877Y-77176340D02*
X64553258Y-77081102D01*
X64553258Y-77081102D02*
X64505639Y-77033483D01*
X64505639Y-77033483D02*
X64410401Y-76985864D01*
X64410401Y-76985864D02*
X64219925Y-76985864D01*
X64219925Y-76985864D02*
X64124687Y-77033483D01*
X63648496Y-76985864D02*
X63648496Y-77652531D01*
X63648496Y-77081102D02*
X63600877Y-77033483D01*
X63600877Y-77033483D02*
X63505639Y-76985864D01*
X63505639Y-76985864D02*
X63362782Y-76985864D01*
X63362782Y-76985864D02*
X63267544Y-77033483D01*
X63267544Y-77033483D02*
X63219925Y-77128721D01*
X63219925Y-77128721D02*
X63219925Y-77652531D01*
X62362782Y-77604912D02*
X62458020Y-77652531D01*
X62458020Y-77652531D02*
X62648496Y-77652531D01*
X62648496Y-77652531D02*
X62743734Y-77604912D01*
X62743734Y-77604912D02*
X62791353Y-77509673D01*
X62791353Y-77509673D02*
X62791353Y-77128721D01*
X62791353Y-77128721D02*
X62743734Y-77033483D01*
X62743734Y-77033483D02*
X62648496Y-76985864D01*
X62648496Y-76985864D02*
X62458020Y-76985864D01*
X62458020Y-76985864D02*
X62362782Y-77033483D01*
X62362782Y-77033483D02*
X62315163Y-77128721D01*
X62315163Y-77128721D02*
X62315163Y-77223959D01*
X62315163Y-77223959D02*
X62791353Y-77319197D01*
X61458020Y-77652531D02*
X61458020Y-76652531D01*
X61458020Y-77604912D02*
X61553258Y-77652531D01*
X61553258Y-77652531D02*
X61743734Y-77652531D01*
X61743734Y-77652531D02*
X61838972Y-77604912D01*
X61838972Y-77604912D02*
X61886591Y-77557292D01*
X61886591Y-77557292D02*
X61934210Y-77462054D01*
X61934210Y-77462054D02*
X61934210Y-77176340D01*
X61934210Y-77176340D02*
X61886591Y-77081102D01*
X61886591Y-77081102D02*
X61838972Y-77033483D01*
X61838972Y-77033483D02*
X61743734Y-76985864D01*
X61743734Y-76985864D02*
X61553258Y-76985864D01*
X61553258Y-76985864D02*
X61458020Y-77033483D01*
X60219924Y-77652531D02*
X60219924Y-76652531D01*
X60219924Y-77033483D02*
X60124686Y-76985864D01*
X60124686Y-76985864D02*
X59934210Y-76985864D01*
X59934210Y-76985864D02*
X59838972Y-77033483D01*
X59838972Y-77033483D02*
X59791353Y-77081102D01*
X59791353Y-77081102D02*
X59743734Y-77176340D01*
X59743734Y-77176340D02*
X59743734Y-77462054D01*
X59743734Y-77462054D02*
X59791353Y-77557292D01*
X59791353Y-77557292D02*
X59838972Y-77604912D01*
X59838972Y-77604912D02*
X59934210Y-77652531D01*
X59934210Y-77652531D02*
X60124686Y-77652531D01*
X60124686Y-77652531D02*
X60219924Y-77604912D01*
X59410400Y-76985864D02*
X59172305Y-77652531D01*
X58934210Y-76985864D02*
X59172305Y-77652531D01*
X59172305Y-77652531D02*
X59267543Y-77890626D01*
X59267543Y-77890626D02*
X59315162Y-77938245D01*
X59315162Y-77938245D02*
X59410400Y-77985864D01*
X67410401Y-78262475D02*
X67410401Y-78976760D01*
X67410401Y-78976760D02*
X67458020Y-79119617D01*
X67458020Y-79119617D02*
X67553258Y-79214856D01*
X67553258Y-79214856D02*
X67696115Y-79262475D01*
X67696115Y-79262475D02*
X67791353Y-79262475D01*
X66553258Y-79214856D02*
X66648496Y-79262475D01*
X66648496Y-79262475D02*
X66838972Y-79262475D01*
X66838972Y-79262475D02*
X66934210Y-79214856D01*
X66934210Y-79214856D02*
X66981829Y-79119617D01*
X66981829Y-79119617D02*
X66981829Y-78738665D01*
X66981829Y-78738665D02*
X66934210Y-78643427D01*
X66934210Y-78643427D02*
X66838972Y-78595808D01*
X66838972Y-78595808D02*
X66648496Y-78595808D01*
X66648496Y-78595808D02*
X66553258Y-78643427D01*
X66553258Y-78643427D02*
X66505639Y-78738665D01*
X66505639Y-78738665D02*
X66505639Y-78833903D01*
X66505639Y-78833903D02*
X66981829Y-78929141D01*
X66124686Y-79214856D02*
X66029448Y-79262475D01*
X66029448Y-79262475D02*
X65838972Y-79262475D01*
X65838972Y-79262475D02*
X65743734Y-79214856D01*
X65743734Y-79214856D02*
X65696115Y-79119617D01*
X65696115Y-79119617D02*
X65696115Y-79071998D01*
X65696115Y-79071998D02*
X65743734Y-78976760D01*
X65743734Y-78976760D02*
X65838972Y-78929141D01*
X65838972Y-78929141D02*
X65981829Y-78929141D01*
X65981829Y-78929141D02*
X66077067Y-78881522D01*
X66077067Y-78881522D02*
X66124686Y-78786284D01*
X66124686Y-78786284D02*
X66124686Y-78738665D01*
X66124686Y-78738665D02*
X66077067Y-78643427D01*
X66077067Y-78643427D02*
X65981829Y-78595808D01*
X65981829Y-78595808D02*
X65838972Y-78595808D01*
X65838972Y-78595808D02*
X65743734Y-78643427D01*
X65315162Y-79214856D02*
X65219924Y-79262475D01*
X65219924Y-79262475D02*
X65029448Y-79262475D01*
X65029448Y-79262475D02*
X64934210Y-79214856D01*
X64934210Y-79214856D02*
X64886591Y-79119617D01*
X64886591Y-79119617D02*
X64886591Y-79071998D01*
X64886591Y-79071998D02*
X64934210Y-78976760D01*
X64934210Y-78976760D02*
X65029448Y-78929141D01*
X65029448Y-78929141D02*
X65172305Y-78929141D01*
X65172305Y-78929141D02*
X65267543Y-78881522D01*
X65267543Y-78881522D02*
X65315162Y-78786284D01*
X65315162Y-78786284D02*
X65315162Y-78738665D01*
X65315162Y-78738665D02*
X65267543Y-78643427D01*
X65267543Y-78643427D02*
X65172305Y-78595808D01*
X65172305Y-78595808D02*
X65029448Y-78595808D01*
X65029448Y-78595808D02*
X64934210Y-78643427D01*
X64077067Y-79214856D02*
X64172305Y-79262475D01*
X64172305Y-79262475D02*
X64362781Y-79262475D01*
X64362781Y-79262475D02*
X64458019Y-79214856D01*
X64458019Y-79214856D02*
X64505638Y-79119617D01*
X64505638Y-79119617D02*
X64505638Y-78738665D01*
X64505638Y-78738665D02*
X64458019Y-78643427D01*
X64458019Y-78643427D02*
X64362781Y-78595808D01*
X64362781Y-78595808D02*
X64172305Y-78595808D01*
X64172305Y-78595808D02*
X64077067Y-78643427D01*
X64077067Y-78643427D02*
X64029448Y-78738665D01*
X64029448Y-78738665D02*
X64029448Y-78833903D01*
X64029448Y-78833903D02*
X64505638Y-78929141D01*
X62315162Y-78310094D02*
X62410400Y-78262475D01*
X62410400Y-78262475D02*
X62553257Y-78262475D01*
X62553257Y-78262475D02*
X62696114Y-78310094D01*
X62696114Y-78310094D02*
X62791352Y-78405332D01*
X62791352Y-78405332D02*
X62838971Y-78500570D01*
X62838971Y-78500570D02*
X62886590Y-78691046D01*
X62886590Y-78691046D02*
X62886590Y-78833903D01*
X62886590Y-78833903D02*
X62838971Y-79024379D01*
X62838971Y-79024379D02*
X62791352Y-79119617D01*
X62791352Y-79119617D02*
X62696114Y-79214856D01*
X62696114Y-79214856D02*
X62553257Y-79262475D01*
X62553257Y-79262475D02*
X62458019Y-79262475D01*
X62458019Y-79262475D02*
X62315162Y-79214856D01*
X62315162Y-79214856D02*
X62267543Y-79167236D01*
X62267543Y-79167236D02*
X62267543Y-78833903D01*
X62267543Y-78833903D02*
X62458019Y-78833903D01*
X61458019Y-79214856D02*
X61553257Y-79262475D01*
X61553257Y-79262475D02*
X61743733Y-79262475D01*
X61743733Y-79262475D02*
X61838971Y-79214856D01*
X61838971Y-79214856D02*
X61886590Y-79119617D01*
X61886590Y-79119617D02*
X61886590Y-78738665D01*
X61886590Y-78738665D02*
X61838971Y-78643427D01*
X61838971Y-78643427D02*
X61743733Y-78595808D01*
X61743733Y-78595808D02*
X61553257Y-78595808D01*
X61553257Y-78595808D02*
X61458019Y-78643427D01*
X61458019Y-78643427D02*
X61410400Y-78738665D01*
X61410400Y-78738665D02*
X61410400Y-78833903D01*
X61410400Y-78833903D02*
X61886590Y-78929141D01*
X60600876Y-79214856D02*
X60696114Y-79262475D01*
X60696114Y-79262475D02*
X60886590Y-79262475D01*
X60886590Y-79262475D02*
X60981828Y-79214856D01*
X60981828Y-79214856D02*
X61029447Y-79119617D01*
X61029447Y-79119617D02*
X61029447Y-78738665D01*
X61029447Y-78738665D02*
X60981828Y-78643427D01*
X60981828Y-78643427D02*
X60886590Y-78595808D01*
X60886590Y-78595808D02*
X60696114Y-78595808D01*
X60696114Y-78595808D02*
X60600876Y-78643427D01*
X60600876Y-78643427D02*
X60553257Y-78738665D01*
X60553257Y-78738665D02*
X60553257Y-78833903D01*
X60553257Y-78833903D02*
X61029447Y-78929141D01*
X60124685Y-78595808D02*
X60124685Y-79262475D01*
X60124685Y-78691046D02*
X60077066Y-78643427D01*
X60077066Y-78643427D02*
X59981828Y-78595808D01*
X59981828Y-78595808D02*
X59838971Y-78595808D01*
X59838971Y-78595808D02*
X59743733Y-78643427D01*
X59743733Y-78643427D02*
X59696114Y-78738665D01*
X59696114Y-78738665D02*
X59696114Y-79262475D01*
X59267542Y-79214856D02*
X59172304Y-79262475D01*
X59172304Y-79262475D02*
X58981828Y-79262475D01*
X58981828Y-79262475D02*
X58886590Y-79214856D01*
X58886590Y-79214856D02*
X58838971Y-79119617D01*
X58838971Y-79119617D02*
X58838971Y-79071998D01*
X58838971Y-79071998D02*
X58886590Y-78976760D01*
X58886590Y-78976760D02*
X58981828Y-78929141D01*
X58981828Y-78929141D02*
X59124685Y-78929141D01*
X59124685Y-78929141D02*
X59219923Y-78881522D01*
X59219923Y-78881522D02*
X59267542Y-78786284D01*
X59267542Y-78786284D02*
X59267542Y-78738665D01*
X59267542Y-78738665D02*
X59219923Y-78643427D01*
X59219923Y-78643427D02*
X59124685Y-78595808D01*
X59124685Y-78595808D02*
X58981828Y-78595808D01*
X58981828Y-78595808D02*
X58886590Y-78643427D01*
X67172306Y-79920038D02*
X67267544Y-79872419D01*
X67267544Y-79872419D02*
X67410401Y-79872419D01*
X67410401Y-79872419D02*
X67553258Y-79920038D01*
X67553258Y-79920038D02*
X67648496Y-80015276D01*
X67648496Y-80015276D02*
X67696115Y-80110514D01*
X67696115Y-80110514D02*
X67743734Y-80300990D01*
X67743734Y-80300990D02*
X67743734Y-80443847D01*
X67743734Y-80443847D02*
X67696115Y-80634323D01*
X67696115Y-80634323D02*
X67648496Y-80729561D01*
X67648496Y-80729561D02*
X67553258Y-80824800D01*
X67553258Y-80824800D02*
X67410401Y-80872419D01*
X67410401Y-80872419D02*
X67315163Y-80872419D01*
X67315163Y-80872419D02*
X67172306Y-80824800D01*
X67172306Y-80824800D02*
X67124687Y-80777180D01*
X67124687Y-80777180D02*
X67124687Y-80443847D01*
X67124687Y-80443847D02*
X67315163Y-80443847D01*
X66315163Y-80824800D02*
X66410401Y-80872419D01*
X66410401Y-80872419D02*
X66600877Y-80872419D01*
X66600877Y-80872419D02*
X66696115Y-80824800D01*
X66696115Y-80824800D02*
X66743734Y-80729561D01*
X66743734Y-80729561D02*
X66743734Y-80348609D01*
X66743734Y-80348609D02*
X66696115Y-80253371D01*
X66696115Y-80253371D02*
X66600877Y-80205752D01*
X66600877Y-80205752D02*
X66410401Y-80205752D01*
X66410401Y-80205752D02*
X66315163Y-80253371D01*
X66315163Y-80253371D02*
X66267544Y-80348609D01*
X66267544Y-80348609D02*
X66267544Y-80443847D01*
X66267544Y-80443847D02*
X66743734Y-80539085D01*
X65838972Y-80205752D02*
X65838972Y-80872419D01*
X65838972Y-80300990D02*
X65791353Y-80253371D01*
X65791353Y-80253371D02*
X65696115Y-80205752D01*
X65696115Y-80205752D02*
X65553258Y-80205752D01*
X65553258Y-80205752D02*
X65458020Y-80253371D01*
X65458020Y-80253371D02*
X65410401Y-80348609D01*
X65410401Y-80348609D02*
X65410401Y-80872419D01*
X64553258Y-80824800D02*
X64648496Y-80872419D01*
X64648496Y-80872419D02*
X64838972Y-80872419D01*
X64838972Y-80872419D02*
X64934210Y-80824800D01*
X64934210Y-80824800D02*
X64981829Y-80729561D01*
X64981829Y-80729561D02*
X64981829Y-80348609D01*
X64981829Y-80348609D02*
X64934210Y-80253371D01*
X64934210Y-80253371D02*
X64838972Y-80205752D01*
X64838972Y-80205752D02*
X64648496Y-80205752D01*
X64648496Y-80205752D02*
X64553258Y-80253371D01*
X64553258Y-80253371D02*
X64505639Y-80348609D01*
X64505639Y-80348609D02*
X64505639Y-80443847D01*
X64505639Y-80443847D02*
X64981829Y-80539085D01*
X64172305Y-80205752D02*
X63934210Y-80872419D01*
X63934210Y-80872419D02*
X63696115Y-80205752D01*
X62886591Y-80872419D02*
X62886591Y-80348609D01*
X62886591Y-80348609D02*
X62934210Y-80253371D01*
X62934210Y-80253371D02*
X63029448Y-80205752D01*
X63029448Y-80205752D02*
X63219924Y-80205752D01*
X63219924Y-80205752D02*
X63315162Y-80253371D01*
X62886591Y-80824800D02*
X62981829Y-80872419D01*
X62981829Y-80872419D02*
X63219924Y-80872419D01*
X63219924Y-80872419D02*
X63315162Y-80824800D01*
X63315162Y-80824800D02*
X63362781Y-80729561D01*
X63362781Y-80729561D02*
X63362781Y-80634323D01*
X63362781Y-80634323D02*
X63315162Y-80539085D01*
X63315162Y-80539085D02*
X63219924Y-80491466D01*
X63219924Y-80491466D02*
X62981829Y-80491466D01*
X62981829Y-80491466D02*
X62886591Y-80443847D01*
X62362781Y-80824800D02*
X62362781Y-80872419D01*
X62362781Y-80872419D02*
X62410400Y-80967657D01*
X62410400Y-80967657D02*
X62458019Y-81015276D01*
X60600877Y-80777180D02*
X60648496Y-80824800D01*
X60648496Y-80824800D02*
X60791353Y-80872419D01*
X60791353Y-80872419D02*
X60886591Y-80872419D01*
X60886591Y-80872419D02*
X61029448Y-80824800D01*
X61029448Y-80824800D02*
X61124686Y-80729561D01*
X61124686Y-80729561D02*
X61172305Y-80634323D01*
X61172305Y-80634323D02*
X61219924Y-80443847D01*
X61219924Y-80443847D02*
X61219924Y-80300990D01*
X61219924Y-80300990D02*
X61172305Y-80110514D01*
X61172305Y-80110514D02*
X61124686Y-80015276D01*
X61124686Y-80015276D02*
X61029448Y-79920038D01*
X61029448Y-79920038D02*
X60886591Y-79872419D01*
X60886591Y-79872419D02*
X60791353Y-79872419D01*
X60791353Y-79872419D02*
X60648496Y-79920038D01*
X60648496Y-79920038D02*
X60600877Y-79967657D01*
X60172305Y-80872419D02*
X60172305Y-79872419D01*
X60172305Y-80348609D02*
X59600877Y-80348609D01*
X59600877Y-80872419D02*
X59600877Y-79872419D01*
D11*
%TO.C,REF\u002A\u002A*%
X61522971Y-99767822D02*
X58002178Y-99767822D01*
X58002178Y-98900198D01*
X61522971Y-98900198D01*
X61522971Y-99767822D01*
G36*
X61522971Y-99767822D02*
G01*
X58002178Y-99767822D01*
X58002178Y-98900198D01*
X61522971Y-98900198D01*
X61522971Y-99767822D01*
G37*
X60491894Y-94225718D02*
X60492388Y-94238668D01*
X60498819Y-94260411D01*
X60517123Y-94278851D01*
X60552830Y-94300801D01*
X60584174Y-94320854D01*
X60631893Y-94359356D01*
X60675138Y-94402579D01*
X60708219Y-94444627D01*
X60725442Y-94479604D01*
X60729662Y-94493081D01*
X60737480Y-94502334D01*
X60740116Y-94505454D01*
X60761662Y-94510696D01*
X60801314Y-94511782D01*
X60869109Y-94511782D01*
X60869109Y-94624951D01*
X60709577Y-94624951D01*
X60694682Y-94802732D01*
X60692682Y-94827037D01*
X60688023Y-94887880D01*
X60684731Y-94937389D01*
X60683092Y-94970992D01*
X60683390Y-94984116D01*
X60687724Y-94980343D01*
X60707496Y-94960676D01*
X60741679Y-94925818D01*
X60788541Y-94877576D01*
X60846354Y-94817757D01*
X60913387Y-94748167D01*
X60987912Y-94670615D01*
X61068197Y-94586907D01*
X61152513Y-94498849D01*
X61239130Y-94408250D01*
X61326319Y-94316915D01*
X61412349Y-94226653D01*
X61495492Y-94139269D01*
X61574016Y-94056572D01*
X61646192Y-93980368D01*
X61710291Y-93912463D01*
X61764583Y-93854666D01*
X61861592Y-93751040D01*
X61862034Y-93839315D01*
X61862475Y-93927589D01*
X61261938Y-94559158D01*
X60661401Y-95190726D01*
X60649396Y-95334674D01*
X60601365Y-95910635D01*
X60592876Y-96012791D01*
X60582343Y-96140612D01*
X60572621Y-96259767D01*
X60563898Y-96367914D01*
X60556358Y-96462713D01*
X60550187Y-96541819D01*
X60545573Y-96602892D01*
X60542700Y-96643590D01*
X60541754Y-96661570D01*
X60544251Y-96669808D01*
X60555471Y-96687599D01*
X60576751Y-96714411D01*
X60587021Y-96726129D01*
X60609225Y-96751466D01*
X60654023Y-96799986D01*
X60712281Y-96861192D01*
X60785129Y-96936307D01*
X60873703Y-97026550D01*
X60979134Y-97133145D01*
X61048492Y-97203093D01*
X61145179Y-97300658D01*
X61241526Y-97397941D01*
X61334638Y-97492014D01*
X61421618Y-97579950D01*
X61499569Y-97658820D01*
X61565596Y-97725699D01*
X61616802Y-97777658D01*
X61817514Y-97981620D01*
X61781058Y-98019671D01*
X61772460Y-98028245D01*
X61747095Y-98049297D01*
X61729695Y-98057723D01*
X61716071Y-98050530D01*
X61690743Y-98028944D01*
X61660379Y-97997995D01*
X61641896Y-97978448D01*
X61607427Y-97942752D01*
X61558712Y-97892684D01*
X61497469Y-97830001D01*
X61425420Y-97756457D01*
X61344285Y-97673810D01*
X61255784Y-97583815D01*
X61161637Y-97488228D01*
X61063565Y-97388805D01*
X60521161Y-96839343D01*
X60499066Y-97124746D01*
X60494250Y-97185662D01*
X60487216Y-97267548D01*
X60480872Y-97329569D01*
X60474748Y-97374987D01*
X60468373Y-97407062D01*
X60461277Y-97429052D01*
X60452991Y-97444219D01*
X60441393Y-97465416D01*
X60431850Y-97504386D01*
X60429010Y-97560531D01*
X60429010Y-97642773D01*
X60202674Y-97642773D01*
X60202674Y-97466733D01*
X59357082Y-97466733D01*
X59308203Y-97522262D01*
X59294836Y-97536722D01*
X59222388Y-97594813D01*
X59140532Y-97630576D01*
X59051900Y-97642773D01*
X58973692Y-97636306D01*
X58885233Y-97609047D01*
X58809507Y-97560328D01*
X58794748Y-97546403D01*
X58757864Y-97501328D01*
X58725503Y-97448819D01*
X58702297Y-97397061D01*
X58692879Y-97354239D01*
X58692697Y-97348023D01*
X58691342Y-97325246D01*
X58687800Y-97309513D01*
X58680390Y-97302068D01*
X58667431Y-97304156D01*
X58647243Y-97317020D01*
X58618145Y-97341905D01*
X58578456Y-97380053D01*
X58526496Y-97432710D01*
X58460584Y-97501119D01*
X58379040Y-97586524D01*
X58335604Y-97632112D01*
X58263000Y-97708441D01*
X58194309Y-97780808D01*
X58132223Y-97846366D01*
X58079434Y-97902274D01*
X58038634Y-97945686D01*
X58012515Y-97973758D01*
X57941119Y-98051436D01*
X57852863Y-97963416D01*
X58398690Y-97391287D01*
X58433105Y-97355188D01*
X58555546Y-97226272D01*
X58660651Y-97114754D01*
X58748736Y-97020288D01*
X58820116Y-96942529D01*
X58870588Y-96886174D01*
X59077247Y-96886174D01*
X59078872Y-96899434D01*
X59079156Y-96900819D01*
X59092698Y-96932228D01*
X59119748Y-96946863D01*
X59203129Y-96978063D01*
X59277418Y-97030038D01*
X59335846Y-97098791D01*
X59375890Y-97181315D01*
X59395026Y-97274606D01*
X59401364Y-97353565D01*
X60350838Y-97353565D01*
X60357458Y-97325273D01*
X60358629Y-97318329D01*
X60362268Y-97287281D01*
X60367234Y-97237081D01*
X60373157Y-97171727D01*
X60379669Y-97095219D01*
X60386401Y-97011555D01*
X60408724Y-96726129D01*
X60107826Y-96420565D01*
X60052636Y-96364704D01*
X59985109Y-96296888D01*
X59924529Y-96236643D01*
X59873021Y-96186052D01*
X59832710Y-96147200D01*
X59805722Y-96122170D01*
X59794182Y-96113046D01*
X59786444Y-96117405D01*
X59763395Y-96137241D01*
X59728709Y-96170375D01*
X59685487Y-96213820D01*
X59636832Y-96264587D01*
X59624140Y-96278051D01*
X59567229Y-96338275D01*
X59499414Y-96409864D01*
X59425800Y-96487437D01*
X59351493Y-96565611D01*
X59281599Y-96639005D01*
X59277401Y-96643409D01*
X59212420Y-96711785D01*
X59162836Y-96764732D01*
X59126688Y-96804767D01*
X59102016Y-96834411D01*
X59086858Y-96856181D01*
X59079256Y-96872595D01*
X59077247Y-96886174D01*
X58870588Y-96886174D01*
X58875105Y-96881131D01*
X58914019Y-96835748D01*
X58937173Y-96806035D01*
X58944882Y-96791644D01*
X58944883Y-96791559D01*
X58943825Y-96773624D01*
X58940737Y-96733421D01*
X58935858Y-96673687D01*
X58929432Y-96597158D01*
X58921700Y-96506569D01*
X58912905Y-96404657D01*
X58903287Y-96294159D01*
X58893091Y-96177811D01*
X58882556Y-96058348D01*
X58871926Y-95938507D01*
X58861442Y-95821025D01*
X58851346Y-95708637D01*
X58841881Y-95604081D01*
X58833288Y-95510091D01*
X58825809Y-95429405D01*
X58819687Y-95364759D01*
X58815162Y-95318888D01*
X58812478Y-95294530D01*
X58807067Y-95253732D01*
X58936253Y-95253732D01*
X58937908Y-95284653D01*
X58941549Y-95336653D01*
X58946995Y-95407487D01*
X58954063Y-95494911D01*
X58962570Y-95596681D01*
X58972335Y-95710552D01*
X58983174Y-95834279D01*
X58994907Y-95965618D01*
X59004079Y-96066908D01*
X59015566Y-96192526D01*
X59026322Y-96308762D01*
X59036131Y-96413380D01*
X59044781Y-96504140D01*
X59052057Y-96578804D01*
X59057746Y-96635134D01*
X59061634Y-96670891D01*
X59063506Y-96683837D01*
X59069188Y-96679826D01*
X59090020Y-96660138D01*
X59123872Y-96626322D01*
X59168412Y-96580837D01*
X59221310Y-96526146D01*
X59280236Y-96464710D01*
X59342858Y-96398990D01*
X59406848Y-96331449D01*
X59469874Y-96264547D01*
X59529606Y-96200746D01*
X59583713Y-96142507D01*
X59629865Y-96092292D01*
X59665733Y-96052563D01*
X59688984Y-96025780D01*
X59695778Y-96016477D01*
X59877601Y-96016477D01*
X60153305Y-96291968D01*
X60220726Y-96359224D01*
X60284267Y-96422162D01*
X60333490Y-96470100D01*
X60370196Y-96504594D01*
X60396190Y-96527199D01*
X60413276Y-96539471D01*
X60423256Y-96542966D01*
X60427935Y-96539238D01*
X60429116Y-96529844D01*
X60429873Y-96514749D01*
X60432601Y-96475883D01*
X60437108Y-96416895D01*
X60443179Y-96340473D01*
X60450596Y-96249305D01*
X60459142Y-96146080D01*
X60468602Y-96033483D01*
X60478758Y-95914205D01*
X60487723Y-95809077D01*
X60497066Y-95698351D01*
X60505443Y-95597814D01*
X60512653Y-95509943D01*
X60518496Y-95437215D01*
X60522769Y-95382110D01*
X60525273Y-95347104D01*
X60525805Y-95334674D01*
X60525384Y-95334908D01*
X60513509Y-95346350D01*
X60487130Y-95373198D01*
X60448570Y-95413018D01*
X60400153Y-95463372D01*
X60344203Y-95521828D01*
X60283042Y-95585948D01*
X60218995Y-95653298D01*
X60154385Y-95721443D01*
X60091535Y-95787948D01*
X60032768Y-95850377D01*
X59980409Y-95906295D01*
X59879533Y-96014406D01*
X59877601Y-96016477D01*
X59695778Y-96016477D01*
X59697290Y-96014406D01*
X59689148Y-96003383D01*
X59665478Y-95976999D01*
X59628478Y-95937527D01*
X59580350Y-95887191D01*
X59523296Y-95828217D01*
X59459520Y-95762830D01*
X59391222Y-95693255D01*
X59320605Y-95621716D01*
X59249871Y-95550438D01*
X59181222Y-95481647D01*
X59116861Y-95417566D01*
X59058989Y-95360422D01*
X59009810Y-95312439D01*
X58971524Y-95275841D01*
X58946334Y-95252854D01*
X58936442Y-95245703D01*
X58936253Y-95253732D01*
X58807067Y-95253732D01*
X58805390Y-95241089D01*
X58530297Y-95241089D01*
X58529968Y-95030471D01*
X58529797Y-94921172D01*
X58630891Y-94921172D01*
X58630891Y-95140495D01*
X58712624Y-95140495D01*
X58719895Y-95140489D01*
X58760950Y-95139613D01*
X58783277Y-95135867D01*
X58792529Y-95127270D01*
X58794357Y-95111840D01*
X58786306Y-95089159D01*
X58758730Y-95051428D01*
X58712624Y-95002179D01*
X58630891Y-94921172D01*
X58529797Y-94921172D01*
X58529639Y-94819852D01*
X58077914Y-94360891D01*
X57626189Y-93901931D01*
X57625570Y-93814848D01*
X57624951Y-93727767D01*
X58166769Y-94276952D01*
X58219137Y-94329998D01*
X58327803Y-94439772D01*
X58420709Y-94533114D01*
X58499055Y-94611173D01*
X58564043Y-94675097D01*
X58616872Y-94726035D01*
X58658743Y-94765135D01*
X58690855Y-94793548D01*
X58714410Y-94812420D01*
X58730608Y-94822901D01*
X58740649Y-94826139D01*
X58757579Y-94825158D01*
X58767084Y-94817996D01*
X58768723Y-94798401D01*
X58764782Y-94760124D01*
X58762065Y-94736025D01*
X58758284Y-94695744D01*
X58756760Y-94668961D01*
X58756015Y-94659728D01*
X58748746Y-94649839D01*
X58728668Y-94646562D01*
X58689689Y-94647992D01*
X58679737Y-94648553D01*
X58639898Y-94647921D01*
X58611560Y-94639167D01*
X58591586Y-94624951D01*
X58874852Y-94624951D01*
X58879013Y-94672104D01*
X58880935Y-94693498D01*
X58886924Y-94751909D01*
X58892826Y-94790381D01*
X58899727Y-94812912D01*
X58908712Y-94823498D01*
X58920870Y-94826139D01*
X58931801Y-94827937D01*
X58939050Y-94836530D01*
X58943100Y-94856505D01*
X58944863Y-94892450D01*
X58945248Y-94948952D01*
X58945248Y-95071766D01*
X58985447Y-95111840D01*
X59083565Y-95209654D01*
X59221881Y-95347542D01*
X59221881Y-95241089D01*
X59976337Y-95241089D01*
X59976337Y-95480000D01*
X59357831Y-95480000D01*
X59567592Y-95696906D01*
X59607770Y-95738334D01*
X59663328Y-95795200D01*
X59711570Y-95844082D01*
X59749971Y-95882441D01*
X59776003Y-95907741D01*
X59787140Y-95917442D01*
X59791373Y-95914767D01*
X59811224Y-95896782D01*
X59845451Y-95863481D01*
X59892227Y-95816712D01*
X59949724Y-95758325D01*
X60016112Y-95690169D01*
X60089564Y-95614094D01*
X60168251Y-95531950D01*
X60247341Y-95448943D01*
X60324871Y-95367136D01*
X60387746Y-95300083D01*
X60437502Y-95246007D01*
X60475678Y-95203129D01*
X60503811Y-95169673D01*
X60523440Y-95143861D01*
X60536101Y-95123914D01*
X60543334Y-95108056D01*
X60546675Y-95094509D01*
X60547561Y-95087910D01*
X60551488Y-95051548D01*
X60556459Y-94998018D01*
X60561927Y-94933421D01*
X60567344Y-94863862D01*
X60569181Y-94839635D01*
X60574488Y-94774178D01*
X60579548Y-94717717D01*
X60583863Y-94675618D01*
X60586934Y-94653243D01*
X60592955Y-94624951D01*
X58874852Y-94624951D01*
X58591586Y-94624951D01*
X58583630Y-94619289D01*
X58578820Y-94615104D01*
X58539482Y-94564427D01*
X58523903Y-94511782D01*
X58864698Y-94511782D01*
X60279221Y-94511782D01*
X60277172Y-94461485D01*
X60491881Y-94461485D01*
X60491881Y-94511782D01*
X60548908Y-94511782D01*
X60565993Y-94511662D01*
X60591308Y-94509462D01*
X60598616Y-94502334D01*
X60592943Y-94487508D01*
X60591267Y-94484682D01*
X60572448Y-94462944D01*
X60545183Y-94438820D01*
X60517987Y-94419254D01*
X60499371Y-94411188D01*
X60497697Y-94412463D01*
X60493544Y-94429976D01*
X60491881Y-94461485D01*
X60277172Y-94461485D01*
X60275526Y-94421095D01*
X60271832Y-94330407D01*
X60196386Y-94315252D01*
X60158551Y-94308379D01*
X60095368Y-94298756D01*
X60036065Y-94291496D01*
X59951188Y-94282893D01*
X59951188Y-94386040D01*
X59372773Y-94386040D01*
X59372773Y-94295122D01*
X59300471Y-94303753D01*
X59189998Y-94322249D01*
X59078816Y-94355691D01*
X58986850Y-94402324D01*
X58912542Y-94462786D01*
X58864698Y-94511782D01*
X58523903Y-94511782D01*
X58522172Y-94505934D01*
X58527474Y-94444575D01*
X58555975Y-94385297D01*
X58558733Y-94381606D01*
X58596822Y-94349851D01*
X58646476Y-94331067D01*
X58700002Y-94326071D01*
X58749707Y-94335678D01*
X58787900Y-94360704D01*
X58800831Y-94373480D01*
X58813428Y-94376576D01*
X58831467Y-94366998D01*
X58861928Y-94343082D01*
X58871274Y-94335731D01*
X58943430Y-94289339D01*
X59028915Y-94248084D01*
X59098830Y-94222575D01*
X59473367Y-94222575D01*
X59473367Y-94285446D01*
X59850594Y-94285446D01*
X59850594Y-94222575D01*
X59473367Y-94222575D01*
X59098830Y-94222575D01*
X59119767Y-94214936D01*
X59208027Y-94192868D01*
X59285736Y-94184852D01*
X59293991Y-94184788D01*
X59339879Y-94180321D01*
X59365079Y-94167795D01*
X59372773Y-94145784D01*
X59373676Y-94138849D01*
X59378615Y-94132885D01*
X59390611Y-94128519D01*
X59412680Y-94125503D01*
X59447836Y-94123590D01*
X59499094Y-94122530D01*
X59569471Y-94122077D01*
X59661980Y-94121980D01*
X59748660Y-94122150D01*
X59822332Y-94122834D01*
X59876265Y-94124215D01*
X59913288Y-94126470D01*
X59936230Y-94129778D01*
X59947920Y-94134320D01*
X59951188Y-94140272D01*
X59961937Y-94154888D01*
X59992055Y-94164215D01*
X60003582Y-94165847D01*
X60042886Y-94171591D01*
X60095188Y-94179378D01*
X60152376Y-94188003D01*
X60183916Y-94192393D01*
X60230074Y-94197148D01*
X60262641Y-94198295D01*
X60276023Y-94195495D01*
X60278308Y-94193671D01*
X60299405Y-94189165D01*
X60337355Y-94186029D01*
X60386048Y-94184852D01*
X60491881Y-94184852D01*
X60491894Y-94222575D01*
X60491894Y-94225718D01*
G36*
X60491894Y-94225718D02*
G01*
X60492388Y-94238668D01*
X60498819Y-94260411D01*
X60517123Y-94278851D01*
X60552830Y-94300801D01*
X60584174Y-94320854D01*
X60631893Y-94359356D01*
X60675138Y-94402579D01*
X60708219Y-94444627D01*
X60725442Y-94479604D01*
X60729662Y-94493081D01*
X60737480Y-94502334D01*
X60740116Y-94505454D01*
X60761662Y-94510696D01*
X60801314Y-94511782D01*
X60869109Y-94511782D01*
X60869109Y-94624951D01*
X60709577Y-94624951D01*
X60694682Y-94802732D01*
X60692682Y-94827037D01*
X60688023Y-94887880D01*
X60684731Y-94937389D01*
X60683092Y-94970992D01*
X60683390Y-94984116D01*
X60687724Y-94980343D01*
X60707496Y-94960676D01*
X60741679Y-94925818D01*
X60788541Y-94877576D01*
X60846354Y-94817757D01*
X60913387Y-94748167D01*
X60987912Y-94670615D01*
X61068197Y-94586907D01*
X61152513Y-94498849D01*
X61239130Y-94408250D01*
X61326319Y-94316915D01*
X61412349Y-94226653D01*
X61495492Y-94139269D01*
X61574016Y-94056572D01*
X61646192Y-93980368D01*
X61710291Y-93912463D01*
X61764583Y-93854666D01*
X61861592Y-93751040D01*
X61862034Y-93839315D01*
X61862475Y-93927589D01*
X61261938Y-94559158D01*
X60661401Y-95190726D01*
X60649396Y-95334674D01*
X60601365Y-95910635D01*
X60592876Y-96012791D01*
X60582343Y-96140612D01*
X60572621Y-96259767D01*
X60563898Y-96367914D01*
X60556358Y-96462713D01*
X60550187Y-96541819D01*
X60545573Y-96602892D01*
X60542700Y-96643590D01*
X60541754Y-96661570D01*
X60544251Y-96669808D01*
X60555471Y-96687599D01*
X60576751Y-96714411D01*
X60587021Y-96726129D01*
X60609225Y-96751466D01*
X60654023Y-96799986D01*
X60712281Y-96861192D01*
X60785129Y-96936307D01*
X60873703Y-97026550D01*
X60979134Y-97133145D01*
X61048492Y-97203093D01*
X61145179Y-97300658D01*
X61241526Y-97397941D01*
X61334638Y-97492014D01*
X61421618Y-97579950D01*
X61499569Y-97658820D01*
X61565596Y-97725699D01*
X61616802Y-97777658D01*
X61817514Y-97981620D01*
X61781058Y-98019671D01*
X61772460Y-98028245D01*
X61747095Y-98049297D01*
X61729695Y-98057723D01*
X61716071Y-98050530D01*
X61690743Y-98028944D01*
X61660379Y-97997995D01*
X61641896Y-97978448D01*
X61607427Y-97942752D01*
X61558712Y-97892684D01*
X61497469Y-97830001D01*
X61425420Y-97756457D01*
X61344285Y-97673810D01*
X61255784Y-97583815D01*
X61161637Y-97488228D01*
X61063565Y-97388805D01*
X60521161Y-96839343D01*
X60499066Y-97124746D01*
X60494250Y-97185662D01*
X60487216Y-97267548D01*
X60480872Y-97329569D01*
X60474748Y-97374987D01*
X60468373Y-97407062D01*
X60461277Y-97429052D01*
X60452991Y-97444219D01*
X60441393Y-97465416D01*
X60431850Y-97504386D01*
X60429010Y-97560531D01*
X60429010Y-97642773D01*
X60202674Y-97642773D01*
X60202674Y-97466733D01*
X59357082Y-97466733D01*
X59308203Y-97522262D01*
X59294836Y-97536722D01*
X59222388Y-97594813D01*
X59140532Y-97630576D01*
X59051900Y-97642773D01*
X58973692Y-97636306D01*
X58885233Y-97609047D01*
X58809507Y-97560328D01*
X58794748Y-97546403D01*
X58757864Y-97501328D01*
X58725503Y-97448819D01*
X58702297Y-97397061D01*
X58692879Y-97354239D01*
X58692697Y-97348023D01*
X58691342Y-97325246D01*
X58687800Y-97309513D01*
X58680390Y-97302068D01*
X58667431Y-97304156D01*
X58647243Y-97317020D01*
X58618145Y-97341905D01*
X58578456Y-97380053D01*
X58526496Y-97432710D01*
X58460584Y-97501119D01*
X58379040Y-97586524D01*
X58335604Y-97632112D01*
X58263000Y-97708441D01*
X58194309Y-97780808D01*
X58132223Y-97846366D01*
X58079434Y-97902274D01*
X58038634Y-97945686D01*
X58012515Y-97973758D01*
X57941119Y-98051436D01*
X57852863Y-97963416D01*
X58398690Y-97391287D01*
X58433105Y-97355188D01*
X58555546Y-97226272D01*
X58660651Y-97114754D01*
X58748736Y-97020288D01*
X58820116Y-96942529D01*
X58870588Y-96886174D01*
X59077247Y-96886174D01*
X59078872Y-96899434D01*
X59079156Y-96900819D01*
X59092698Y-96932228D01*
X59119748Y-96946863D01*
X59203129Y-96978063D01*
X59277418Y-97030038D01*
X59335846Y-97098791D01*
X59375890Y-97181315D01*
X59395026Y-97274606D01*
X59401364Y-97353565D01*
X60350838Y-97353565D01*
X60357458Y-97325273D01*
X60358629Y-97318329D01*
X60362268Y-97287281D01*
X60367234Y-97237081D01*
X60373157Y-97171727D01*
X60379669Y-97095219D01*
X60386401Y-97011555D01*
X60408724Y-96726129D01*
X60107826Y-96420565D01*
X60052636Y-96364704D01*
X59985109Y-96296888D01*
X59924529Y-96236643D01*
X59873021Y-96186052D01*
X59832710Y-96147200D01*
X59805722Y-96122170D01*
X59794182Y-96113046D01*
X59786444Y-96117405D01*
X59763395Y-96137241D01*
X59728709Y-96170375D01*
X59685487Y-96213820D01*
X59636832Y-96264587D01*
X59624140Y-96278051D01*
X59567229Y-96338275D01*
X59499414Y-96409864D01*
X59425800Y-96487437D01*
X59351493Y-96565611D01*
X59281599Y-96639005D01*
X59277401Y-96643409D01*
X59212420Y-96711785D01*
X59162836Y-96764732D01*
X59126688Y-96804767D01*
X59102016Y-96834411D01*
X59086858Y-96856181D01*
X59079256Y-96872595D01*
X59077247Y-96886174D01*
X58870588Y-96886174D01*
X58875105Y-96881131D01*
X58914019Y-96835748D01*
X58937173Y-96806035D01*
X58944882Y-96791644D01*
X58944883Y-96791559D01*
X58943825Y-96773624D01*
X58940737Y-96733421D01*
X58935858Y-96673687D01*
X58929432Y-96597158D01*
X58921700Y-96506569D01*
X58912905Y-96404657D01*
X58903287Y-96294159D01*
X58893091Y-96177811D01*
X58882556Y-96058348D01*
X58871926Y-95938507D01*
X58861442Y-95821025D01*
X58851346Y-95708637D01*
X58841881Y-95604081D01*
X58833288Y-95510091D01*
X58825809Y-95429405D01*
X58819687Y-95364759D01*
X58815162Y-95318888D01*
X58812478Y-95294530D01*
X58807067Y-95253732D01*
X58936253Y-95253732D01*
X58937908Y-95284653D01*
X58941549Y-95336653D01*
X58946995Y-95407487D01*
X58954063Y-95494911D01*
X58962570Y-95596681D01*
X58972335Y-95710552D01*
X58983174Y-95834279D01*
X58994907Y-95965618D01*
X59004079Y-96066908D01*
X59015566Y-96192526D01*
X59026322Y-96308762D01*
X59036131Y-96413380D01*
X59044781Y-96504140D01*
X59052057Y-96578804D01*
X59057746Y-96635134D01*
X59061634Y-96670891D01*
X59063506Y-96683837D01*
X59069188Y-96679826D01*
X59090020Y-96660138D01*
X59123872Y-96626322D01*
X59168412Y-96580837D01*
X59221310Y-96526146D01*
X59280236Y-96464710D01*
X59342858Y-96398990D01*
X59406848Y-96331449D01*
X59469874Y-96264547D01*
X59529606Y-96200746D01*
X59583713Y-96142507D01*
X59629865Y-96092292D01*
X59665733Y-96052563D01*
X59688984Y-96025780D01*
X59695778Y-96016477D01*
X59877601Y-96016477D01*
X60153305Y-96291968D01*
X60220726Y-96359224D01*
X60284267Y-96422162D01*
X60333490Y-96470100D01*
X60370196Y-96504594D01*
X60396190Y-96527199D01*
X60413276Y-96539471D01*
X60423256Y-96542966D01*
X60427935Y-96539238D01*
X60429116Y-96529844D01*
X60429873Y-96514749D01*
X60432601Y-96475883D01*
X60437108Y-96416895D01*
X60443179Y-96340473D01*
X60450596Y-96249305D01*
X60459142Y-96146080D01*
X60468602Y-96033483D01*
X60478758Y-95914205D01*
X60487723Y-95809077D01*
X60497066Y-95698351D01*
X60505443Y-95597814D01*
X60512653Y-95509943D01*
X60518496Y-95437215D01*
X60522769Y-95382110D01*
X60525273Y-95347104D01*
X60525805Y-95334674D01*
X60525384Y-95334908D01*
X60513509Y-95346350D01*
X60487130Y-95373198D01*
X60448570Y-95413018D01*
X60400153Y-95463372D01*
X60344203Y-95521828D01*
X60283042Y-95585948D01*
X60218995Y-95653298D01*
X60154385Y-95721443D01*
X60091535Y-95787948D01*
X60032768Y-95850377D01*
X59980409Y-95906295D01*
X59879533Y-96014406D01*
X59877601Y-96016477D01*
X59695778Y-96016477D01*
X59697290Y-96014406D01*
X59689148Y-96003383D01*
X59665478Y-95976999D01*
X59628478Y-95937527D01*
X59580350Y-95887191D01*
X59523296Y-95828217D01*
X59459520Y-95762830D01*
X59391222Y-95693255D01*
X59320605Y-95621716D01*
X59249871Y-95550438D01*
X59181222Y-95481647D01*
X59116861Y-95417566D01*
X59058989Y-95360422D01*
X59009810Y-95312439D01*
X58971524Y-95275841D01*
X58946334Y-95252854D01*
X58936442Y-95245703D01*
X58936253Y-95253732D01*
X58807067Y-95253732D01*
X58805390Y-95241089D01*
X58530297Y-95241089D01*
X58529968Y-95030471D01*
X58529797Y-94921172D01*
X58630891Y-94921172D01*
X58630891Y-95140495D01*
X58712624Y-95140495D01*
X58719895Y-95140489D01*
X58760950Y-95139613D01*
X58783277Y-95135867D01*
X58792529Y-95127270D01*
X58794357Y-95111840D01*
X58786306Y-95089159D01*
X58758730Y-95051428D01*
X58712624Y-95002179D01*
X58630891Y-94921172D01*
X58529797Y-94921172D01*
X58529639Y-94819852D01*
X58077914Y-94360891D01*
X57626189Y-93901931D01*
X57625570Y-93814848D01*
X57624951Y-93727767D01*
X58166769Y-94276952D01*
X58219137Y-94329998D01*
X58327803Y-94439772D01*
X58420709Y-94533114D01*
X58499055Y-94611173D01*
X58564043Y-94675097D01*
X58616872Y-94726035D01*
X58658743Y-94765135D01*
X58690855Y-94793548D01*
X58714410Y-94812420D01*
X58730608Y-94822901D01*
X58740649Y-94826139D01*
X58757579Y-94825158D01*
X58767084Y-94817996D01*
X58768723Y-94798401D01*
X58764782Y-94760124D01*
X58762065Y-94736025D01*
X58758284Y-94695744D01*
X58756760Y-94668961D01*
X58756015Y-94659728D01*
X58748746Y-94649839D01*
X58728668Y-94646562D01*
X58689689Y-94647992D01*
X58679737Y-94648553D01*
X58639898Y-94647921D01*
X58611560Y-94639167D01*
X58591586Y-94624951D01*
X58874852Y-94624951D01*
X58879013Y-94672104D01*
X58880935Y-94693498D01*
X58886924Y-94751909D01*
X58892826Y-94790381D01*
X58899727Y-94812912D01*
X58908712Y-94823498D01*
X58920870Y-94826139D01*
X58931801Y-94827937D01*
X58939050Y-94836530D01*
X58943100Y-94856505D01*
X58944863Y-94892450D01*
X58945248Y-94948952D01*
X58945248Y-95071766D01*
X58985447Y-95111840D01*
X59083565Y-95209654D01*
X59221881Y-95347542D01*
X59221881Y-95241089D01*
X59976337Y-95241089D01*
X59976337Y-95480000D01*
X59357831Y-95480000D01*
X59567592Y-95696906D01*
X59607770Y-95738334D01*
X59663328Y-95795200D01*
X59711570Y-95844082D01*
X59749971Y-95882441D01*
X59776003Y-95907741D01*
X59787140Y-95917442D01*
X59791373Y-95914767D01*
X59811224Y-95896782D01*
X59845451Y-95863481D01*
X59892227Y-95816712D01*
X59949724Y-95758325D01*
X60016112Y-95690169D01*
X60089564Y-95614094D01*
X60168251Y-95531950D01*
X60247341Y-95448943D01*
X60324871Y-95367136D01*
X60387746Y-95300083D01*
X60437502Y-95246007D01*
X60475678Y-95203129D01*
X60503811Y-95169673D01*
X60523440Y-95143861D01*
X60536101Y-95123914D01*
X60543334Y-95108056D01*
X60546675Y-95094509D01*
X60547561Y-95087910D01*
X60551488Y-95051548D01*
X60556459Y-94998018D01*
X60561927Y-94933421D01*
X60567344Y-94863862D01*
X60569181Y-94839635D01*
X60574488Y-94774178D01*
X60579548Y-94717717D01*
X60583863Y-94675618D01*
X60586934Y-94653243D01*
X60592955Y-94624951D01*
X58874852Y-94624951D01*
X58591586Y-94624951D01*
X58583630Y-94619289D01*
X58578820Y-94615104D01*
X58539482Y-94564427D01*
X58523903Y-94511782D01*
X58864698Y-94511782D01*
X60279221Y-94511782D01*
X60277172Y-94461485D01*
X60491881Y-94461485D01*
X60491881Y-94511782D01*
X60548908Y-94511782D01*
X60565993Y-94511662D01*
X60591308Y-94509462D01*
X60598616Y-94502334D01*
X60592943Y-94487508D01*
X60591267Y-94484682D01*
X60572448Y-94462944D01*
X60545183Y-94438820D01*
X60517987Y-94419254D01*
X60499371Y-94411188D01*
X60497697Y-94412463D01*
X60493544Y-94429976D01*
X60491881Y-94461485D01*
X60277172Y-94461485D01*
X60275526Y-94421095D01*
X60271832Y-94330407D01*
X60196386Y-94315252D01*
X60158551Y-94308379D01*
X60095368Y-94298756D01*
X60036065Y-94291496D01*
X59951188Y-94282893D01*
X59951188Y-94386040D01*
X59372773Y-94386040D01*
X59372773Y-94295122D01*
X59300471Y-94303753D01*
X59189998Y-94322249D01*
X59078816Y-94355691D01*
X58986850Y-94402324D01*
X58912542Y-94462786D01*
X58864698Y-94511782D01*
X58523903Y-94511782D01*
X58522172Y-94505934D01*
X58527474Y-94444575D01*
X58555975Y-94385297D01*
X58558733Y-94381606D01*
X58596822Y-94349851D01*
X58646476Y-94331067D01*
X58700002Y-94326071D01*
X58749707Y-94335678D01*
X58787900Y-94360704D01*
X58800831Y-94373480D01*
X58813428Y-94376576D01*
X58831467Y-94366998D01*
X58861928Y-94343082D01*
X58871274Y-94335731D01*
X58943430Y-94289339D01*
X59028915Y-94248084D01*
X59098830Y-94222575D01*
X59473367Y-94222575D01*
X59473367Y-94285446D01*
X59850594Y-94285446D01*
X59850594Y-94222575D01*
X59473367Y-94222575D01*
X59098830Y-94222575D01*
X59119767Y-94214936D01*
X59208027Y-94192868D01*
X59285736Y-94184852D01*
X59293991Y-94184788D01*
X59339879Y-94180321D01*
X59365079Y-94167795D01*
X59372773Y-94145784D01*
X59373676Y-94138849D01*
X59378615Y-94132885D01*
X59390611Y-94128519D01*
X59412680Y-94125503D01*
X59447836Y-94123590D01*
X59499094Y-94122530D01*
X59569471Y-94122077D01*
X59661980Y-94121980D01*
X59748660Y-94122150D01*
X59822332Y-94122834D01*
X59876265Y-94124215D01*
X59913288Y-94126470D01*
X59936230Y-94129778D01*
X59947920Y-94134320D01*
X59951188Y-94140272D01*
X59961937Y-94154888D01*
X59992055Y-94164215D01*
X60003582Y-94165847D01*
X60042886Y-94171591D01*
X60095188Y-94179378D01*
X60152376Y-94188003D01*
X60183916Y-94192393D01*
X60230074Y-94197148D01*
X60262641Y-94198295D01*
X60276023Y-94195495D01*
X60278308Y-94193671D01*
X60299405Y-94189165D01*
X60337355Y-94186029D01*
X60386048Y-94184852D01*
X60491881Y-94184852D01*
X60491894Y-94222575D01*
X60491894Y-94225718D01*
G37*
%TD*%
M02*
