%TF.GenerationSoftware,KiCad,Pcbnew,8.0.9-1.fc41*%
%TF.CreationDate,2025-04-27T16:21:26+02:00*%
%TF.ProjectId,Breadboard-PowerSupply,42726561-6462-46f6-9172-642d506f7765,rev?*%
%TF.SameCoordinates,Original*%
%TF.FileFunction,Copper,L2,Bot*%
%TF.FilePolarity,Positive*%
%FSLAX46Y46*%
G04 Gerber Fmt 4.6, Leading zero omitted, Abs format (unit mm)*
G04 Created by KiCad (PCBNEW 8.0.9-1.fc41) date 2025-04-27 16:21:26*
%MOMM*%
%LPD*%
G01*
G04 APERTURE LIST*
G04 Aperture macros list*
%AMRoundRect*
0 Rectangle with rounded corners*
0 $1 Rounding radius*
0 $2 $3 $4 $5 $6 $7 $8 $9 X,Y pos of 4 corners*
0 Add a 4 corners polygon primitive as box body*
4,1,4,$2,$3,$4,$5,$6,$7,$8,$9,$2,$3,0*
0 Add four circle primitives for the rounded corners*
1,1,$1+$1,$2,$3*
1,1,$1+$1,$4,$5*
1,1,$1+$1,$6,$7*
1,1,$1+$1,$8,$9*
0 Add four rect primitives between the rounded corners*
20,1,$1+$1,$2,$3,$4,$5,0*
20,1,$1+$1,$4,$5,$6,$7,0*
20,1,$1+$1,$6,$7,$8,$9,0*
20,1,$1+$1,$8,$9,$2,$3,0*%
G04 Aperture macros list end*
%TA.AperFunction,ComponentPad*%
%ADD10R,3.000000X3.000000*%
%TD*%
%TA.AperFunction,ComponentPad*%
%ADD11C,3.000000*%
%TD*%
%TA.AperFunction,ComponentPad*%
%ADD12C,1.400000*%
%TD*%
%TA.AperFunction,ComponentPad*%
%ADD13O,1.400000X1.400000*%
%TD*%
%TA.AperFunction,ComponentPad*%
%ADD14R,1.700000X1.700000*%
%TD*%
%TA.AperFunction,ComponentPad*%
%ADD15O,1.700000X1.700000*%
%TD*%
%TA.AperFunction,ComponentPad*%
%ADD16R,3.500000X3.500000*%
%TD*%
%TA.AperFunction,ComponentPad*%
%ADD17RoundRect,0.750000X-0.750000X-1.000000X0.750000X-1.000000X0.750000X1.000000X-0.750000X1.000000X0*%
%TD*%
%TA.AperFunction,ComponentPad*%
%ADD18RoundRect,0.875000X-0.875000X-0.875000X0.875000X-0.875000X0.875000X0.875000X-0.875000X0.875000X0*%
%TD*%
%TA.AperFunction,ComponentPad*%
%ADD19C,1.600000*%
%TD*%
%TA.AperFunction,ComponentPad*%
%ADD20R,1.905000X2.000000*%
%TD*%
%TA.AperFunction,ComponentPad*%
%ADD21O,1.905000X2.000000*%
%TD*%
%TA.AperFunction,ComponentPad*%
%ADD22R,1.900000X1.900000*%
%TD*%
%TA.AperFunction,ComponentPad*%
%ADD23C,1.900000*%
%TD*%
%TA.AperFunction,ComponentPad*%
%ADD24R,1.800000X1.800000*%
%TD*%
%TA.AperFunction,ComponentPad*%
%ADD25C,1.800000*%
%TD*%
%TA.AperFunction,Conductor*%
%ADD26C,0.350000*%
%TD*%
G04 APERTURE END LIST*
D10*
%TO.P,J7,1,Pin_1*%
%TO.N,GND*%
X63920000Y-107750000D03*
D11*
%TO.P,J7,2,Pin_2*%
%TO.N,/PWR_OUTPUT*%
X69000000Y-107750000D03*
%TD*%
D12*
%TO.P,R3,1*%
%TO.N,Net-(U2-ADJ)*%
X63000000Y-101620000D03*
D13*
%TO.P,R3,2*%
%TO.N,/3.3V*%
X63000000Y-94000000D03*
%TD*%
D14*
%TO.P,J2,1,Pin_1*%
%TO.N,GND*%
X74250000Y-107250000D03*
D15*
%TO.P,J2,2,Pin_2*%
%TO.N,/PWR_OUTPUT*%
X74250000Y-109790000D03*
%TD*%
D14*
%TO.P,J4,1,Pin_1*%
%TO.N,/3.3V*%
X53250000Y-110000000D03*
D15*
%TO.P,J4,2,Pin_2*%
%TO.N,/PWR_OUTPUT*%
X55790000Y-110000000D03*
%TO.P,J4,3,Pin_3*%
%TO.N,/5V*%
X58330000Y-110000000D03*
%TD*%
D16*
%TO.P,J6,1*%
%TO.N,/PWR_INPUT*%
X69750000Y-86000000D03*
D17*
%TO.P,J6,2*%
%TO.N,GND*%
X63750000Y-86000000D03*
D18*
%TO.P,J6,3*%
X66750000Y-90700000D03*
%TD*%
D19*
%TO.P,C1,1*%
%TO.N,/12V*%
X63750000Y-73500000D03*
%TO.P,C1,2*%
%TO.N,GND*%
X63750000Y-71000000D03*
%TD*%
D20*
%TO.P,U1,1,VI*%
%TO.N,/12V*%
X53250000Y-71750000D03*
D21*
%TO.P,U1,2,GND*%
%TO.N,GND*%
X55790000Y-71750000D03*
%TO.P,U1,3,VO*%
%TO.N,/5V*%
X58330000Y-71750000D03*
%TD*%
D22*
%TO.P,S1,1*%
%TO.N,/12V*%
X69250000Y-72000000D03*
D23*
%TO.P,S1,2*%
%TO.N,/PWR_INPUT*%
X69250000Y-74500000D03*
%TO.P,S1,3*%
%TO.N,unconnected-(S1-Pad3)*%
X69250000Y-77000000D03*
%TD*%
D14*
%TO.P,J1,1,Pin_1*%
%TO.N,GND*%
X74250000Y-61500000D03*
D15*
%TO.P,J1,2,Pin_2*%
%TO.N,/PWR_OUTPUT*%
X74250000Y-64040000D03*
%TD*%
D19*
%TO.P,C3,1*%
%TO.N,/3.3V*%
X54250000Y-78750000D03*
%TO.P,C3,2*%
%TO.N,GND*%
X56750000Y-78750000D03*
%TD*%
D12*
%TO.P,R2,1*%
%TO.N,/12V*%
X53000000Y-89810000D03*
D13*
%TO.P,R2,2*%
%TO.N,Net-(D1-A)*%
X53000000Y-82190000D03*
%TD*%
D12*
%TO.P,R1,1*%
%TO.N,GND*%
X67000000Y-101620000D03*
D13*
%TO.P,R1,2*%
%TO.N,Net-(U2-ADJ)*%
X67000000Y-94000000D03*
%TD*%
D10*
%TO.P,J5,1,Pin_1*%
%TO.N,GND*%
X63670000Y-63750000D03*
D11*
%TO.P,J5,2,Pin_2*%
%TO.N,/PWR_OUTPUT*%
X68750000Y-63750000D03*
%TD*%
D19*
%TO.P,C2,1*%
%TO.N,/5V*%
X54000000Y-66000000D03*
%TO.P,C2,2*%
%TO.N,GND*%
X56500000Y-66000000D03*
%TD*%
D14*
%TO.P,J3,1,Pin_1*%
%TO.N,/3.3V*%
X53250000Y-61500000D03*
D15*
%TO.P,J3,2,Pin_2*%
%TO.N,/PWR_OUTPUT*%
X55790000Y-61500000D03*
%TO.P,J3,3,Pin_3*%
%TO.N,/5V*%
X58330000Y-61500000D03*
%TD*%
D24*
%TO.P,D1,1,K*%
%TO.N,GND*%
X53960000Y-96750000D03*
D25*
%TO.P,D1,2,A*%
%TO.N,Net-(D1-A)*%
X56500000Y-96750000D03*
%TD*%
D20*
%TO.P,U2,1,ADJ*%
%TO.N,Net-(U2-ADJ)*%
X53210000Y-105445000D03*
D21*
%TO.P,U2,2,VO*%
%TO.N,/3.3V*%
X55750000Y-105445000D03*
%TO.P,U2,3,VI*%
%TO.N,/12V*%
X58290000Y-105445000D03*
%TD*%
D26*
%TO.N,GND*%
X72630000Y-107250000D02*
X67000000Y-101620000D01*
X65920000Y-61500000D02*
X63670000Y-63750000D01*
X74000000Y-61500000D02*
X65920000Y-61500000D01*
X74250000Y-107250000D02*
X72630000Y-107250000D01*
%TO.N,/12V*%
X54625000Y-80805280D02*
X54625000Y-88185000D01*
X53250000Y-71750000D02*
X52554720Y-72445280D01*
X52300000Y-90510000D02*
X52300000Y-99455000D01*
X52300000Y-99455000D02*
X58290000Y-105445000D01*
X52554720Y-78735000D02*
X54625000Y-80805280D01*
X52554720Y-72445280D02*
X52554720Y-78735000D01*
X54625000Y-88185000D02*
X53000000Y-89810000D01*
X53000000Y-89810000D02*
X52300000Y-90510000D01*
%TO.N,/5V*%
X58330000Y-110000000D02*
X58330000Y-109590000D01*
X58330000Y-86330000D02*
X58330000Y-71750000D01*
X58330000Y-109590000D02*
X64075000Y-103845000D01*
X64075000Y-92075000D02*
X58330000Y-86330000D01*
X64075000Y-103845000D02*
X64075000Y-92075000D01*
%TO.N,/3.3V*%
X57125000Y-106820000D02*
X58930000Y-106820000D01*
X61925000Y-95075000D02*
X63000000Y-94000000D01*
X55750000Y-105445000D02*
X57125000Y-106820000D01*
X61925000Y-103825000D02*
X61925000Y-95075000D01*
X58930000Y-106820000D02*
X61925000Y-103825000D01*
%TO.N,/PWR_OUTPUT*%
X55790000Y-61500000D02*
X51750000Y-65540000D01*
X51750000Y-65540000D02*
X51750000Y-106687500D01*
X54565000Y-108775000D02*
X55790000Y-110000000D01*
X53837500Y-108775000D02*
X54565000Y-108775000D01*
X51750000Y-106687500D02*
X53837500Y-108775000D01*
%TO.N,/PWR_INPUT*%
X69750000Y-86000000D02*
X70750000Y-85000000D01*
X70750000Y-76000000D02*
X69250000Y-74500000D01*
X70750000Y-85000000D02*
X70750000Y-76000000D01*
%TD*%
%TA.AperFunction,Conductor*%
%TO.N,GND*%
G36*
X71941245Y-59770185D02*
G01*
X71987000Y-59822989D01*
X71998205Y-59875093D01*
X71969082Y-65961672D01*
X71949076Y-66028617D01*
X71932765Y-66048760D01*
X71796171Y-66185355D01*
X71680476Y-66344594D01*
X71591117Y-66519970D01*
X71530290Y-66707173D01*
X71499500Y-66901577D01*
X71499500Y-75497064D01*
X71479815Y-75564103D01*
X71427011Y-75609858D01*
X71357853Y-75619802D01*
X71294297Y-75590777D01*
X71279152Y-75573614D01*
X71278559Y-75574102D01*
X71274696Y-75569396D01*
X71274695Y-75569394D01*
X71180606Y-75475305D01*
X70686792Y-74981491D01*
X70653307Y-74920168D01*
X70654268Y-74863369D01*
X70685620Y-74739563D01*
X70694652Y-74630567D01*
X70705471Y-74500005D01*
X70705471Y-74499994D01*
X70685620Y-74260440D01*
X70685620Y-74260437D01*
X70626610Y-74027409D01*
X70530049Y-73807272D01*
X70477406Y-73726697D01*
X70398572Y-73606033D01*
X70398571Y-73606031D01*
X70389240Y-73595895D01*
X70358320Y-73533241D01*
X70366181Y-73463815D01*
X70410328Y-73409660D01*
X70437140Y-73395732D01*
X70442331Y-73393796D01*
X70557546Y-73307546D01*
X70643796Y-73192331D01*
X70694091Y-73057483D01*
X70700500Y-72997873D01*
X70700499Y-71002128D01*
X70694091Y-70942517D01*
X70672090Y-70883530D01*
X70643797Y-70807671D01*
X70643793Y-70807664D01*
X70557547Y-70692455D01*
X70557544Y-70692452D01*
X70442335Y-70606206D01*
X70442328Y-70606202D01*
X70307482Y-70555908D01*
X70307483Y-70555908D01*
X70247883Y-70549501D01*
X70247881Y-70549500D01*
X70247873Y-70549500D01*
X70247864Y-70549500D01*
X68252129Y-70549500D01*
X68252123Y-70549501D01*
X68192516Y-70555908D01*
X68057671Y-70606202D01*
X68057664Y-70606206D01*
X67942455Y-70692452D01*
X67942452Y-70692455D01*
X67856206Y-70807664D01*
X67856202Y-70807671D01*
X67805908Y-70942517D01*
X67799728Y-71000002D01*
X67799501Y-71002123D01*
X67799500Y-71002135D01*
X67799500Y-72997870D01*
X67799501Y-72997876D01*
X67805908Y-73057483D01*
X67856202Y-73192328D01*
X67856206Y-73192335D01*
X67942452Y-73307544D01*
X67942455Y-73307547D01*
X68057664Y-73393793D01*
X68057666Y-73393794D01*
X68057669Y-73393796D01*
X68062856Y-73395730D01*
X68118790Y-73437597D01*
X68143211Y-73503060D01*
X68128364Y-73571334D01*
X68110762Y-73595893D01*
X68101426Y-73606034D01*
X67969951Y-73807270D01*
X67873389Y-74027410D01*
X67814379Y-74260440D01*
X67794529Y-74499994D01*
X67794529Y-74500005D01*
X67814379Y-74739559D01*
X67873389Y-74972589D01*
X67969951Y-75192729D01*
X68050615Y-75316193D01*
X68101429Y-75393969D01*
X68264236Y-75570825D01*
X68368718Y-75652147D01*
X68409531Y-75708857D01*
X68413206Y-75778630D01*
X68378575Y-75839313D01*
X68368724Y-75847848D01*
X68323769Y-75882839D01*
X68264237Y-75929174D01*
X68101430Y-76106029D01*
X68101427Y-76106033D01*
X67969951Y-76307270D01*
X67873389Y-76527410D01*
X67814379Y-76760440D01*
X67794529Y-76999994D01*
X67794529Y-77000005D01*
X67814379Y-77239559D01*
X67873389Y-77472589D01*
X67969951Y-77692729D01*
X68050615Y-77816193D01*
X68101429Y-77893969D01*
X68264236Y-78070825D01*
X68264239Y-78070827D01*
X68264242Y-78070830D01*
X68453924Y-78218466D01*
X68453930Y-78218470D01*
X68453933Y-78218472D01*
X68665344Y-78332882D01*
X68665347Y-78332883D01*
X68892699Y-78410933D01*
X68892701Y-78410933D01*
X68892703Y-78410934D01*
X69129808Y-78450500D01*
X69129809Y-78450500D01*
X69370191Y-78450500D01*
X69370192Y-78450500D01*
X69607297Y-78410934D01*
X69834656Y-78332882D01*
X69891482Y-78302128D01*
X69959811Y-78287534D01*
X70025183Y-78312197D01*
X70066844Y-78368287D01*
X70074500Y-78411184D01*
X70074500Y-83625500D01*
X70054815Y-83692539D01*
X70002011Y-83738294D01*
X69950500Y-83749500D01*
X67952129Y-83749500D01*
X67952123Y-83749501D01*
X67892516Y-83755908D01*
X67757671Y-83806202D01*
X67757664Y-83806206D01*
X67642455Y-83892452D01*
X67642452Y-83892455D01*
X67556206Y-84007664D01*
X67556202Y-84007671D01*
X67505908Y-84142517D01*
X67499501Y-84202116D01*
X67499500Y-84202135D01*
X67499500Y-87797870D01*
X67499501Y-87797876D01*
X67505908Y-87857483D01*
X67556202Y-87992328D01*
X67556206Y-87992335D01*
X67642452Y-88107544D01*
X67642455Y-88107547D01*
X67757664Y-88193793D01*
X67757673Y-88193798D01*
X67806506Y-88212011D01*
X67862440Y-88253881D01*
X67886858Y-88319345D01*
X67872007Y-88387618D01*
X67822603Y-88437024D01*
X67756598Y-88452018D01*
X67718625Y-88450001D01*
X67718579Y-88450000D01*
X67000000Y-88450000D01*
X67000000Y-90200000D01*
X66500000Y-90200000D01*
X66500000Y-88450000D01*
X65781423Y-88450000D01*
X65781411Y-88450001D01*
X65728808Y-88452794D01*
X65499012Y-88497237D01*
X65280024Y-88579879D01*
X65078158Y-88698339D01*
X65078151Y-88698344D01*
X64899213Y-88849211D01*
X64899211Y-88849213D01*
X64748344Y-89028151D01*
X64748339Y-89028158D01*
X64629879Y-89230024D01*
X64547237Y-89449012D01*
X64502794Y-89678808D01*
X64502794Y-89678809D01*
X64500001Y-89731382D01*
X64500000Y-89731421D01*
X64500000Y-90450000D01*
X65316988Y-90450000D01*
X65284075Y-90507007D01*
X65250000Y-90634174D01*
X65250000Y-90765826D01*
X65284075Y-90892993D01*
X65316988Y-90950000D01*
X64500000Y-90950000D01*
X64500000Y-91245337D01*
X64480315Y-91312377D01*
X64427511Y-91358132D01*
X64358353Y-91368075D01*
X64294797Y-91339050D01*
X64288319Y-91333018D01*
X59041819Y-86086518D01*
X59008334Y-86025195D01*
X59005500Y-85998837D01*
X59005500Y-84935803D01*
X61750000Y-84935803D01*
X61750000Y-85750000D01*
X63250000Y-85750000D01*
X63250000Y-86250000D01*
X61750001Y-86250000D01*
X61750001Y-87064197D01*
X61760400Y-87196332D01*
X61815377Y-87414519D01*
X61908428Y-87619374D01*
X61908431Y-87619380D01*
X62036559Y-87804323D01*
X62036569Y-87804335D01*
X62195664Y-87963430D01*
X62195676Y-87963440D01*
X62380619Y-88091568D01*
X62380625Y-88091571D01*
X62585480Y-88184622D01*
X62803667Y-88239599D01*
X62935810Y-88249999D01*
X63499999Y-88249999D01*
X63500000Y-88249998D01*
X63500000Y-87433012D01*
X63557007Y-87465925D01*
X63684174Y-87500000D01*
X63815826Y-87500000D01*
X63942993Y-87465925D01*
X64000000Y-87433012D01*
X64000000Y-88249999D01*
X64564182Y-88249999D01*
X64564197Y-88249998D01*
X64696332Y-88239599D01*
X64914519Y-88184622D01*
X65119374Y-88091571D01*
X65119380Y-88091568D01*
X65304323Y-87963440D01*
X65304335Y-87963430D01*
X65463430Y-87804335D01*
X65463440Y-87804323D01*
X65591568Y-87619380D01*
X65591571Y-87619374D01*
X65684622Y-87414519D01*
X65739599Y-87196332D01*
X65749999Y-87064196D01*
X65750000Y-87064184D01*
X65750000Y-86250000D01*
X64250000Y-86250000D01*
X64250000Y-85750000D01*
X65749999Y-85750000D01*
X65749999Y-84935817D01*
X65749998Y-84935802D01*
X65739599Y-84803667D01*
X65684622Y-84585480D01*
X65591571Y-84380625D01*
X65591568Y-84380619D01*
X65463440Y-84195676D01*
X65463430Y-84195664D01*
X65304335Y-84036569D01*
X65304323Y-84036559D01*
X65119380Y-83908431D01*
X65119374Y-83908428D01*
X64914519Y-83815377D01*
X64696332Y-83760400D01*
X64564196Y-83750000D01*
X64000000Y-83750000D01*
X64000000Y-84566988D01*
X63942993Y-84534075D01*
X63815826Y-84500000D01*
X63684174Y-84500000D01*
X63557007Y-84534075D01*
X63500000Y-84566988D01*
X63500000Y-83750000D01*
X62935817Y-83750000D01*
X62935802Y-83750001D01*
X62803667Y-83760400D01*
X62585480Y-83815377D01*
X62380625Y-83908428D01*
X62380619Y-83908431D01*
X62195676Y-84036559D01*
X62195664Y-84036569D01*
X62036569Y-84195664D01*
X62036559Y-84195676D01*
X61908431Y-84380619D01*
X61908428Y-84380625D01*
X61815377Y-84585480D01*
X61760400Y-84803667D01*
X61750000Y-84935803D01*
X59005500Y-84935803D01*
X59005500Y-84000500D01*
X60748500Y-84000500D01*
X60984962Y-84000500D01*
X61009038Y-83947494D01*
X61011453Y-83942478D01*
X61026737Y-83912483D01*
X61029372Y-83907587D01*
X61051481Y-83868621D01*
X61054336Y-83863842D01*
X61072247Y-83835337D01*
X61075313Y-83830693D01*
X61228970Y-83608901D01*
X61232242Y-83604397D01*
X61252650Y-83577595D01*
X61256123Y-83573241D01*
X61284838Y-83538850D01*
X61288497Y-83534661D01*
X61311198Y-83509827D01*
X61315041Y-83505809D01*
X61505809Y-83315041D01*
X61509827Y-83311198D01*
X61534661Y-83288497D01*
X61538850Y-83284838D01*
X61573241Y-83256123D01*
X61577595Y-83252650D01*
X61604397Y-83232242D01*
X61608901Y-83228970D01*
X61751501Y-83130177D01*
X65748500Y-83130177D01*
X65891099Y-83228970D01*
X65895603Y-83232242D01*
X65922405Y-83252650D01*
X65926759Y-83256123D01*
X65961150Y-83284838D01*
X65965339Y-83288497D01*
X65990173Y-83311198D01*
X65994191Y-83315041D01*
X66184959Y-83505809D01*
X66188802Y-83509827D01*
X66211503Y-83534661D01*
X66215162Y-83538850D01*
X66243877Y-83573241D01*
X66247350Y-83577595D01*
X66267758Y-83604397D01*
X66271030Y-83608901D01*
X66424687Y-83830693D01*
X66427753Y-83835337D01*
X66445664Y-83863842D01*
X66448519Y-83868621D01*
X66470628Y-83907587D01*
X66473263Y-83912483D01*
X66488547Y-83942478D01*
X66490962Y-83947494D01*
X66515038Y-84000500D01*
X66517564Y-84000500D01*
X66518029Y-83997157D01*
X66525936Y-83950971D01*
X66527481Y-83943381D01*
X66541826Y-83882670D01*
X66543842Y-83875191D01*
X66557450Y-83830328D01*
X66559929Y-83822988D01*
X66633587Y-83625498D01*
X66636975Y-83617318D01*
X66659233Y-83568581D01*
X66663195Y-83560667D01*
X66697372Y-83498077D01*
X66701890Y-83490463D01*
X66730854Y-83445396D01*
X66735902Y-83438126D01*
X66864886Y-83265827D01*
X66870439Y-83258936D01*
X66905519Y-83218451D01*
X66911551Y-83211972D01*
X66961972Y-83161551D01*
X66968451Y-83155519D01*
X67008936Y-83120439D01*
X67015827Y-83114886D01*
X67188126Y-82985902D01*
X67195396Y-82980854D01*
X67240463Y-82951890D01*
X67248077Y-82947372D01*
X67250500Y-82946048D01*
X67250500Y-82498500D01*
X65748500Y-82498500D01*
X65748500Y-83130177D01*
X61751501Y-83130177D01*
X61830693Y-83075313D01*
X61835337Y-83072247D01*
X61863842Y-83054336D01*
X61868621Y-83051481D01*
X61907587Y-83029372D01*
X61912483Y-83026737D01*
X61942478Y-83011453D01*
X61947494Y-83009038D01*
X62193142Y-82897459D01*
X62198258Y-82895272D01*
X62229494Y-82882742D01*
X62234702Y-82880787D01*
X62250500Y-82875258D01*
X62250500Y-82498500D01*
X60748500Y-82498500D01*
X60748500Y-84000500D01*
X59005500Y-84000500D01*
X59005500Y-81500500D01*
X60748500Y-81500500D01*
X62250500Y-81500500D01*
X63248500Y-81500500D01*
X64750500Y-81500500D01*
X65748500Y-81500500D01*
X67250500Y-81500500D01*
X68248500Y-81500500D01*
X69076500Y-81500500D01*
X69076500Y-79998500D01*
X68248500Y-79998500D01*
X68248500Y-81500500D01*
X67250500Y-81500500D01*
X67250500Y-79998500D01*
X65748500Y-79998500D01*
X65748500Y-81500500D01*
X64750500Y-81500500D01*
X64750500Y-79998500D01*
X63248500Y-79998500D01*
X63248500Y-81500500D01*
X62250500Y-81500500D01*
X62250500Y-79998500D01*
X60748500Y-79998500D01*
X60748500Y-81500500D01*
X59005500Y-81500500D01*
X59005500Y-79000500D01*
X60748500Y-79000500D01*
X62250500Y-79000500D01*
X63248500Y-79000500D01*
X64750500Y-79000500D01*
X65748500Y-79000500D01*
X67250500Y-79000500D01*
X67250500Y-78416193D01*
X67123177Y-78221314D01*
X67120463Y-78216967D01*
X67104591Y-78190331D01*
X67102059Y-78185875D01*
X67082418Y-78149583D01*
X67080070Y-78145021D01*
X67066451Y-78117161D01*
X67064297Y-78112514D01*
X66951164Y-77854597D01*
X66949203Y-77849863D01*
X66937940Y-77820999D01*
X66936178Y-77816193D01*
X66922777Y-77777165D01*
X66921212Y-77772280D01*
X66912357Y-77742540D01*
X66910995Y-77737595D01*
X66850448Y-77498500D01*
X65748500Y-77498500D01*
X65748500Y-79000500D01*
X64750500Y-79000500D01*
X64750500Y-77498500D01*
X63248500Y-77498500D01*
X63248500Y-79000500D01*
X62250500Y-79000500D01*
X62250500Y-77498500D01*
X60748500Y-77498500D01*
X60748500Y-79000500D01*
X59005500Y-79000500D01*
X59005500Y-76500500D01*
X60748500Y-76500500D01*
X62250500Y-76500500D01*
X62250500Y-75745205D01*
X63248500Y-75745205D01*
X63248500Y-76500500D01*
X64750500Y-76500500D01*
X65748500Y-76500500D01*
X66850701Y-76500500D01*
X66910995Y-76262405D01*
X66912357Y-76257460D01*
X66921212Y-76227720D01*
X66922777Y-76222835D01*
X66936178Y-76183807D01*
X66937940Y-76179001D01*
X66949203Y-76150137D01*
X66951164Y-76145403D01*
X67064297Y-75887486D01*
X67066451Y-75882839D01*
X67080070Y-75854979D01*
X67082418Y-75850417D01*
X67102059Y-75814125D01*
X67104591Y-75809669D01*
X67120463Y-75783033D01*
X67123176Y-75778686D01*
X67141917Y-75750000D01*
X67123176Y-75721314D01*
X67120463Y-75716967D01*
X67104591Y-75690331D01*
X67102059Y-75685875D01*
X67082418Y-75649583D01*
X67080070Y-75645021D01*
X67066451Y-75617161D01*
X67064297Y-75612514D01*
X66951164Y-75354597D01*
X66949203Y-75349863D01*
X66937940Y-75320999D01*
X66936178Y-75316193D01*
X66922777Y-75277165D01*
X66921212Y-75272280D01*
X66912357Y-75242540D01*
X66910995Y-75237595D01*
X66850448Y-74998500D01*
X65748500Y-74998500D01*
X65748500Y-76500500D01*
X64750500Y-76500500D01*
X64750500Y-75569573D01*
X64598541Y-75640433D01*
X64593592Y-75642611D01*
X64563371Y-75655130D01*
X64558333Y-75657089D01*
X64517401Y-75671990D01*
X64512273Y-75673731D01*
X64481038Y-75683580D01*
X64475841Y-75685095D01*
X64213951Y-75755267D01*
X64208696Y-75756553D01*
X64176737Y-75763638D01*
X64171430Y-75764693D01*
X64128535Y-75772256D01*
X64123188Y-75773079D01*
X64090744Y-75777350D01*
X64085367Y-75777939D01*
X63815286Y-75801568D01*
X63809889Y-75801922D01*
X63777189Y-75803350D01*
X63771779Y-75803468D01*
X63728221Y-75803468D01*
X63722811Y-75803350D01*
X63690111Y-75801922D01*
X63684714Y-75801568D01*
X63414633Y-75777939D01*
X63409256Y-75777350D01*
X63376812Y-75773079D01*
X63371465Y-75772256D01*
X63328570Y-75764693D01*
X63323263Y-75763638D01*
X63291304Y-75756553D01*
X63286049Y-75755267D01*
X63248500Y-75745205D01*
X62250500Y-75745205D01*
X62250500Y-75248652D01*
X62248619Y-75247003D01*
X62224481Y-75224885D01*
X62220572Y-75221143D01*
X62028857Y-75029428D01*
X62025115Y-75025519D01*
X62002997Y-75001381D01*
X62000470Y-74998500D01*
X60748500Y-74998500D01*
X60748500Y-76500500D01*
X59005500Y-76500500D01*
X59005500Y-74000500D01*
X60748500Y-74000500D01*
X61504526Y-74000500D01*
X61494733Y-73963951D01*
X61493447Y-73958696D01*
X61486362Y-73926737D01*
X61485307Y-73921430D01*
X61477744Y-73878535D01*
X61476921Y-73873188D01*
X61472650Y-73840744D01*
X61472061Y-73835367D01*
X61448432Y-73565286D01*
X61448078Y-73559889D01*
X61446650Y-73527189D01*
X61446532Y-73521779D01*
X61446532Y-73499998D01*
X62444532Y-73499998D01*
X62444532Y-73500001D01*
X62464364Y-73726686D01*
X62464366Y-73726697D01*
X62523258Y-73946488D01*
X62523261Y-73946497D01*
X62619431Y-74152732D01*
X62619432Y-74152734D01*
X62749954Y-74339141D01*
X62910858Y-74500045D01*
X62910861Y-74500047D01*
X63097266Y-74630568D01*
X63303504Y-74726739D01*
X63303509Y-74726740D01*
X63303511Y-74726741D01*
X63356415Y-74740916D01*
X63523308Y-74785635D01*
X63685230Y-74799801D01*
X63749998Y-74805468D01*
X63750000Y-74805468D01*
X63750002Y-74805468D01*
X63806673Y-74800509D01*
X63976692Y-74785635D01*
X64196496Y-74726739D01*
X64402734Y-74630568D01*
X64589139Y-74500047D01*
X64750047Y-74339139D01*
X64880568Y-74152734D01*
X64976739Y-73946496D01*
X65035635Y-73726692D01*
X65055468Y-73500000D01*
X65035635Y-73273308D01*
X64976739Y-73053504D01*
X64880568Y-72847266D01*
X64750047Y-72660861D01*
X64750045Y-72660858D01*
X64589141Y-72499954D01*
X64587064Y-72498500D01*
X65819107Y-72498500D01*
X65890433Y-72651459D01*
X65892611Y-72656408D01*
X65905130Y-72686629D01*
X65907089Y-72691667D01*
X65921990Y-72732599D01*
X65923731Y-72737727D01*
X65933580Y-72768962D01*
X65935095Y-72774159D01*
X66005267Y-73036049D01*
X66006553Y-73041304D01*
X66013638Y-73073263D01*
X66014693Y-73078570D01*
X66022256Y-73121465D01*
X66023079Y-73126812D01*
X66027350Y-73159256D01*
X66027939Y-73164633D01*
X66051568Y-73434714D01*
X66051922Y-73440111D01*
X66053350Y-73472811D01*
X66053468Y-73478221D01*
X66053468Y-73521779D01*
X66053350Y-73527189D01*
X66051922Y-73559889D01*
X66051568Y-73565286D01*
X66027939Y-73835367D01*
X66027350Y-73840744D01*
X66023079Y-73873188D01*
X66022256Y-73878535D01*
X66014693Y-73921430D01*
X66013638Y-73926737D01*
X66006553Y-73958696D01*
X66005267Y-73963951D01*
X65995474Y-74000500D01*
X66850701Y-74000500D01*
X66910995Y-73762405D01*
X66912357Y-73757460D01*
X66921212Y-73727720D01*
X66922777Y-73722835D01*
X66936178Y-73683807D01*
X66937940Y-73679001D01*
X66949203Y-73650137D01*
X66951164Y-73645404D01*
X66958246Y-73629258D01*
X66936975Y-73582682D01*
X66933587Y-73574502D01*
X66859931Y-73377018D01*
X66857452Y-73369679D01*
X66843847Y-73324828D01*
X66841832Y-73317352D01*
X66827484Y-73256637D01*
X66825939Y-73249045D01*
X66818028Y-73202840D01*
X66816959Y-73195167D01*
X66805788Y-73091244D01*
X66805478Y-73087939D01*
X66803865Y-73067899D01*
X66803642Y-73064578D01*
X66802214Y-73037895D01*
X66802081Y-73034582D01*
X66801545Y-73014534D01*
X66801501Y-73011220D01*
X66801501Y-72498500D01*
X65819107Y-72498500D01*
X64587064Y-72498500D01*
X64402734Y-72369432D01*
X64402730Y-72369430D01*
X64387022Y-72362105D01*
X64334583Y-72315931D01*
X64315433Y-72248737D01*
X64335650Y-72181857D01*
X64387028Y-72137340D01*
X64402481Y-72130134D01*
X64475471Y-72079024D01*
X63796447Y-71400000D01*
X63802661Y-71400000D01*
X63904394Y-71372741D01*
X63995606Y-71320080D01*
X64070080Y-71245606D01*
X64122741Y-71154394D01*
X64150000Y-71052661D01*
X64150000Y-71046447D01*
X64829024Y-71725471D01*
X64880136Y-71652478D01*
X64976264Y-71446331D01*
X64976269Y-71446317D01*
X65035139Y-71226610D01*
X65035141Y-71226599D01*
X65054966Y-71000002D01*
X65054966Y-70999997D01*
X65035141Y-70773400D01*
X65035139Y-70773389D01*
X64976269Y-70553682D01*
X64976264Y-70553668D01*
X64880136Y-70347521D01*
X64880132Y-70347513D01*
X64829025Y-70274526D01*
X64150000Y-70953551D01*
X64150000Y-70947339D01*
X64122741Y-70845606D01*
X64070080Y-70754394D01*
X63995606Y-70679920D01*
X63904394Y-70627259D01*
X63802661Y-70600000D01*
X63796445Y-70600000D01*
X64397946Y-69998500D01*
X65818555Y-69998500D01*
X65889962Y-70151633D01*
X65892139Y-70156580D01*
X65904658Y-70186800D01*
X65906619Y-70191842D01*
X65921518Y-70232772D01*
X65923258Y-70237896D01*
X65933107Y-70269130D01*
X65934622Y-70274327D01*
X66004773Y-70536134D01*
X66006059Y-70541390D01*
X66013144Y-70573349D01*
X66014200Y-70578657D01*
X66021763Y-70621553D01*
X66022585Y-70626899D01*
X66026856Y-70659344D01*
X66027445Y-70664721D01*
X66051066Y-70934715D01*
X66051420Y-70940112D01*
X66052848Y-70972811D01*
X66052966Y-70978221D01*
X66052966Y-71021779D01*
X66052848Y-71027189D01*
X66051420Y-71059888D01*
X66051066Y-71065285D01*
X66027445Y-71335279D01*
X66026856Y-71340656D01*
X66022585Y-71373101D01*
X66021763Y-71378447D01*
X66014200Y-71421343D01*
X66013144Y-71426651D01*
X66006059Y-71458610D01*
X66004773Y-71463865D01*
X65994957Y-71500500D01*
X66801500Y-71500500D01*
X66801500Y-70988752D01*
X66801545Y-70985428D01*
X66802084Y-70965326D01*
X66802217Y-70962006D01*
X66803649Y-70935320D01*
X66803871Y-70932011D01*
X66805481Y-70912018D01*
X66805792Y-70908715D01*
X66816962Y-70804825D01*
X66818029Y-70797157D01*
X66825936Y-70750971D01*
X66827481Y-70743381D01*
X66841826Y-70682670D01*
X66843842Y-70675191D01*
X66857450Y-70630328D01*
X66859929Y-70622988D01*
X66933587Y-70425498D01*
X66936975Y-70417318D01*
X66959233Y-70368581D01*
X66963195Y-70360667D01*
X66997372Y-70298077D01*
X67001890Y-70290463D01*
X67030854Y-70245396D01*
X67035902Y-70238126D01*
X67164886Y-70065827D01*
X67170439Y-70058936D01*
X67205519Y-70018451D01*
X67211551Y-70011972D01*
X67225023Y-69998500D01*
X65818555Y-69998500D01*
X64397946Y-69998500D01*
X64475472Y-69920974D01*
X64402478Y-69869863D01*
X64196331Y-69773735D01*
X64196317Y-69773730D01*
X63976610Y-69714860D01*
X63976599Y-69714858D01*
X63750002Y-69695034D01*
X63749998Y-69695034D01*
X63523400Y-69714858D01*
X63523389Y-69714860D01*
X63303682Y-69773730D01*
X63303673Y-69773734D01*
X63097516Y-69869866D01*
X63097512Y-69869868D01*
X63024526Y-69920973D01*
X63024526Y-69920974D01*
X63703553Y-70600000D01*
X63697339Y-70600000D01*
X63595606Y-70627259D01*
X63504394Y-70679920D01*
X63429920Y-70754394D01*
X63377259Y-70845606D01*
X63350000Y-70947339D01*
X63350000Y-70953552D01*
X62670974Y-70274526D01*
X62670973Y-70274526D01*
X62619868Y-70347512D01*
X62619866Y-70347516D01*
X62523734Y-70553673D01*
X62523730Y-70553682D01*
X62464860Y-70773389D01*
X62464858Y-70773400D01*
X62445034Y-70999997D01*
X62445034Y-71000002D01*
X62464858Y-71226599D01*
X62464860Y-71226610D01*
X62523730Y-71446317D01*
X62523735Y-71446331D01*
X62619863Y-71652478D01*
X62670974Y-71725472D01*
X63350000Y-71046446D01*
X63350000Y-71052661D01*
X63377259Y-71154394D01*
X63429920Y-71245606D01*
X63504394Y-71320080D01*
X63595606Y-71372741D01*
X63697339Y-71400000D01*
X63703553Y-71400000D01*
X63024526Y-72079025D01*
X63097513Y-72130132D01*
X63097515Y-72130133D01*
X63112973Y-72137341D01*
X63165413Y-72183513D01*
X63184566Y-72250706D01*
X63164351Y-72317587D01*
X63112979Y-72362104D01*
X63097270Y-72369429D01*
X63097265Y-72369432D01*
X62910858Y-72499954D01*
X62749954Y-72660858D01*
X62619432Y-72847265D01*
X62619431Y-72847267D01*
X62523261Y-73053502D01*
X62523258Y-73053511D01*
X62464366Y-73273302D01*
X62464364Y-73273313D01*
X62444532Y-73499998D01*
X61446532Y-73499998D01*
X61446532Y-73478221D01*
X61446650Y-73472811D01*
X61448078Y-73440111D01*
X61448432Y-73434714D01*
X61472061Y-73164633D01*
X61472650Y-73159256D01*
X61476921Y-73126812D01*
X61477744Y-73121465D01*
X61485307Y-73078570D01*
X61486362Y-73073263D01*
X61493447Y-73041304D01*
X61494733Y-73036049D01*
X61564905Y-72774159D01*
X61566420Y-72768962D01*
X61576269Y-72737727D01*
X61578010Y-72732599D01*
X61592911Y-72691667D01*
X61594870Y-72686629D01*
X61607389Y-72656408D01*
X61609567Y-72651459D01*
X61680893Y-72498500D01*
X60748500Y-72498500D01*
X60748500Y-74000500D01*
X59005500Y-74000500D01*
X59005500Y-73160042D01*
X59025185Y-73093003D01*
X59073204Y-73049558D01*
X59091538Y-73040217D01*
X59276566Y-72905786D01*
X59438286Y-72744066D01*
X59572717Y-72559038D01*
X59676548Y-72355258D01*
X59747222Y-72137745D01*
X59783000Y-71911854D01*
X59783000Y-71588146D01*
X59747222Y-71362255D01*
X59747221Y-71362251D01*
X59747221Y-71362250D01*
X59728427Y-71304409D01*
X60748500Y-71304409D01*
X60771777Y-71451373D01*
X60772445Y-71456197D01*
X60775905Y-71485431D01*
X60776381Y-71490268D01*
X60777187Y-71500500D01*
X61505043Y-71500500D01*
X61495227Y-71463865D01*
X61493941Y-71458610D01*
X61486856Y-71426651D01*
X61485800Y-71421343D01*
X61478237Y-71378447D01*
X61477415Y-71373101D01*
X61473144Y-71340656D01*
X61472555Y-71335279D01*
X61448934Y-71065285D01*
X61448580Y-71059888D01*
X61447152Y-71027189D01*
X61447034Y-71021779D01*
X61447034Y-70978221D01*
X61447152Y-70972811D01*
X61448580Y-70940112D01*
X61448934Y-70934715D01*
X61472555Y-70664721D01*
X61473144Y-70659344D01*
X61477415Y-70626899D01*
X61478237Y-70621553D01*
X61485800Y-70578657D01*
X61486856Y-70573349D01*
X61493941Y-70541390D01*
X61495227Y-70536134D01*
X61565378Y-70274327D01*
X61566893Y-70269130D01*
X61576742Y-70237896D01*
X61578482Y-70232771D01*
X61593382Y-70191840D01*
X61595342Y-70186802D01*
X61607860Y-70156582D01*
X61610038Y-70151631D01*
X61681444Y-69998500D01*
X60748500Y-69998500D01*
X60748500Y-71304409D01*
X59728427Y-71304409D01*
X59676549Y-71144744D01*
X59676548Y-71144742D01*
X59572717Y-70940962D01*
X59438286Y-70755934D01*
X59276566Y-70594214D01*
X59091538Y-70459783D01*
X59008196Y-70417318D01*
X58887755Y-70355950D01*
X58670248Y-70285278D01*
X58484812Y-70255908D01*
X58444354Y-70249500D01*
X58215646Y-70249500D01*
X58175188Y-70255908D01*
X57989753Y-70285278D01*
X57989750Y-70285278D01*
X57772244Y-70355950D01*
X57568461Y-70459783D01*
X57463525Y-70536024D01*
X57383434Y-70594214D01*
X57383432Y-70594216D01*
X57383431Y-70594216D01*
X57221716Y-70755931D01*
X57221709Y-70755940D01*
X57160007Y-70840864D01*
X57104677Y-70883530D01*
X57035063Y-70889508D01*
X56973269Y-70856901D01*
X56959372Y-70840863D01*
X56897907Y-70756263D01*
X56897902Y-70756257D01*
X56736242Y-70594597D01*
X56551276Y-70460211D01*
X56347568Y-70356417D01*
X56130124Y-70285765D01*
X56040000Y-70271490D01*
X56040000Y-71259252D01*
X56002292Y-71237482D01*
X55862409Y-71200000D01*
X55717591Y-71200000D01*
X55577708Y-71237482D01*
X55540000Y-71259252D01*
X55540000Y-70271490D01*
X55539999Y-70271490D01*
X55449875Y-70285765D01*
X55232431Y-70356417D01*
X55028719Y-70460213D01*
X54845939Y-70593010D01*
X54780132Y-70616490D01*
X54712079Y-70600664D01*
X54663384Y-70550558D01*
X54656875Y-70536033D01*
X54646296Y-70507669D01*
X54646295Y-70507667D01*
X54646293Y-70507664D01*
X54560047Y-70392455D01*
X54560044Y-70392452D01*
X54444835Y-70306206D01*
X54444828Y-70306202D01*
X54309982Y-70255908D01*
X54309983Y-70255908D01*
X54250383Y-70249501D01*
X54250381Y-70249500D01*
X54250373Y-70249500D01*
X54250365Y-70249500D01*
X52549500Y-70249500D01*
X52482461Y-70229815D01*
X52436706Y-70177011D01*
X52425500Y-70125500D01*
X52425500Y-68225110D01*
X53423500Y-68225110D01*
X53423500Y-69000500D01*
X54750500Y-69000500D01*
X55748500Y-69000500D01*
X57250500Y-69000500D01*
X57250500Y-68176917D01*
X57230870Y-68183107D01*
X57225673Y-68184622D01*
X56963866Y-68254773D01*
X56958610Y-68256059D01*
X56926651Y-68263144D01*
X56921343Y-68264200D01*
X56878447Y-68271763D01*
X56873101Y-68272585D01*
X56840656Y-68276856D01*
X56835279Y-68277445D01*
X56565285Y-68301066D01*
X56559888Y-68301420D01*
X56527189Y-68302848D01*
X56521779Y-68302966D01*
X56478221Y-68302966D01*
X56472811Y-68302848D01*
X56440112Y-68301420D01*
X56434715Y-68301066D01*
X56164721Y-68277445D01*
X56159344Y-68276856D01*
X56126899Y-68272585D01*
X56121553Y-68271763D01*
X56078657Y-68264200D01*
X56073349Y-68263144D01*
X56041390Y-68256059D01*
X56036134Y-68254773D01*
X55774327Y-68184622D01*
X55769130Y-68183107D01*
X55748500Y-68176601D01*
X55748500Y-69000500D01*
X54750500Y-69000500D01*
X54750500Y-68177443D01*
X54731038Y-68183580D01*
X54725841Y-68185095D01*
X54463951Y-68255267D01*
X54458696Y-68256553D01*
X54426737Y-68263638D01*
X54421430Y-68264693D01*
X54378535Y-68272256D01*
X54373188Y-68273079D01*
X54340744Y-68277350D01*
X54335367Y-68277939D01*
X54065286Y-68301568D01*
X54059889Y-68301922D01*
X54027189Y-68303350D01*
X54021779Y-68303468D01*
X53978221Y-68303468D01*
X53972811Y-68303350D01*
X53940111Y-68301922D01*
X53934714Y-68301568D01*
X53664633Y-68277939D01*
X53659256Y-68277350D01*
X53626812Y-68273079D01*
X53621465Y-68272256D01*
X53578570Y-68264693D01*
X53573263Y-68263638D01*
X53541304Y-68256553D01*
X53536049Y-68255267D01*
X53423500Y-68225110D01*
X52425500Y-68225110D01*
X52425500Y-67499339D01*
X58248500Y-67499339D01*
X58248500Y-69000500D01*
X59750500Y-69000500D01*
X60748500Y-69000500D01*
X62250500Y-69000500D01*
X65748500Y-69000500D01*
X67250500Y-69000500D01*
X68248500Y-69000500D01*
X69750500Y-69000500D01*
X69750500Y-67498500D01*
X68248500Y-67498500D01*
X68248500Y-69000500D01*
X67250500Y-69000500D01*
X67250500Y-67498500D01*
X65748500Y-67498500D01*
X65748500Y-69000500D01*
X62250500Y-69000500D01*
X62250500Y-68755311D01*
X63248500Y-68755311D01*
X63286135Y-68745227D01*
X63291390Y-68743941D01*
X63323349Y-68736856D01*
X63328657Y-68735800D01*
X63371553Y-68728237D01*
X63376899Y-68727415D01*
X63409344Y-68723144D01*
X63414721Y-68722555D01*
X63684715Y-68698934D01*
X63690112Y-68698580D01*
X63722811Y-68697152D01*
X63728221Y-68697034D01*
X63771779Y-68697034D01*
X63777189Y-68697152D01*
X63809888Y-68698580D01*
X63815285Y-68698934D01*
X64085279Y-68722555D01*
X64090656Y-68723144D01*
X64123101Y-68727415D01*
X64128447Y-68728237D01*
X64171343Y-68735800D01*
X64176651Y-68736856D01*
X64208610Y-68743941D01*
X64213866Y-68745227D01*
X64475673Y-68815378D01*
X64480870Y-68816893D01*
X64512104Y-68826742D01*
X64517228Y-68828482D01*
X64558158Y-68843381D01*
X64563200Y-68845342D01*
X64593420Y-68857861D01*
X64598367Y-68860038D01*
X64750500Y-68930978D01*
X64750500Y-67498500D01*
X63248500Y-67498500D01*
X63248500Y-68755311D01*
X62250500Y-68755311D01*
X62250500Y-67498500D01*
X60748500Y-67498500D01*
X60748500Y-69000500D01*
X59750500Y-69000500D01*
X59750500Y-67498500D01*
X58249416Y-67498500D01*
X58248500Y-67499339D01*
X52425500Y-67499339D01*
X52425500Y-65871162D01*
X52445185Y-65804123D01*
X52461815Y-65783485D01*
X52496702Y-65748598D01*
X52558024Y-65715114D01*
X52627716Y-65720098D01*
X52683649Y-65761970D01*
X52708066Y-65827434D01*
X52707910Y-65847087D01*
X52694532Y-65999998D01*
X52694532Y-66000001D01*
X52714364Y-66226686D01*
X52714366Y-66226697D01*
X52773258Y-66446488D01*
X52773261Y-66446497D01*
X52869431Y-66652732D01*
X52869432Y-66652734D01*
X52999954Y-66839141D01*
X53160858Y-67000045D01*
X53160861Y-67000047D01*
X53347266Y-67130568D01*
X53553504Y-67226739D01*
X53773308Y-67285635D01*
X53935230Y-67299801D01*
X53999998Y-67305468D01*
X54000000Y-67305468D01*
X54000002Y-67305468D01*
X54056673Y-67300509D01*
X54226692Y-67285635D01*
X54446496Y-67226739D01*
X54652734Y-67130568D01*
X54839139Y-67000047D01*
X55000047Y-66839139D01*
X55130568Y-66652734D01*
X55137893Y-66637024D01*
X55184064Y-66584586D01*
X55251257Y-66565433D01*
X55318138Y-66585648D01*
X55362657Y-66637024D01*
X55369864Y-66652480D01*
X55420974Y-66725472D01*
X56100000Y-66046446D01*
X56100000Y-66052661D01*
X56127259Y-66154394D01*
X56179920Y-66245606D01*
X56254394Y-66320080D01*
X56345606Y-66372741D01*
X56447339Y-66400000D01*
X56453553Y-66400000D01*
X55774526Y-67079025D01*
X55847513Y-67130132D01*
X55847521Y-67130136D01*
X56053668Y-67226264D01*
X56053682Y-67226269D01*
X56273389Y-67285139D01*
X56273400Y-67285141D01*
X56499998Y-67304966D01*
X56500002Y-67304966D01*
X56726599Y-67285141D01*
X56726610Y-67285139D01*
X56946317Y-67226269D01*
X56946331Y-67226264D01*
X57152478Y-67130136D01*
X57225471Y-67079024D01*
X56546447Y-66400000D01*
X56552661Y-66400000D01*
X56654394Y-66372741D01*
X56745606Y-66320080D01*
X56820080Y-66245606D01*
X56872741Y-66154394D01*
X56900000Y-66052661D01*
X56900000Y-66046447D01*
X57579024Y-66725471D01*
X57630136Y-66652478D01*
X57726264Y-66446331D01*
X57726269Y-66446317D01*
X57785139Y-66226610D01*
X57785141Y-66226599D01*
X57804966Y-66000002D01*
X57804966Y-65999997D01*
X57785141Y-65773400D01*
X57785139Y-65773389D01*
X57726269Y-65553682D01*
X57726264Y-65553668D01*
X57630136Y-65347521D01*
X57630132Y-65347513D01*
X57579025Y-65274526D01*
X56900000Y-65953551D01*
X56900000Y-65947339D01*
X56872741Y-65845606D01*
X56820080Y-65754394D01*
X56745606Y-65679920D01*
X56654394Y-65627259D01*
X56552661Y-65600000D01*
X56546445Y-65600000D01*
X57147946Y-64998500D01*
X58568555Y-64998500D01*
X58639962Y-65151633D01*
X58642139Y-65156580D01*
X58654658Y-65186800D01*
X58656619Y-65191842D01*
X58671518Y-65232772D01*
X58673258Y-65237896D01*
X58683107Y-65269130D01*
X58684622Y-65274327D01*
X58754773Y-65536134D01*
X58756059Y-65541390D01*
X58763144Y-65573349D01*
X58764200Y-65578657D01*
X58771763Y-65621553D01*
X58772585Y-65626899D01*
X58776856Y-65659344D01*
X58777445Y-65664721D01*
X58801066Y-65934715D01*
X58801420Y-65940112D01*
X58802848Y-65972811D01*
X58802966Y-65978221D01*
X58802966Y-66021779D01*
X58802848Y-66027189D01*
X58801420Y-66059888D01*
X58801066Y-66065285D01*
X58777445Y-66335279D01*
X58776856Y-66340656D01*
X58772585Y-66373101D01*
X58771763Y-66378447D01*
X58764200Y-66421343D01*
X58763144Y-66426651D01*
X58756059Y-66458610D01*
X58754773Y-66463865D01*
X58744957Y-66500500D01*
X59750500Y-66500500D01*
X65999205Y-66500500D01*
X67250500Y-66500500D01*
X67250500Y-66347608D01*
X67171747Y-66304606D01*
X67167898Y-66302414D01*
X67144853Y-66288740D01*
X67141083Y-66286411D01*
X67111107Y-66267144D01*
X67107430Y-66264687D01*
X67085450Y-66249425D01*
X67081863Y-66246838D01*
X66824268Y-66054005D01*
X66820776Y-66051293D01*
X66799934Y-66034499D01*
X66796537Y-66031660D01*
X66769605Y-66008325D01*
X66766308Y-66005363D01*
X66746701Y-65987108D01*
X66743516Y-65984035D01*
X66562530Y-65803049D01*
X66535970Y-65874261D01*
X66532581Y-65882441D01*
X66510323Y-65931177D01*
X66506362Y-65939091D01*
X66472185Y-66001681D01*
X66467667Y-66009295D01*
X66438703Y-66054362D01*
X66433655Y-66061632D01*
X66304757Y-66233816D01*
X66299204Y-66240707D01*
X66264124Y-66281192D01*
X66258092Y-66287671D01*
X66207671Y-66338092D01*
X66201192Y-66344124D01*
X66160707Y-66379204D01*
X66153816Y-66384757D01*
X65999205Y-66500500D01*
X59750500Y-66500500D01*
X59750500Y-64998500D01*
X58568555Y-64998500D01*
X57147946Y-64998500D01*
X57225472Y-64920974D01*
X57152478Y-64869863D01*
X56946331Y-64773735D01*
X56946317Y-64773730D01*
X56726610Y-64714860D01*
X56726599Y-64714858D01*
X56500002Y-64695034D01*
X56499998Y-64695034D01*
X56273400Y-64714858D01*
X56273389Y-64714860D01*
X56053682Y-64773730D01*
X56053673Y-64773734D01*
X55847516Y-64869866D01*
X55847512Y-64869868D01*
X55774526Y-64920973D01*
X55774526Y-64920974D01*
X56453553Y-65600000D01*
X56447339Y-65600000D01*
X56345606Y-65627259D01*
X56254394Y-65679920D01*
X56179920Y-65754394D01*
X56127259Y-65845606D01*
X56100000Y-65947339D01*
X56100000Y-65953552D01*
X55420974Y-65274526D01*
X55420973Y-65274526D01*
X55369868Y-65347512D01*
X55369867Y-65347514D01*
X55362656Y-65362979D01*
X55316482Y-65415417D01*
X55249288Y-65434567D01*
X55182407Y-65414350D01*
X55137893Y-65362976D01*
X55130568Y-65347266D01*
X55000047Y-65160861D01*
X55000045Y-65160858D01*
X54839141Y-64999954D01*
X54652734Y-64869432D01*
X54652732Y-64869431D01*
X54446497Y-64773261D01*
X54446488Y-64773258D01*
X54226697Y-64714366D01*
X54226693Y-64714365D01*
X54226692Y-64714365D01*
X54226691Y-64714364D01*
X54226686Y-64714364D01*
X54000002Y-64694532D01*
X53999998Y-64694532D01*
X53847086Y-64707910D01*
X53778586Y-64694143D01*
X53728403Y-64645528D01*
X53712470Y-64577499D01*
X53735845Y-64511656D01*
X53748592Y-64496707D01*
X54394959Y-63850340D01*
X58248500Y-63850340D01*
X58248500Y-64000500D01*
X59750500Y-64000500D01*
X59750500Y-63372345D01*
X59562415Y-63504044D01*
X59557916Y-63507050D01*
X59530302Y-63524642D01*
X59525673Y-63527451D01*
X59487949Y-63549229D01*
X59483209Y-63551829D01*
X59454188Y-63566936D01*
X59449337Y-63569328D01*
X59195708Y-63687598D01*
X59190756Y-63689777D01*
X59160535Y-63702295D01*
X59155500Y-63704253D01*
X59114568Y-63719154D01*
X59109440Y-63720895D01*
X59078205Y-63730744D01*
X59073008Y-63732259D01*
X58802666Y-63804695D01*
X58797412Y-63805981D01*
X58765454Y-63813066D01*
X58760146Y-63814121D01*
X58717251Y-63821684D01*
X58711904Y-63822507D01*
X58679461Y-63826778D01*
X58674084Y-63827367D01*
X58395287Y-63851759D01*
X58389890Y-63852113D01*
X58357190Y-63853541D01*
X58351780Y-63853659D01*
X58308220Y-63853659D01*
X58302810Y-63853541D01*
X58270110Y-63852113D01*
X58264712Y-63851759D01*
X58248500Y-63850340D01*
X54394959Y-63850340D01*
X55390121Y-62855178D01*
X55451442Y-62821695D01*
X55509893Y-62823086D01*
X55522843Y-62826555D01*
X55554592Y-62835063D01*
X55731034Y-62850500D01*
X55789999Y-62855659D01*
X55790000Y-62855659D01*
X55790001Y-62855659D01*
X55848966Y-62850500D01*
X56025408Y-62835063D01*
X56253663Y-62773903D01*
X56467830Y-62674035D01*
X56661401Y-62538495D01*
X56828495Y-62371401D01*
X56958425Y-62185842D01*
X57013002Y-62142217D01*
X57082500Y-62135023D01*
X57144855Y-62166546D01*
X57161575Y-62185842D01*
X57291500Y-62371395D01*
X57291505Y-62371401D01*
X57458599Y-62538495D01*
X57555384Y-62606265D01*
X57652165Y-62674032D01*
X57652167Y-62674033D01*
X57652170Y-62674035D01*
X57866337Y-62773903D01*
X58094592Y-62835063D01*
X58271034Y-62850500D01*
X58329999Y-62855659D01*
X58330000Y-62855659D01*
X58330001Y-62855659D01*
X58388966Y-62850500D01*
X58565408Y-62835063D01*
X58793663Y-62773903D01*
X59007830Y-62674035D01*
X59201401Y-62538495D01*
X59368495Y-62371401D01*
X59487002Y-62202155D01*
X61670000Y-62202155D01*
X61670000Y-63500000D01*
X62950936Y-63500000D01*
X62939207Y-63528316D01*
X62910000Y-63675147D01*
X62910000Y-63824853D01*
X62939207Y-63971684D01*
X62950936Y-64000000D01*
X61670000Y-64000000D01*
X61670000Y-65297844D01*
X61676401Y-65357372D01*
X61676403Y-65357379D01*
X61726645Y-65492086D01*
X61726649Y-65492093D01*
X61812809Y-65607187D01*
X61812812Y-65607190D01*
X61927906Y-65693350D01*
X61927913Y-65693354D01*
X62062620Y-65743596D01*
X62062627Y-65743598D01*
X62122155Y-65749999D01*
X62122172Y-65750000D01*
X63420000Y-65750000D01*
X63420000Y-64469064D01*
X63448316Y-64480793D01*
X63595147Y-64510000D01*
X63744853Y-64510000D01*
X63891684Y-64480793D01*
X63920000Y-64469064D01*
X63920000Y-65750000D01*
X65217828Y-65750000D01*
X65217844Y-65749999D01*
X65277372Y-65743598D01*
X65277379Y-65743596D01*
X65412086Y-65693354D01*
X65412093Y-65693350D01*
X65527187Y-65607190D01*
X65527190Y-65607187D01*
X65613350Y-65492093D01*
X65613354Y-65492086D01*
X65663596Y-65357379D01*
X65663598Y-65357372D01*
X65669999Y-65297844D01*
X65670000Y-65297827D01*
X65670000Y-64000000D01*
X64389064Y-64000000D01*
X64400793Y-63971684D01*
X64430000Y-63824853D01*
X64430000Y-63749998D01*
X66744390Y-63749998D01*
X66744390Y-63750001D01*
X66764804Y-64035433D01*
X66825628Y-64315037D01*
X66825630Y-64315043D01*
X66825631Y-64315046D01*
X66887452Y-64480793D01*
X66925635Y-64583166D01*
X67062770Y-64834309D01*
X67062775Y-64834317D01*
X67234254Y-65063387D01*
X67234270Y-65063405D01*
X67436594Y-65265729D01*
X67436612Y-65265745D01*
X67665682Y-65437224D01*
X67665690Y-65437229D01*
X67916833Y-65574364D01*
X67916832Y-65574364D01*
X67916836Y-65574365D01*
X67916839Y-65574367D01*
X68184954Y-65674369D01*
X68184960Y-65674370D01*
X68184962Y-65674371D01*
X68464566Y-65735195D01*
X68464568Y-65735195D01*
X68464572Y-65735196D01*
X68718220Y-65753337D01*
X68749999Y-65755610D01*
X68750000Y-65755610D01*
X68750001Y-65755610D01*
X68778595Y-65753564D01*
X69035428Y-65735196D01*
X69289529Y-65679920D01*
X69315037Y-65674371D01*
X69315037Y-65674370D01*
X69315046Y-65674369D01*
X69583161Y-65574367D01*
X69834315Y-65437226D01*
X70063395Y-65265739D01*
X70265739Y-65063395D01*
X70437226Y-64834315D01*
X70574367Y-64583161D01*
X70674369Y-64315046D01*
X70735196Y-64035428D01*
X70755610Y-63750000D01*
X70735196Y-63464572D01*
X70715133Y-63372345D01*
X70674371Y-63184962D01*
X70674370Y-63184960D01*
X70674369Y-63184954D01*
X70574367Y-62916839D01*
X70538142Y-62850499D01*
X70437229Y-62665690D01*
X70437224Y-62665682D01*
X70265745Y-62436612D01*
X70265729Y-62436594D01*
X70063405Y-62234270D01*
X70063387Y-62234254D01*
X69834317Y-62062775D01*
X69834309Y-62062770D01*
X69583166Y-61925635D01*
X69583167Y-61925635D01*
X69475915Y-61885632D01*
X69315046Y-61825631D01*
X69315043Y-61825630D01*
X69315037Y-61825628D01*
X69035433Y-61764804D01*
X68750001Y-61744390D01*
X68749999Y-61744390D01*
X68464566Y-61764804D01*
X68184962Y-61825628D01*
X67916833Y-61925635D01*
X67665690Y-62062770D01*
X67665682Y-62062775D01*
X67436612Y-62234254D01*
X67436594Y-62234270D01*
X67234270Y-62436594D01*
X67234254Y-62436612D01*
X67062775Y-62665682D01*
X67062770Y-62665690D01*
X66925635Y-62916833D01*
X66825628Y-63184962D01*
X66764804Y-63464566D01*
X66744390Y-63749998D01*
X64430000Y-63749998D01*
X64430000Y-63675147D01*
X64400793Y-63528316D01*
X64389064Y-63500000D01*
X65670000Y-63500000D01*
X65670000Y-62202172D01*
X65669999Y-62202155D01*
X65663598Y-62142627D01*
X65663596Y-62142620D01*
X65613354Y-62007913D01*
X65613350Y-62007906D01*
X65527190Y-61892812D01*
X65527187Y-61892809D01*
X65412093Y-61806649D01*
X65412086Y-61806645D01*
X65277379Y-61756403D01*
X65277372Y-61756401D01*
X65217844Y-61750000D01*
X63920000Y-61750000D01*
X63920000Y-63030935D01*
X63891684Y-63019207D01*
X63744853Y-62990000D01*
X63595147Y-62990000D01*
X63448316Y-63019207D01*
X63420000Y-63030935D01*
X63420000Y-61750000D01*
X62122155Y-61750000D01*
X62062627Y-61756401D01*
X62062620Y-61756403D01*
X61927913Y-61806645D01*
X61927906Y-61806649D01*
X61812812Y-61892809D01*
X61812809Y-61892812D01*
X61726649Y-62007906D01*
X61726645Y-62007913D01*
X61676403Y-62142620D01*
X61676401Y-62142627D01*
X61670000Y-62202155D01*
X59487002Y-62202155D01*
X59504035Y-62177830D01*
X59603903Y-61963663D01*
X59665063Y-61735408D01*
X59685615Y-61500500D01*
X60748500Y-61500500D01*
X60866624Y-61500500D01*
X60867815Y-61498319D01*
X60872333Y-61490705D01*
X60901297Y-61445638D01*
X60906345Y-61438368D01*
X61035243Y-61266184D01*
X61040796Y-61259293D01*
X61075876Y-61218808D01*
X61081908Y-61212329D01*
X61132329Y-61161908D01*
X61138808Y-61155876D01*
X61179293Y-61120796D01*
X61186184Y-61115243D01*
X61358368Y-60986345D01*
X61365638Y-60981297D01*
X61410705Y-60952333D01*
X61418319Y-60947815D01*
X61480909Y-60913638D01*
X61488823Y-60909677D01*
X61537559Y-60887419D01*
X61545739Y-60884030D01*
X61591501Y-60866962D01*
X65748500Y-60866962D01*
X65794261Y-60884030D01*
X65802441Y-60887419D01*
X65851177Y-60909677D01*
X65859091Y-60913638D01*
X65921681Y-60947815D01*
X65929295Y-60952333D01*
X65974362Y-60981297D01*
X65981632Y-60986345D01*
X66153816Y-61115243D01*
X66160707Y-61120796D01*
X66201192Y-61155876D01*
X66207671Y-61161908D01*
X66258092Y-61212329D01*
X66264124Y-61218808D01*
X66299204Y-61259293D01*
X66304757Y-61266184D01*
X66433655Y-61438368D01*
X66438703Y-61445638D01*
X66467667Y-61490705D01*
X66472185Y-61498319D01*
X66473376Y-61500500D01*
X66760011Y-61500500D01*
X66766308Y-61494637D01*
X66769605Y-61491675D01*
X66796537Y-61468340D01*
X66799934Y-61465501D01*
X66820776Y-61448707D01*
X66824268Y-61445995D01*
X67081863Y-61253162D01*
X67085450Y-61250575D01*
X67107430Y-61235313D01*
X67111107Y-61232856D01*
X67141083Y-61213589D01*
X67144853Y-61211260D01*
X67167898Y-61197586D01*
X67171746Y-61195394D01*
X67250500Y-61152390D01*
X67250500Y-60748500D01*
X65748500Y-60748500D01*
X65748500Y-60866962D01*
X61591501Y-60866962D01*
X61743096Y-60810421D01*
X61750436Y-60807942D01*
X61795305Y-60794332D01*
X61802788Y-60792315D01*
X61863499Y-60777972D01*
X61871084Y-60776428D01*
X61917262Y-60768522D01*
X61924931Y-60767455D01*
X62028783Y-60756289D01*
X62032095Y-60755977D01*
X62052144Y-60754364D01*
X62055458Y-60754142D01*
X62082145Y-60752713D01*
X62085461Y-60752580D01*
X62105509Y-60752044D01*
X62108823Y-60752000D01*
X62250500Y-60752000D01*
X62250500Y-60748500D01*
X60748500Y-60748500D01*
X60748500Y-61500500D01*
X59685615Y-61500500D01*
X59685659Y-61500000D01*
X59665063Y-61264592D01*
X59603903Y-61036337D01*
X59504035Y-60822171D01*
X59498425Y-60814158D01*
X59368494Y-60628597D01*
X59201402Y-60461506D01*
X59201395Y-60461501D01*
X59007834Y-60325967D01*
X59007830Y-60325965D01*
X59007828Y-60325964D01*
X58793663Y-60226097D01*
X58793659Y-60226096D01*
X58793655Y-60226094D01*
X58565413Y-60164938D01*
X58565403Y-60164936D01*
X58330001Y-60144341D01*
X58329999Y-60144341D01*
X58094596Y-60164936D01*
X58094586Y-60164938D01*
X57866344Y-60226094D01*
X57866335Y-60226098D01*
X57652171Y-60325964D01*
X57652169Y-60325965D01*
X57458597Y-60461505D01*
X57291505Y-60628597D01*
X57161575Y-60814158D01*
X57106998Y-60857783D01*
X57037500Y-60864977D01*
X56975145Y-60833454D01*
X56958425Y-60814158D01*
X56828494Y-60628597D01*
X56661402Y-60461506D01*
X56661395Y-60461501D01*
X56467834Y-60325967D01*
X56467830Y-60325965D01*
X56467828Y-60325964D01*
X56253663Y-60226097D01*
X56253659Y-60226096D01*
X56253655Y-60226094D01*
X56025413Y-60164938D01*
X56025403Y-60164936D01*
X55790001Y-60144341D01*
X55789999Y-60144341D01*
X55554596Y-60164936D01*
X55554586Y-60164938D01*
X55326344Y-60226094D01*
X55326335Y-60226098D01*
X55112171Y-60325964D01*
X55112169Y-60325965D01*
X54918600Y-60461503D01*
X54796673Y-60583430D01*
X54735350Y-60616914D01*
X54665658Y-60611930D01*
X54609725Y-60570058D01*
X54592810Y-60539081D01*
X54543797Y-60407671D01*
X54543793Y-60407664D01*
X54457547Y-60292455D01*
X54457544Y-60292452D01*
X54342335Y-60206206D01*
X54342328Y-60206202D01*
X54207482Y-60155908D01*
X54207483Y-60155908D01*
X54147883Y-60149501D01*
X54147881Y-60149500D01*
X54147873Y-60149500D01*
X54147864Y-60149500D01*
X52352129Y-60149500D01*
X52352123Y-60149501D01*
X52292516Y-60155908D01*
X52157671Y-60206202D01*
X52157664Y-60206206D01*
X52042455Y-60292452D01*
X52042452Y-60292455D01*
X51956206Y-60407664D01*
X51956202Y-60407671D01*
X51905908Y-60542517D01*
X51899501Y-60602116D01*
X51899500Y-60602135D01*
X51899500Y-62397870D01*
X51899501Y-62397876D01*
X51905908Y-62457483D01*
X51956202Y-62592328D01*
X51956206Y-62592335D01*
X52042452Y-62707544D01*
X52042455Y-62707547D01*
X52157664Y-62793793D01*
X52157671Y-62793797D01*
X52292517Y-62844091D01*
X52292516Y-62844091D01*
X52299444Y-62844835D01*
X52352127Y-62850500D01*
X53184836Y-62850499D01*
X53251875Y-62870183D01*
X53297630Y-62922987D01*
X53307574Y-62992146D01*
X53278549Y-63055702D01*
X53272517Y-63062180D01*
X51225307Y-65109390D01*
X51225304Y-65109394D01*
X51151383Y-65220024D01*
X51151378Y-65220034D01*
X51100459Y-65342963D01*
X51100457Y-65342970D01*
X51086259Y-65414350D01*
X51083949Y-65425965D01*
X51080799Y-65441799D01*
X51074500Y-65473467D01*
X51074500Y-106754035D01*
X51100457Y-106884528D01*
X51100459Y-106884536D01*
X51151378Y-107007465D01*
X51151383Y-107007475D01*
X51225304Y-107118105D01*
X51225307Y-107118109D01*
X52545018Y-108437819D01*
X52578503Y-108499142D01*
X52573519Y-108568834D01*
X52531647Y-108624767D01*
X52466183Y-108649184D01*
X52457338Y-108649500D01*
X52352130Y-108649500D01*
X52352123Y-108649501D01*
X52292516Y-108655908D01*
X52157671Y-108706202D01*
X52157664Y-108706206D01*
X52042455Y-108792452D01*
X52042452Y-108792455D01*
X51956206Y-108907664D01*
X51956202Y-108907671D01*
X51905908Y-109042517D01*
X51899501Y-109102116D01*
X51899500Y-109102135D01*
X51899500Y-110897870D01*
X51899501Y-110897876D01*
X51905908Y-110957483D01*
X51956202Y-111092328D01*
X51956206Y-111092335D01*
X52042452Y-111207544D01*
X52042455Y-111207547D01*
X52134208Y-111276234D01*
X52176079Y-111332168D01*
X52181063Y-111401859D01*
X52147577Y-111463182D01*
X52086254Y-111496666D01*
X52059897Y-111499500D01*
X50759756Y-111499500D01*
X50740359Y-111497973D01*
X50692297Y-111490361D01*
X50655400Y-111478372D01*
X50620845Y-111460765D01*
X50589461Y-111437963D01*
X50562036Y-111410538D01*
X50539235Y-111379156D01*
X50521625Y-111344595D01*
X50509639Y-111307706D01*
X50502025Y-111259631D01*
X50500500Y-111240244D01*
X50500500Y-60009755D01*
X50502025Y-59990369D01*
X50509639Y-59942291D01*
X50521624Y-59905406D01*
X50539237Y-59870840D01*
X50562033Y-59839464D01*
X50589464Y-59812033D01*
X50620840Y-59789237D01*
X50655406Y-59771624D01*
X50692291Y-59759639D01*
X50740368Y-59752025D01*
X50759756Y-59750500D01*
X71874206Y-59750500D01*
X71941245Y-59770185D01*
G37*
%TD.AperFunction*%
%TA.AperFunction,Conductor*%
G36*
X71442539Y-88270184D02*
G01*
X71488294Y-88322988D01*
X71499500Y-88374499D01*
X71499500Y-104348422D01*
X71530290Y-104542826D01*
X71591117Y-104730029D01*
X71680476Y-104905405D01*
X71758204Y-105012388D01*
X71781684Y-105078195D01*
X71781885Y-105085867D01*
X71751789Y-111376093D01*
X71731783Y-111443038D01*
X71678761Y-111488540D01*
X71627790Y-111499500D01*
X58869196Y-111499500D01*
X58802157Y-111479815D01*
X58756402Y-111427011D01*
X58746458Y-111357853D01*
X58775483Y-111294297D01*
X58816791Y-111263118D01*
X58824252Y-111259639D01*
X59007830Y-111174035D01*
X59201401Y-111038495D01*
X59368495Y-110871401D01*
X59504035Y-110677830D01*
X59603903Y-110463663D01*
X59665063Y-110235408D01*
X59685659Y-110000000D01*
X59665063Y-109764592D01*
X59603903Y-109536337D01*
X59583272Y-109492093D01*
X59556342Y-109434341D01*
X59545850Y-109365264D01*
X59574370Y-109301480D01*
X59581030Y-109294269D01*
X61708319Y-107166980D01*
X61769642Y-107133496D01*
X61839334Y-107138480D01*
X61895267Y-107180352D01*
X61919684Y-107245816D01*
X61920000Y-107254662D01*
X61920000Y-107500000D01*
X63200936Y-107500000D01*
X63189207Y-107528316D01*
X63160000Y-107675147D01*
X63160000Y-107824853D01*
X63189207Y-107971684D01*
X63200936Y-108000000D01*
X61920000Y-108000000D01*
X61920000Y-109297844D01*
X61926401Y-109357372D01*
X61926403Y-109357379D01*
X61976645Y-109492086D01*
X61976649Y-109492093D01*
X62062809Y-109607187D01*
X62062812Y-109607190D01*
X62177906Y-109693350D01*
X62177913Y-109693354D01*
X62312620Y-109743596D01*
X62312627Y-109743598D01*
X62372155Y-109749999D01*
X62372172Y-109750000D01*
X63670000Y-109750000D01*
X63670000Y-108469064D01*
X63698316Y-108480793D01*
X63845147Y-108510000D01*
X63994853Y-108510000D01*
X64141684Y-108480793D01*
X64170000Y-108469064D01*
X64170000Y-109750000D01*
X65467828Y-109750000D01*
X65467844Y-109749999D01*
X65527372Y-109743598D01*
X65527379Y-109743596D01*
X65662086Y-109693354D01*
X65662093Y-109693350D01*
X65777187Y-109607190D01*
X65777190Y-109607187D01*
X65863350Y-109492093D01*
X65863354Y-109492086D01*
X65913596Y-109357379D01*
X65913598Y-109357372D01*
X65919999Y-109297844D01*
X65920000Y-109297827D01*
X65920000Y-108000000D01*
X64639064Y-108000000D01*
X64650793Y-107971684D01*
X64680000Y-107824853D01*
X64680000Y-107749998D01*
X66994390Y-107749998D01*
X66994390Y-107750001D01*
X67014804Y-108035433D01*
X67075628Y-108315037D01*
X67075630Y-108315043D01*
X67075631Y-108315046D01*
X67148345Y-108510000D01*
X67175635Y-108583166D01*
X67312770Y-108834309D01*
X67312775Y-108834317D01*
X67484254Y-109063387D01*
X67484270Y-109063405D01*
X67686594Y-109265729D01*
X67686612Y-109265745D01*
X67915682Y-109437224D01*
X67915690Y-109437229D01*
X68166833Y-109574364D01*
X68166832Y-109574364D01*
X68166836Y-109574365D01*
X68166839Y-109574367D01*
X68434954Y-109674369D01*
X68434960Y-109674370D01*
X68434962Y-109674371D01*
X68714566Y-109735195D01*
X68714568Y-109735195D01*
X68714572Y-109735196D01*
X68968220Y-109753337D01*
X68999999Y-109755610D01*
X69000000Y-109755610D01*
X69000001Y-109755610D01*
X69028595Y-109753564D01*
X69285428Y-109735196D01*
X69565046Y-109674369D01*
X69833161Y-109574367D01*
X70084315Y-109437226D01*
X70313395Y-109265739D01*
X70515739Y-109063395D01*
X70687226Y-108834315D01*
X70824367Y-108583161D01*
X70924369Y-108315046D01*
X70965611Y-108125459D01*
X70985195Y-108035433D01*
X70985195Y-108035432D01*
X70985196Y-108035428D01*
X71005610Y-107750000D01*
X70985196Y-107464572D01*
X70975198Y-107418613D01*
X70924371Y-107184962D01*
X70924370Y-107184960D01*
X70924369Y-107184954D01*
X70824367Y-106916839D01*
X70820480Y-106909721D01*
X70687229Y-106665690D01*
X70687224Y-106665682D01*
X70515745Y-106436612D01*
X70515729Y-106436594D01*
X70313405Y-106234270D01*
X70313387Y-106234254D01*
X70084317Y-106062775D01*
X70084309Y-106062770D01*
X69833166Y-105925635D01*
X69833167Y-105925635D01*
X69725915Y-105885632D01*
X69565046Y-105825631D01*
X69565043Y-105825630D01*
X69565037Y-105825628D01*
X69285433Y-105764804D01*
X69000001Y-105744390D01*
X68999999Y-105744390D01*
X68714566Y-105764804D01*
X68434962Y-105825628D01*
X68166833Y-105925635D01*
X67915690Y-106062770D01*
X67915682Y-106062775D01*
X67686612Y-106234254D01*
X67686594Y-106234270D01*
X67484270Y-106436594D01*
X67484254Y-106436612D01*
X67312775Y-106665682D01*
X67312770Y-106665690D01*
X67175635Y-106916833D01*
X67075628Y-107184962D01*
X67014804Y-107464566D01*
X66994390Y-107749998D01*
X64680000Y-107749998D01*
X64680000Y-107675147D01*
X64650793Y-107528316D01*
X64639064Y-107500000D01*
X65920000Y-107500000D01*
X65920000Y-106202172D01*
X65919999Y-106202155D01*
X65913598Y-106142627D01*
X65913596Y-106142620D01*
X65863354Y-106007913D01*
X65863350Y-106007906D01*
X65777190Y-105892812D01*
X65777187Y-105892809D01*
X65662093Y-105806649D01*
X65662086Y-105806645D01*
X65527379Y-105756403D01*
X65527372Y-105756401D01*
X65467844Y-105750000D01*
X64170000Y-105750000D01*
X64170000Y-107030935D01*
X64141684Y-107019207D01*
X63994853Y-106990000D01*
X63845147Y-106990000D01*
X63698316Y-107019207D01*
X63670000Y-107030935D01*
X63670000Y-105750000D01*
X63424663Y-105750000D01*
X63357624Y-105730315D01*
X63311869Y-105677511D01*
X63301925Y-105608353D01*
X63330950Y-105544797D01*
X63336982Y-105538319D01*
X64599692Y-104275609D01*
X64599692Y-104275608D01*
X64599695Y-104275606D01*
X64673620Y-104164969D01*
X64724541Y-104042036D01*
X64732803Y-104000500D01*
X65748500Y-104000500D01*
X67250500Y-104000500D01*
X67250500Y-103808364D01*
X67231938Y-103810954D01*
X67226250Y-103811614D01*
X67180327Y-103815870D01*
X67174612Y-103816267D01*
X67139988Y-103817868D01*
X67134260Y-103818000D01*
X66865740Y-103818000D01*
X66860012Y-103817868D01*
X66825388Y-103816267D01*
X66819673Y-103815870D01*
X66773750Y-103811614D01*
X66768062Y-103810954D01*
X66733744Y-103806167D01*
X66728090Y-103805245D01*
X66464160Y-103755908D01*
X66458560Y-103754726D01*
X66424846Y-103746798D01*
X66419304Y-103745360D01*
X66374942Y-103732741D01*
X66369466Y-103731045D01*
X66336584Y-103720025D01*
X66331193Y-103718079D01*
X66080790Y-103621072D01*
X66075497Y-103618879D01*
X66043777Y-103604873D01*
X66038587Y-103602437D01*
X65997302Y-103581877D01*
X65992235Y-103579205D01*
X65961976Y-103562349D01*
X65957042Y-103559450D01*
X65751498Y-103432182D01*
X68248500Y-103432182D01*
X68248500Y-104000500D01*
X69750500Y-104000500D01*
X69750500Y-102498500D01*
X69017977Y-102498500D01*
X68907721Y-102719924D01*
X68905050Y-102724990D01*
X68888181Y-102755276D01*
X68885277Y-102760219D01*
X68860990Y-102799441D01*
X68857862Y-102804241D01*
X68838273Y-102832835D01*
X68834927Y-102837485D01*
X68673146Y-103051697D01*
X68633275Y-103085987D01*
X68521990Y-103146293D01*
X68415178Y-103314432D01*
X68375790Y-103353368D01*
X68248500Y-103432182D01*
X65751498Y-103432182D01*
X65748500Y-103430326D01*
X65748500Y-104000500D01*
X64732803Y-104000500D01*
X64750500Y-103911531D01*
X64750500Y-103778469D01*
X64750500Y-102626880D01*
X66346671Y-102626880D01*
X66462823Y-102698798D01*
X66462824Y-102698799D01*
X66670195Y-102779134D01*
X66888807Y-102820000D01*
X67111193Y-102820000D01*
X67329804Y-102779134D01*
X67537177Y-102698798D01*
X67537178Y-102698797D01*
X67653327Y-102626880D01*
X67000001Y-101973554D01*
X67000000Y-101973554D01*
X66346671Y-102626880D01*
X64750500Y-102626880D01*
X64750500Y-101619999D01*
X65794859Y-101619999D01*
X65794859Y-101620000D01*
X65815378Y-101841439D01*
X65876240Y-102055350D01*
X65975364Y-102254419D01*
X65975366Y-102254421D01*
X65991138Y-102275306D01*
X66646446Y-101620000D01*
X66646446Y-101619999D01*
X66600369Y-101573922D01*
X66650000Y-101573922D01*
X66650000Y-101666078D01*
X66673852Y-101755095D01*
X66719930Y-101834905D01*
X66785095Y-101900070D01*
X66864905Y-101946148D01*
X66953922Y-101970000D01*
X67046078Y-101970000D01*
X67135095Y-101946148D01*
X67214905Y-101900070D01*
X67280070Y-101834905D01*
X67326148Y-101755095D01*
X67350000Y-101666078D01*
X67350000Y-101619999D01*
X67353554Y-101619999D01*
X67353554Y-101620000D01*
X68008860Y-102275306D01*
X68008861Y-102275306D01*
X68024631Y-102254425D01*
X68024632Y-102254422D01*
X68123759Y-102055350D01*
X68184621Y-101841439D01*
X68205141Y-101620000D01*
X68205141Y-101619999D01*
X68184621Y-101398560D01*
X68123759Y-101184649D01*
X68024633Y-100985577D01*
X68024631Y-100985574D01*
X68008860Y-100964691D01*
X67353554Y-101619999D01*
X67350000Y-101619999D01*
X67350000Y-101573922D01*
X67326148Y-101484905D01*
X67280070Y-101405095D01*
X67214905Y-101339930D01*
X67135095Y-101293852D01*
X67046078Y-101270000D01*
X66953922Y-101270000D01*
X66864905Y-101293852D01*
X66785095Y-101339930D01*
X66719930Y-101405095D01*
X66673852Y-101484905D01*
X66650000Y-101573922D01*
X66600369Y-101573922D01*
X65991138Y-100964691D01*
X65991137Y-100964691D01*
X65975369Y-100985571D01*
X65876240Y-101184649D01*
X65815378Y-101398560D01*
X65794859Y-101619999D01*
X64750500Y-101619999D01*
X64750500Y-100613118D01*
X66346671Y-100613118D01*
X67000000Y-101266446D01*
X67000001Y-101266446D01*
X67653327Y-100613118D01*
X67653326Y-100613117D01*
X67537181Y-100541203D01*
X67537175Y-100541200D01*
X67329804Y-100460865D01*
X67111193Y-100420000D01*
X66888807Y-100420000D01*
X66670195Y-100460865D01*
X66462824Y-100541200D01*
X66462818Y-100541204D01*
X66346672Y-100613117D01*
X66346671Y-100613118D01*
X64750500Y-100613118D01*
X64750500Y-99998500D01*
X68461509Y-99998500D01*
X68521990Y-100093706D01*
X68633287Y-100154021D01*
X68673158Y-100188312D01*
X68834937Y-100402530D01*
X68838283Y-100407179D01*
X68857875Y-100435778D01*
X68861003Y-100440579D01*
X68885287Y-100479798D01*
X68888191Y-100484740D01*
X68905055Y-100515018D01*
X68907725Y-100520083D01*
X69027414Y-100760450D01*
X69029849Y-100765637D01*
X69043848Y-100797343D01*
X69046039Y-100802634D01*
X69062701Y-100845643D01*
X69064647Y-100851032D01*
X69075660Y-100883891D01*
X69077355Y-100889363D01*
X69150834Y-101147621D01*
X69152273Y-101153164D01*
X69160205Y-101186889D01*
X69161387Y-101192490D01*
X69169863Y-101237825D01*
X69170786Y-101243483D01*
X69175575Y-101277815D01*
X69176235Y-101283505D01*
X69196343Y-101500500D01*
X69750500Y-101500500D01*
X69750500Y-99998500D01*
X68461509Y-99998500D01*
X64750500Y-99998500D01*
X64750500Y-99000500D01*
X65748500Y-99000500D01*
X67250500Y-99000500D01*
X68248500Y-99000500D01*
X69750500Y-99000500D01*
X69750500Y-97498500D01*
X68248500Y-97498500D01*
X68248500Y-99000500D01*
X67250500Y-99000500D01*
X67250500Y-97498500D01*
X65748500Y-97498500D01*
X65748500Y-99000500D01*
X64750500Y-99000500D01*
X64750500Y-96500500D01*
X65748500Y-96500500D01*
X67250500Y-96500500D01*
X67250500Y-96188871D01*
X67231984Y-96191454D01*
X67226294Y-96192114D01*
X67180368Y-96196370D01*
X67174654Y-96196767D01*
X67140033Y-96198368D01*
X67134305Y-96198500D01*
X66865695Y-96198500D01*
X66859967Y-96198368D01*
X66825346Y-96196767D01*
X66819632Y-96196370D01*
X66773706Y-96192114D01*
X66768016Y-96191454D01*
X66733693Y-96186666D01*
X66728040Y-96185744D01*
X66464004Y-96136387D01*
X66458396Y-96135204D01*
X66424654Y-96127267D01*
X66419112Y-96125827D01*
X66374752Y-96113205D01*
X66369278Y-96111510D01*
X66336428Y-96100499D01*
X66331043Y-96098555D01*
X66080569Y-96001522D01*
X66075274Y-95999328D01*
X66043553Y-95985321D01*
X66038365Y-95982886D01*
X65997080Y-95962326D01*
X65992016Y-95959656D01*
X65961757Y-95942801D01*
X65956821Y-95939900D01*
X65751502Y-95812772D01*
X68248500Y-95812772D01*
X68248500Y-96500500D01*
X69750500Y-96500500D01*
X69750500Y-94998500D01*
X68958782Y-94998500D01*
X68908149Y-95100185D01*
X68905477Y-95105253D01*
X68888609Y-95135536D01*
X68885707Y-95140475D01*
X68861427Y-95179687D01*
X68858300Y-95184486D01*
X68838719Y-95213070D01*
X68835374Y-95217719D01*
X68673506Y-95432067D01*
X68669950Y-95436557D01*
X68647812Y-95463217D01*
X68644052Y-95467537D01*
X68612981Y-95501621D01*
X68609024Y-95505765D01*
X68584516Y-95530273D01*
X68580373Y-95534229D01*
X68381871Y-95715188D01*
X68377549Y-95718949D01*
X68350891Y-95741085D01*
X68346404Y-95744639D01*
X68309598Y-95772435D01*
X68304947Y-95775782D01*
X68276350Y-95795372D01*
X68271549Y-95798501D01*
X68248500Y-95812772D01*
X65751502Y-95812772D01*
X65748500Y-95810913D01*
X65748500Y-96500500D01*
X64750500Y-96500500D01*
X64750500Y-92692142D01*
X64770185Y-92625103D01*
X64822989Y-92579348D01*
X64892147Y-92569404D01*
X64954430Y-92597341D01*
X65078157Y-92701659D01*
X65078158Y-92701660D01*
X65280024Y-92820120D01*
X65499012Y-92902762D01*
X65728809Y-92947205D01*
X65781382Y-92949998D01*
X65781421Y-92949999D01*
X66049753Y-92949999D01*
X66116792Y-92969683D01*
X66162547Y-93022487D01*
X66172491Y-93091646D01*
X66143466Y-93155201D01*
X66133292Y-93165635D01*
X66109021Y-93187761D01*
X65974943Y-93365308D01*
X65974938Y-93365316D01*
X65875775Y-93564461D01*
X65875769Y-93564476D01*
X65814885Y-93778462D01*
X65814884Y-93778464D01*
X65794357Y-93999999D01*
X65794357Y-94000000D01*
X65814884Y-94221535D01*
X65814885Y-94221537D01*
X65875769Y-94435523D01*
X65875775Y-94435538D01*
X65974938Y-94634683D01*
X65974943Y-94634691D01*
X66109020Y-94812238D01*
X66273437Y-94962123D01*
X66273439Y-94962125D01*
X66462595Y-95079245D01*
X66462596Y-95079245D01*
X66462599Y-95079247D01*
X66670060Y-95159618D01*
X66888757Y-95200500D01*
X66888759Y-95200500D01*
X67111241Y-95200500D01*
X67111243Y-95200500D01*
X67329940Y-95159618D01*
X67537401Y-95079247D01*
X67726562Y-94962124D01*
X67890981Y-94812236D01*
X68025058Y-94634689D01*
X68124229Y-94435528D01*
X68185115Y-94221536D01*
X68205643Y-94000000D01*
X68185115Y-93778464D01*
X68124229Y-93564472D01*
X68124224Y-93564461D01*
X68051403Y-93418217D01*
X69120225Y-93418217D01*
X69151326Y-93527523D01*
X69152766Y-93533067D01*
X69160699Y-93566795D01*
X69161881Y-93572398D01*
X69170357Y-93617734D01*
X69171280Y-93623391D01*
X69176069Y-93657724D01*
X69176729Y-93663413D01*
X69201514Y-93930879D01*
X69201911Y-93936596D01*
X69203511Y-93971214D01*
X69203643Y-93976939D01*
X69203643Y-94000500D01*
X69750500Y-94000500D01*
X69750500Y-92640255D01*
X69744152Y-92652208D01*
X69741586Y-92656802D01*
X69601678Y-92895219D01*
X69598917Y-92899703D01*
X69581651Y-92926455D01*
X69578706Y-92930813D01*
X69554235Y-92965414D01*
X69551103Y-92969648D01*
X69531625Y-92994847D01*
X69528319Y-92998942D01*
X69350127Y-93210290D01*
X69346648Y-93214243D01*
X69325105Y-93237697D01*
X69321463Y-93241496D01*
X69291496Y-93271463D01*
X69287697Y-93275105D01*
X69264243Y-93296648D01*
X69260290Y-93300127D01*
X69120225Y-93418217D01*
X68051403Y-93418217D01*
X68025061Y-93365316D01*
X68025056Y-93365308D01*
X67890979Y-93187761D01*
X67834921Y-93136658D01*
X67798639Y-93076947D01*
X67800400Y-93007099D01*
X67839643Y-92949292D01*
X67894914Y-92923277D01*
X68000986Y-92902762D01*
X68219975Y-92820120D01*
X68421841Y-92701660D01*
X68421848Y-92701655D01*
X68600786Y-92550788D01*
X68600788Y-92550786D01*
X68751655Y-92371848D01*
X68751660Y-92371841D01*
X68870120Y-92169975D01*
X68952762Y-91950987D01*
X68997205Y-91721191D01*
X68997205Y-91721190D01*
X68999998Y-91668617D01*
X69000000Y-91668578D01*
X69000000Y-90950000D01*
X68183012Y-90950000D01*
X68215925Y-90892993D01*
X68250000Y-90765826D01*
X68250000Y-90634174D01*
X68215925Y-90507007D01*
X68183012Y-90450000D01*
X68999999Y-90450000D01*
X68999999Y-89731423D01*
X68999998Y-89731411D01*
X68997205Y-89678808D01*
X68952762Y-89449012D01*
X68870120Y-89230024D01*
X68751660Y-89028158D01*
X68751655Y-89028151D01*
X68600788Y-88849213D01*
X68600786Y-88849211D01*
X68421848Y-88698344D01*
X68421841Y-88698339D01*
X68219975Y-88579879D01*
X68000984Y-88497236D01*
X67995840Y-88496241D01*
X67933760Y-88464180D01*
X67898869Y-88403646D01*
X67902244Y-88333858D01*
X67942814Y-88276973D01*
X68007697Y-88251052D01*
X68019374Y-88250499D01*
X71375500Y-88250499D01*
X71442539Y-88270184D01*
G37*
%TD.AperFunction*%
%TA.AperFunction,Conductor*%
G36*
X56350000Y-78802661D02*
G01*
X56377259Y-78904394D01*
X56429920Y-78995606D01*
X56504394Y-79070080D01*
X56595606Y-79122741D01*
X56697339Y-79150000D01*
X56703552Y-79150000D01*
X56024526Y-79829025D01*
X56097513Y-79880132D01*
X56097521Y-79880136D01*
X56303668Y-79976264D01*
X56303682Y-79976269D01*
X56523389Y-80035139D01*
X56523400Y-80035141D01*
X56749998Y-80054966D01*
X56750002Y-80054966D01*
X56976599Y-80035141D01*
X56976610Y-80035139D01*
X57196317Y-79976269D01*
X57196326Y-79976265D01*
X57402483Y-79880133D01*
X57402489Y-79880129D01*
X57459376Y-79840297D01*
X57525582Y-79817969D01*
X57593349Y-79834979D01*
X57641162Y-79885926D01*
X57654500Y-79941871D01*
X57654500Y-86396535D01*
X57680457Y-86527028D01*
X57680459Y-86527036D01*
X57731378Y-86649965D01*
X57731383Y-86649975D01*
X57805304Y-86760605D01*
X57805307Y-86760609D01*
X63363181Y-92318482D01*
X63396666Y-92379805D01*
X63399500Y-92406163D01*
X63399500Y-92704057D01*
X63379815Y-92771096D01*
X63327011Y-92816851D01*
X63257853Y-92826795D01*
X63252715Y-92825946D01*
X63221549Y-92820120D01*
X63111243Y-92799500D01*
X62888757Y-92799500D01*
X62670060Y-92840382D01*
X62600502Y-92867329D01*
X62462601Y-92920752D01*
X62462595Y-92920754D01*
X62273439Y-93037874D01*
X62273437Y-93037876D01*
X62109020Y-93187761D01*
X61974943Y-93365308D01*
X61974938Y-93365316D01*
X61875775Y-93564461D01*
X61875769Y-93564476D01*
X61814885Y-93778462D01*
X61814884Y-93778464D01*
X61794357Y-93999999D01*
X61794357Y-94000000D01*
X61810216Y-94171149D01*
X61796801Y-94239719D01*
X61774426Y-94270271D01*
X61400307Y-94644390D01*
X61400304Y-94644394D01*
X61326383Y-94755024D01*
X61326378Y-94755034D01*
X61275459Y-94877963D01*
X61275457Y-94877971D01*
X61258718Y-94962124D01*
X61249500Y-95008464D01*
X61249500Y-103493836D01*
X61229815Y-103560875D01*
X61213181Y-103581517D01*
X59857716Y-104936981D01*
X59796393Y-104970466D01*
X59726701Y-104965482D01*
X59670768Y-104923610D01*
X59652104Y-104887617D01*
X59636550Y-104839746D01*
X59532716Y-104635961D01*
X59398286Y-104450934D01*
X59236566Y-104289214D01*
X59051538Y-104154783D01*
X59004512Y-104130822D01*
X58847755Y-104050950D01*
X58630248Y-103980278D01*
X58444812Y-103950908D01*
X58404354Y-103944500D01*
X58175646Y-103944500D01*
X58144760Y-103949391D01*
X57949755Y-103980277D01*
X57894332Y-103998285D01*
X57824491Y-104000279D01*
X57768335Y-103968034D01*
X56746801Y-102946500D01*
X58248500Y-102946500D01*
X58423964Y-102946500D01*
X58428836Y-102946596D01*
X58458288Y-102947754D01*
X58463153Y-102948041D01*
X58502232Y-102951119D01*
X58507069Y-102951595D01*
X58536303Y-102955055D01*
X58541127Y-102955723D01*
X58805712Y-102997630D01*
X58810500Y-102998485D01*
X58839363Y-103004225D01*
X58844114Y-103005267D01*
X58882232Y-103014415D01*
X58886949Y-103015645D01*
X58915326Y-103023647D01*
X58919990Y-103025062D01*
X59174802Y-103107855D01*
X59179405Y-103109451D01*
X59207049Y-103119650D01*
X59211583Y-103121425D01*
X59247799Y-103136427D01*
X59252260Y-103138378D01*
X59279002Y-103150707D01*
X59283381Y-103152831D01*
X59522083Y-103274456D01*
X59526376Y-103276751D01*
X59552072Y-103291141D01*
X59556273Y-103293603D01*
X59589697Y-103314085D01*
X59593798Y-103316710D01*
X59618295Y-103333078D01*
X59622291Y-103335863D01*
X59750500Y-103429012D01*
X59750500Y-102498500D01*
X58248500Y-102498500D01*
X58248500Y-102946500D01*
X56746801Y-102946500D01*
X54337116Y-100536815D01*
X55748500Y-100536815D01*
X56712185Y-101500500D01*
X57250500Y-101500500D01*
X58248500Y-101500500D01*
X59750500Y-101500500D01*
X59750500Y-99998500D01*
X58248500Y-99998500D01*
X58248500Y-101500500D01*
X57250500Y-101500500D01*
X57250500Y-99998500D01*
X55748500Y-99998500D01*
X55748500Y-100536815D01*
X54337116Y-100536815D01*
X53011819Y-99211518D01*
X52978334Y-99150195D01*
X52975500Y-99123837D01*
X52975500Y-98391986D01*
X58248500Y-98391986D01*
X58248500Y-99000500D01*
X59750500Y-99000500D01*
X59750500Y-97498500D01*
X58783565Y-97498500D01*
X58781340Y-97505974D01*
X58779776Y-97510854D01*
X58766376Y-97549883D01*
X58764613Y-97554694D01*
X58753345Y-97583570D01*
X58751384Y-97588303D01*
X58641578Y-97838637D01*
X58639421Y-97843291D01*
X58625801Y-97871149D01*
X58623458Y-97875701D01*
X58603819Y-97911992D01*
X58601285Y-97916451D01*
X58585414Y-97943085D01*
X58582701Y-97947432D01*
X58433178Y-98176294D01*
X58430284Y-98180529D01*
X58412246Y-98205791D01*
X58409177Y-98209905D01*
X58383829Y-98242466D01*
X58380602Y-98246440D01*
X58360584Y-98270073D01*
X58357195Y-98273911D01*
X58248500Y-98391986D01*
X52975500Y-98391986D01*
X52975500Y-98274000D01*
X52995185Y-98206961D01*
X53047989Y-98161206D01*
X53099500Y-98150000D01*
X53710000Y-98150000D01*
X53710000Y-97125277D01*
X53786306Y-97169333D01*
X53900756Y-97200000D01*
X54019244Y-97200000D01*
X54133694Y-97169333D01*
X54210000Y-97125277D01*
X54210000Y-98150000D01*
X54907828Y-98150000D01*
X54907844Y-98149999D01*
X54967372Y-98143598D01*
X54967379Y-98143596D01*
X55102086Y-98093354D01*
X55102093Y-98093350D01*
X55217187Y-98007190D01*
X55217190Y-98007187D01*
X55303350Y-97892093D01*
X55303355Y-97892084D01*
X55332075Y-97815081D01*
X55373945Y-97759147D01*
X55439409Y-97734729D01*
X55507682Y-97749580D01*
X55539484Y-97774428D01*
X55548216Y-97783913D01*
X55548219Y-97783915D01*
X55548222Y-97783918D01*
X55731365Y-97926464D01*
X55731371Y-97926468D01*
X55731374Y-97926470D01*
X55935497Y-98036936D01*
X56049487Y-98076068D01*
X56155015Y-98112297D01*
X56155017Y-98112297D01*
X56155019Y-98112298D01*
X56383951Y-98150500D01*
X56383952Y-98150500D01*
X56616048Y-98150500D01*
X56616049Y-98150500D01*
X56844981Y-98112298D01*
X57064503Y-98036936D01*
X57268626Y-97926470D01*
X57281499Y-97916451D01*
X57411739Y-97815081D01*
X57451784Y-97783913D01*
X57608979Y-97613153D01*
X57735924Y-97418849D01*
X57829157Y-97206300D01*
X57886134Y-96981305D01*
X57905300Y-96750000D01*
X57905300Y-96749993D01*
X57886135Y-96518702D01*
X57886133Y-96518691D01*
X57829157Y-96293699D01*
X57735924Y-96081151D01*
X57608983Y-95886852D01*
X57608980Y-95886849D01*
X57608979Y-95886847D01*
X57451784Y-95716087D01*
X57451779Y-95716083D01*
X57451777Y-95716081D01*
X57268634Y-95573535D01*
X57268628Y-95573531D01*
X57064504Y-95463064D01*
X57064495Y-95463061D01*
X56844984Y-95387702D01*
X56647816Y-95354801D01*
X56616049Y-95349500D01*
X56383951Y-95349500D01*
X56352184Y-95354801D01*
X56155015Y-95387702D01*
X55935504Y-95463061D01*
X55935495Y-95463064D01*
X55731371Y-95573531D01*
X55731365Y-95573535D01*
X55548222Y-95716081D01*
X55548215Y-95716087D01*
X55539484Y-95725572D01*
X55479595Y-95761561D01*
X55409757Y-95759458D01*
X55352143Y-95719932D01*
X55332075Y-95684918D01*
X55303355Y-95607915D01*
X55303350Y-95607906D01*
X55217190Y-95492812D01*
X55217187Y-95492809D01*
X55102093Y-95406649D01*
X55102086Y-95406645D01*
X54967379Y-95356403D01*
X54967372Y-95356401D01*
X54907844Y-95350000D01*
X54210000Y-95350000D01*
X54210000Y-96374722D01*
X54133694Y-96330667D01*
X54019244Y-96300000D01*
X53900756Y-96300000D01*
X53786306Y-96330667D01*
X53710000Y-96374722D01*
X53710000Y-95350000D01*
X53099500Y-95350000D01*
X53032461Y-95330315D01*
X52986706Y-95277511D01*
X52975500Y-95226000D01*
X52975500Y-95108014D01*
X58248500Y-95108014D01*
X58357195Y-95226090D01*
X58360584Y-95229927D01*
X58380602Y-95253560D01*
X58383829Y-95257534D01*
X58409177Y-95290095D01*
X58412246Y-95294209D01*
X58430284Y-95319471D01*
X58433178Y-95323706D01*
X58582701Y-95552568D01*
X58585414Y-95556915D01*
X58601285Y-95583549D01*
X58603819Y-95588008D01*
X58623458Y-95624299D01*
X58625801Y-95628851D01*
X58639421Y-95656709D01*
X58641578Y-95661363D01*
X58751384Y-95911697D01*
X58753345Y-95916430D01*
X58764613Y-95945306D01*
X58766376Y-95950117D01*
X58779776Y-95989146D01*
X58781340Y-95994026D01*
X58790191Y-96023752D01*
X58791553Y-96028698D01*
X58858663Y-96293707D01*
X58859819Y-96298705D01*
X58866184Y-96329067D01*
X58867131Y-96334103D01*
X58873922Y-96374806D01*
X58874661Y-96379877D01*
X58878494Y-96410632D01*
X58879022Y-96415727D01*
X58886047Y-96500500D01*
X59750500Y-96500500D01*
X59750500Y-94998500D01*
X58248500Y-94998500D01*
X58248500Y-95108014D01*
X52975500Y-95108014D01*
X52975500Y-94000500D01*
X53973500Y-94000500D01*
X54750500Y-94000500D01*
X55748500Y-94000500D01*
X57250500Y-94000500D01*
X58248500Y-94000500D01*
X59750500Y-94000500D01*
X59750500Y-92498500D01*
X58248500Y-92498500D01*
X58248500Y-94000500D01*
X57250500Y-94000500D01*
X57250500Y-92498500D01*
X55748500Y-92498500D01*
X55748500Y-94000500D01*
X54750500Y-94000500D01*
X54750500Y-92498500D01*
X53973500Y-92498500D01*
X53973500Y-94000500D01*
X52975500Y-94000500D01*
X52975500Y-91500500D01*
X55748500Y-91500500D01*
X57250500Y-91500500D01*
X58248500Y-91500500D01*
X59750500Y-91500500D01*
X59750500Y-90117185D01*
X59631815Y-89998500D01*
X58248500Y-89998500D01*
X58248500Y-91500500D01*
X57250500Y-91500500D01*
X57250500Y-89998500D01*
X55748500Y-89998500D01*
X55748500Y-91500500D01*
X52975500Y-91500500D01*
X52975500Y-91134500D01*
X52995185Y-91067461D01*
X53047989Y-91021706D01*
X53099500Y-91010500D01*
X53111241Y-91010500D01*
X53111243Y-91010500D01*
X53329940Y-90969618D01*
X53537401Y-90889247D01*
X53726562Y-90772124D01*
X53890981Y-90622236D01*
X54025058Y-90444689D01*
X54124229Y-90245528D01*
X54185115Y-90031536D01*
X54205643Y-89810000D01*
X54189783Y-89638846D01*
X54203198Y-89570279D01*
X54225570Y-89539729D01*
X54764800Y-89000500D01*
X56090263Y-89000500D01*
X57250500Y-89000500D01*
X57250500Y-87617185D01*
X57131814Y-87498500D01*
X56298500Y-87498500D01*
X56298500Y-88276031D01*
X56298351Y-88282114D01*
X56296545Y-88318886D01*
X56296097Y-88324955D01*
X56291294Y-88373728D01*
X56290549Y-88379770D01*
X56285145Y-88416203D01*
X56284104Y-88422201D01*
X56248581Y-88600778D01*
X56247247Y-88606717D01*
X56238298Y-88642441D01*
X56236675Y-88648307D01*
X56222449Y-88695201D01*
X56220540Y-88700981D01*
X56208137Y-88735643D01*
X56205947Y-88741318D01*
X56136277Y-88909518D01*
X56133812Y-88915081D01*
X56118072Y-88948362D01*
X56115336Y-88953797D01*
X56092236Y-88997017D01*
X56090263Y-89000500D01*
X54764800Y-89000500D01*
X55149695Y-88615606D01*
X55223620Y-88504969D01*
X55274540Y-88382036D01*
X55286286Y-88322988D01*
X55300500Y-88251533D01*
X55300500Y-86500500D01*
X56298500Y-86500500D01*
X56661911Y-86500500D01*
X56658903Y-86469961D01*
X56658455Y-86463890D01*
X56656649Y-86427115D01*
X56656500Y-86421033D01*
X56656500Y-84998500D01*
X56298500Y-84998500D01*
X56298500Y-86500500D01*
X55300500Y-86500500D01*
X55300500Y-84000500D01*
X56298500Y-84000500D01*
X56656500Y-84000500D01*
X56656500Y-82498500D01*
X56298500Y-82498500D01*
X56298500Y-84000500D01*
X55300500Y-84000500D01*
X55300500Y-80738746D01*
X55274541Y-80608249D01*
X55274540Y-80608248D01*
X55274540Y-80608244D01*
X55223620Y-80485311D01*
X55149695Y-80374674D01*
X55055606Y-80280585D01*
X54859406Y-80084385D01*
X54825921Y-80023062D01*
X54830905Y-79953370D01*
X54872777Y-79897437D01*
X54894674Y-79884325D01*
X54902734Y-79880568D01*
X55089139Y-79750047D01*
X55250047Y-79589139D01*
X55380568Y-79402734D01*
X55387893Y-79387024D01*
X55434064Y-79334586D01*
X55501257Y-79315433D01*
X55568138Y-79335648D01*
X55612657Y-79387024D01*
X55619864Y-79402480D01*
X55670974Y-79475472D01*
X56350000Y-78796446D01*
X56350000Y-78802661D01*
G37*
%TD.AperFunction*%
%TA.AperFunction,Conductor*%
G36*
X56040000Y-73228508D02*
G01*
X56130128Y-73214234D01*
X56347570Y-73143582D01*
X56551276Y-73039788D01*
X56736242Y-72905402D01*
X56897905Y-72743739D01*
X56959371Y-72659137D01*
X57014701Y-72616470D01*
X57084314Y-72610491D01*
X57146109Y-72643096D01*
X57160007Y-72659134D01*
X57221714Y-72744066D01*
X57383434Y-72905786D01*
X57568462Y-73040217D01*
X57586795Y-73049558D01*
X57637590Y-73097530D01*
X57654500Y-73160042D01*
X57654500Y-77558128D01*
X57634815Y-77625167D01*
X57582011Y-77670922D01*
X57512853Y-77680866D01*
X57459377Y-77659703D01*
X57402487Y-77619868D01*
X57402483Y-77619866D01*
X57196326Y-77523734D01*
X57196317Y-77523730D01*
X56976610Y-77464860D01*
X56976599Y-77464858D01*
X56750002Y-77445034D01*
X56749998Y-77445034D01*
X56523400Y-77464858D01*
X56523389Y-77464860D01*
X56303682Y-77523730D01*
X56303673Y-77523734D01*
X56097516Y-77619866D01*
X56097512Y-77619868D01*
X56024526Y-77670973D01*
X56024526Y-77670974D01*
X56703553Y-78350000D01*
X56697339Y-78350000D01*
X56595606Y-78377259D01*
X56504394Y-78429920D01*
X56429920Y-78504394D01*
X56377259Y-78595606D01*
X56350000Y-78697339D01*
X56350000Y-78703552D01*
X55670974Y-78024526D01*
X55670973Y-78024526D01*
X55619868Y-78097512D01*
X55619867Y-78097514D01*
X55612656Y-78112979D01*
X55566482Y-78165417D01*
X55499288Y-78184567D01*
X55432407Y-78164350D01*
X55387893Y-78112976D01*
X55380568Y-78097266D01*
X55250047Y-77910861D01*
X55250045Y-77910858D01*
X55089141Y-77749954D01*
X54902734Y-77619432D01*
X54902732Y-77619431D01*
X54696497Y-77523261D01*
X54696488Y-77523258D01*
X54476697Y-77464366D01*
X54476693Y-77464365D01*
X54476692Y-77464365D01*
X54476691Y-77464364D01*
X54476686Y-77464364D01*
X54250002Y-77444532D01*
X54249998Y-77444532D01*
X54023313Y-77464364D01*
X54023302Y-77464366D01*
X53803511Y-77523258D01*
X53803502Y-77523261D01*
X53597267Y-77619431D01*
X53597265Y-77619432D01*
X53425343Y-77739812D01*
X53359136Y-77762140D01*
X53291369Y-77745128D01*
X53243557Y-77694180D01*
X53230220Y-77638237D01*
X53230220Y-76446532D01*
X54228220Y-76446532D01*
X54271779Y-76446532D01*
X54277189Y-76446650D01*
X54309889Y-76448078D01*
X54315286Y-76448432D01*
X54585367Y-76472061D01*
X54590744Y-76472650D01*
X54623188Y-76476921D01*
X54628535Y-76477744D01*
X54671430Y-76485307D01*
X54676737Y-76486362D01*
X54708696Y-76493447D01*
X54713951Y-76494733D01*
X54735474Y-76500500D01*
X54750500Y-76500500D01*
X55748500Y-76500500D01*
X56266455Y-76500500D01*
X56286134Y-76495227D01*
X56291390Y-76493941D01*
X56323349Y-76486856D01*
X56328657Y-76485800D01*
X56371553Y-76478237D01*
X56376899Y-76477415D01*
X56409344Y-76473144D01*
X56414721Y-76472555D01*
X56656500Y-76451402D01*
X56656500Y-74998500D01*
X55748500Y-74998500D01*
X55748500Y-76500500D01*
X54750500Y-76500500D01*
X54750500Y-74998500D01*
X54228220Y-74998500D01*
X54228220Y-76446532D01*
X53230220Y-76446532D01*
X53230220Y-73374499D01*
X53249905Y-73307460D01*
X53302709Y-73261705D01*
X53354220Y-73250499D01*
X54250371Y-73250499D01*
X54250372Y-73250499D01*
X54309983Y-73244091D01*
X54444831Y-73193796D01*
X54560046Y-73107546D01*
X54646296Y-72992331D01*
X54656872Y-72963974D01*
X54698740Y-72908041D01*
X54764204Y-72883622D01*
X54832477Y-72898472D01*
X54845940Y-72906988D01*
X55028723Y-73039788D01*
X55232429Y-73143582D01*
X55449871Y-73214234D01*
X55540000Y-73228509D01*
X55540000Y-72240747D01*
X55577708Y-72262518D01*
X55717591Y-72300000D01*
X55862409Y-72300000D01*
X56002292Y-72262518D01*
X56040000Y-72240747D01*
X56040000Y-73228508D01*
G37*
%TD.AperFunction*%
%TD*%
M02*
