M48
; DRILL file {KiCad 8.0.9-1.fc41} date 2025-04-27T16:21:30+0200
; FORMAT={-:-/ absolute / inch / decimal}
; #@! TF.CreationDate,2025-04-27T16:21:30+02:00
; #@! TF.GenerationSoftware,Kicad,Pcbnew,8.0.9-1.fc41
; #@! TF.FileFunction,Plated,1,2,PTH
FMAT,2
INCH
; #@! TA.AperFunction,Plated,PTH,ComponentDrill
T1C0.0276
; #@! TA.AperFunction,Plated,PTH,ComponentDrill
T2C0.0315
; #@! TA.AperFunction,Plated,PTH,ComponentDrill
T3C0.0354
; #@! TA.AperFunction,Plated,PTH,ComponentDrill
T4C0.0394
; #@! TA.AperFunction,Plated,PTH,ComponentDrill
T5C0.0433
; #@! TA.AperFunction,Plated,PTH,ComponentDrill
T6C0.0598
%
G90
G05
T1
X2.0866Y-3.2358
X2.0866Y-3.5358
X2.4803Y-3.7008
X2.4803Y-4.0008
X2.6378Y-3.7008
X2.6378Y-4.0008
T2
X2.126Y-2.5984
X2.1358Y-3.1004
X2.2244Y-2.5984
X2.2343Y-3.1004
X2.5098Y-2.7953
X2.5098Y-2.8937
T3
X2.1244Y-3.8091
X2.2244Y-3.8091
X2.7264Y-2.8346
X2.7264Y-2.9331
X2.7264Y-3.0315
T4
X2.0965Y-2.4213
X2.0965Y-4.3307
X2.1965Y-2.4213
X2.1965Y-4.3307
X2.2965Y-2.4213
X2.2965Y-4.3307
X2.9232Y-2.4213
X2.9232Y-2.5213
X2.9232Y-4.2224
X2.9232Y-4.3224
T5
X2.0949Y-4.1514
X2.0965Y-2.8248
X2.1949Y-4.1514
X2.1965Y-2.8248
X2.2949Y-4.1514
X2.2965Y-2.8248
T6
X2.5067Y-2.5098
X2.5165Y-4.2421
X2.7067Y-2.5098
X2.7165Y-4.2421
T4
G00X2.5098Y-3.3465
M15
G01X2.5098Y-3.4252
M16
G05
G00X2.5886Y-3.5709
M15
G01X2.6673Y-3.5709
M16
G05
G00X2.7461Y-3.3465
M15
G01X2.7461Y-3.4252
M16
G05
M30
